<?xml version="1.0" encoding="UTF-8"?>
<svg id="_レイヤー_2" data-name="レイヤー 2" xmlns="http://www.w3.org/2000/svg" viewBox="0 0 522.61 82.24">
  <defs>
    <style>
      .cls-1 {
        fill: #666;
      }

      .cls-2 {
        stroke: #009245;
      }

      .cls-2, .cls-3 {
        fill: none;
        stroke-miterlimit: 10;
        stroke-width: 8px;
      }

      .cls-3 {
        stroke: #39b54a;
      }

      .cls-4 {
        fill: #333;
      }
    </style>
  </defs>
  <g id="_レイヤー_1-2" data-name="レイヤー 1">
    <g>
      <path class="cls-4" d="M90.28,66.15V21.71h10.8v44.44h-10.8Z"/>
      <path class="cls-4" d="M128.31,66.15v-19.36c0-2.3-1.53-4.32-4.67-4.32s-5.02,1.95-5.02,4.46v19.23h-10.24v-31.55h9.4v4.25h.07c1.25-3.34,4.53-5.22,9.61-5.22,6.9,0,11.08,3.9,11.08,10.59v21.94h-10.24Z"/>
      <path class="cls-4" d="M154.98,66.85c-4.32,0-7.45-.91-10.03-2.23l-.91-9.06c2.79,1.95,6.41,3.41,9.89,3.41,1.88,0,3.06-.98,3.06-2.16,0-1.32-1.04-1.88-2.86-2.44-6.06-1.74-9.68-4.81-9.68-10.31,0-6.2,5.02-10.17,11.84-10.17,3.9,0,7.73,1.04,9.33,1.88l-1.74,7.52c-1.53-.84-4.04-1.74-6.55-1.74-1.67,0-2.79.77-2.79,2.02,0,1.18.84,1.81,2.79,2.3,7.1,1.88,10.03,5.43,10.03,10.73s-3.9,10.24-12.4,10.24Z"/>
      <path class="cls-4" d="M177.76,30.28c-1.81,0-5.5-3.69-5.5-5.5s3.69-5.43,5.5-5.43,5.5,3.62,5.5,5.43-3.69,5.5-5.5,5.5ZM172.6,66.15v-31.55h10.31v31.55h-10.31Z"/>
      <path class="cls-4" d="M203.46,82.24c-9.19,0-15.32-5.22-15.32-11.84,0-4.81,3.2-7.66,6.48-8.5l-4.04-4.04c.28-2.02,2.02-3.76,3.83-4.53-2.37-1.46-4.6-4.46-4.6-8.43,0-6.69,4.81-11.35,13.03-11.35,1.88,0,3.34.28,4.67.63,1.39.35,2.93.56,4.53.56,1.74,0,3.55-.42,4.95-1.04l1.88,7.8c-.98.56-2.51,1.04-3.9.98.35.63.77,2.09.77,3.2,0,5.29-4.18,9.75-10.31,10.17-1.25.07-2.09.35-2.09,1.18,0,.35.28.77.84.98l4.88,1.74c6.2,2.23,9.54,5.36,9.54,11.15,0,6.48-5.92,11.35-15.12,11.35ZM205.62,67.41l-3.76-1.04c-2.44.07-4.25,1.81-4.25,4.11,0,2.16,1.88,3.97,5.57,3.97s5.57-1.67,5.57-3.48c0-1.46-1.11-3-3.13-3.55ZM202.83,41.01c-2.3,0-4.04,1.74-4.04,3.76s1.74,3.76,4.04,3.76,4.04-1.67,4.04-3.76-1.67-3.76-4.04-3.76Z"/>
      <path class="cls-4" d="M243.09,66.15v-19.36c0-2.3-1.6-4.32-4.74-4.32s-4.95,1.95-4.95,4.46v19.23h-10.24V16.56h10.1v20.97h.07c1.6-2.44,4.53-3.9,8.92-3.9,6.97,0,11.08,3.9,11.08,10.59v21.94h-10.24Z"/>
      <path class="cls-4" d="M280.63,42.96h-8.22v11.7c0,2.72,1.46,3.83,4.18,3.83,1.18,0,1.88-.07,2.65-.42l-.91,7.73c-.98.49-2.72.84-4.74.84-7.1,0-11.35-3.76-11.35-10.03v-13.65h-5.29v-8.36h5.29v-6.76l10.17-3.69v10.45h10.17l-1.95,8.36Z"/>
      <path class="cls-4" d="M302.99,66.15h-16.44V21.71h14.56c6.9,0,13.03,4.53,13.03,11.77,0,2.65-1.32,5.99-3.69,7.31,3.9,1.25,7.73,5.85,7.73,11.49,0,8.64-6.83,13.86-15.19,13.86ZM299.44,29.72h-3.2v9.12h3.2c2.58,0,4.95-1.32,4.95-4.53s-2.37-4.6-4.95-4.6ZM301.18,46.65h-4.95v11.63h4.95c3.27,0,6.62-1.74,6.62-5.78s-3.27-5.85-6.62-5.85Z"/>
      <path class="cls-4" d="M345.83,67.55c-1.88-.42-4.04-1.88-4.88-4.18-1.39,2.58-4.39,3.83-8.22,3.83-5.57,0-10.52-3.9-10.52-10.45,0-5.78,4.53-9.68,10.8-10.31l6.27-.63v-1.04c0-1.88-1.53-3.13-4.95-3.13-3.06,0-6.48.98-8.78,2.44l-1.81-7.73c2.58-1.67,6.9-2.79,11.08-2.79,8.36,0,14.28,3.83,14.28,11.42v10.31c0,3.69,1.39,5.64,3.83,6.55l-7.1,5.71ZM339.28,52.36l-3.83.35c-2.65.21-3.83,2.09-3.83,3.97,0,1.67,1.25,3.06,3.2,3.06,2.44,0,4.46-1.88,4.46-4.6v-2.79Z"/>
      <path class="cls-4" d="M366.65,66.85c-4.32,0-7.45-.91-10.03-2.23l-.91-9.06c2.79,1.95,6.41,3.41,9.89,3.41,1.88,0,3.06-.98,3.06-2.16,0-1.32-1.04-1.88-2.86-2.44-6.06-1.74-9.68-4.81-9.68-10.31,0-6.2,5.02-10.17,11.84-10.17,3.9,0,7.73,1.04,9.33,1.88l-1.74,7.52c-1.53-.84-4.04-1.74-6.55-1.74-1.67,0-2.79.77-2.79,2.02,0,1.18.84,1.81,2.79,2.3,7.1,1.88,10.03,5.43,10.03,10.73s-3.9,10.24-12.4,10.24Z"/>
      <path class="cls-4" d="M412.56,48.6l-4.53,4.6h-15.46c.49,2.58,3.97,5.5,9.33,5.5,3.27,0,6.62-.98,8.71-2.37l-.97,8.78c-2.37,1.25-5.99,2.09-10.03,2.09-9.61,0-17.34-6.69-17.34-17s7.38-16.65,16.44-16.65,14.14,6.06,14.14,12.61c0,.77-.14,1.81-.28,2.44ZM398.69,41.22c-3,0-5.5,2.3-6.13,5.15h10.66c0-.21.07-.42.07-.7,0-2.16-1.88-4.46-4.6-4.46Z"/>
      <path class="cls-1" d="M522.33,48.11l-4.53,4.6h-15.46c.49,2.58,3.97,5.5,9.33,5.5,3.27,0,6.62-.98,8.71-2.37l-.97,8.78c-2.37,1.25-5.99,2.09-10.03,2.09-9.61,0-17.34-6.69-17.34-17s7.38-16.65,16.44-16.65,14.14,6.06,14.14,12.61c0,.77-.14,1.81-.28,2.44ZM508.47,40.73c-3,0-5.5,2.3-6.13,5.15h10.66c0-.21.07-.42.07-.7,0-2.16-1.88-4.46-4.6-4.46Z"/>
    </g>
    <rect class="cls-3" x="27.11" y="4" width="46.22" height="46.22"/>
    <rect class="cls-2" x="4" y="19.94" width="46.22" height="46.22"/>
    <g>
      <path class="cls-1" d="M440.03,67.41c-6.48-.28-10.8-3.62-10.8-11.21V16.56h10.1v38.38c0,2.58,1.46,3.97,4.25,4.18l-3.55,8.29Z"/>
      <path class="cls-1" d="M453.19,30.28c-1.81,0-5.5-3.69-5.5-5.5s3.69-5.43,5.5-5.43,5.5,3.62,5.5,5.43-3.69,5.5-5.5,5.5ZM448.04,66.15v-31.55h10.31v31.55h-10.31Z"/>
      <path class="cls-1" d="M489.06,42.96h-8.22v11.7c0,2.72,1.46,3.83,4.18,3.83,1.18,0,1.88-.07,2.65-.42l-.91,7.73c-.97.49-2.72.84-4.74.84-7.11,0-11.35-3.76-11.35-10.03v-13.65h-5.29v-8.36h5.29v-6.76l10.17-3.69v10.45h10.17l-1.95,8.36Z"/>
    </g>
  </g>
</svg>