<?xml version="1.0" encoding="UTF-8"?>
<svg id="_レイヤー_1" data-name="レイヤー 1" xmlns="http://www.w3.org/2000/svg" viewBox="0 0 400 400">
  <g>
    <path d="m130.67,224.01c.17.08.32.2.49.28.12.04.25.07.37.1.37.03.74.03,1.11,0,.19-.04.37-.08.55-.14.01,0,.02-.01.03-.02.07-.21.12-.41.16-.63.06-.64.04-1.28,0-1.92-1.51-.08-3.09-.37-4.51-.94.66,1.07,1.3,2.14,1.79,3.27Z" style="fill: #fff;"/>
    <path d="m123.32,206.09c-.08-.05-.16-.1-.24-.15,0,0,0,0-.01,0-.1.01-.34,0-.29-.02-.07.02-.15.03-.22.06-.2.07-.23.08-.11.04.12-.05.09-.02-.1.07-.11.06-.21.13-.31.2-.02.02-.03.03-.08.07-.25.19-.62.69-.64.67-.61.85-1.14,1.75-1.67,2.64,2,.68,3.42,2.47,4.67,4.09.21-1.4,1.17-2.83,2.46-3.54-.77-.85-1.43-1.8-2.14-2.72-.38-.48-.82-1.02-1.31-1.39Z" style="fill: #fff;"/>
    <path d="m212.37,324.62c-10.63-.83-21.59-3.24-30.34-9.61-1.55-1.15-2.86-2.55-4.36-3.75-2.3-1.84-6.51-3.47-9.45-2.52-1.92.62-2.94-1.66-2.07-2.99l-1.01-.28c1.43,7.5,3.64,14.9,4.55,22.48,1.33.1,2.68.3,3.94.65,1.56.44,1.81,1.41,2.56,2.71,7.15,11.85,22.78,10.43,34.74,12.45-.46-6.41.46-12.81,1.45-19.13Z" style="fill: #fff;"/>
    <path d="m164.85,322.63c-2.93-13.58-5.86-27.15-8.78-40.73-.3-1.39.79-2.33,1.88-2.43l-1.97-10.53c-7.55,6.71-24.25,17.62-33.46,8.95,3.48,17.79,6.09,35.76,9.44,53.58,1.26,7.03,6.09,13.05,13.17,14.84,8.22,2.08,16.75-2.77,19.61-10.67,1.61-4.45,1.08-8.6.12-13.03Z" style="fill: #6ec878;"/>
    <path d="m144.01,258.59c-1.6-5.65-3.93-11.55-2.23-17.42,1.18-3.91,3.4-7.41,2.94-11.63-.83-5.7-3.8-11.09-5.89-16.41-3,.05-6.11-.34-9.09.04-1.56.26-2.15,1.67-1.06,2.88,1.48,1.65,4.54,1.85,6.61,1.73,1.58-.09,2.16,1.43,1.75,2.59.6,2.31.52,5.86-1.82,7.19-2.53,5.3-3.87,11.11-3.98,16.98-.05,2.51-3.94,2.51-3.9,0,.07-3.75.62-7.46,1.59-11.05-.75.46-1.63.69-2.51.61-.65,1.77-2.11,3.15-4.26,3.23-2.33.09-4.08-1.47-5.7-2.93-1.11-1-2.46-2.15-3.32-3.47-.94-.14-2.2-.18-3.19-.36-1.05-.17-1.62-1.47-1.36-2.4.3-1.09,1.36-1.53,2.4-1.36.18.03.54.06.15.03,1.62.28,3.96-.1,4.97,1.44.13.22.2.37.37.59,1.24,1.45,2.68,2.79,4.16,3.98.58.46,1.16.71,1.77.51.03-.03.15-.12.16-.13-.12.2.26-.43.18-.25.79-1.57-.76-2.99-1.55-4.28-2.09-3.1-4.45-6.04-7.27-8.51-1.31.97-2.62,1.93-3.8,3.06-.95.88-2.5,2.01-2.83,3.31-.33,1.29.53,2.92,1,4.09,2.37,6.08,7.1,10.77,9.96,16.56,2.77,5.77,4.8,11.99,6.4,18.19.39,1.49-.88,2.45-2.06,2.42l.28,2.1c.31-1.16,1.5-2.05,2.74-1.17,2.47,1.75,5.11,2.33,8.08,1.7,5.49-1.14,10.29-4.49,14.58-7.9l-1.14-3.02c-.98.69-2.65.54-3.13-.96Z" style="fill: #fff;"/>
    <path d="m145.97,251.17c.52,2.15,1.12,4.28,1.8,6.38.29.89-.05,1.59-.63,1.99l1.14,3.02c.18-.14.36-.28.54-.43,1.84-1.54,4.47.95,2.94,2.57l.34,2.54c.23-.18.47-.38.7-.57,1.73-1.47,4.16.66,3.16,2.28l1.97,10.53c1.18-.15,1.91.8,2.02,2.03,1.72,7.98,3.44,15.97,5.17,23.95l1.01.28c.22-.34.56-.62,1.04-.77,3.48-1.12,7.74.24,10.83,1.89,1.65.88,2.88,2.13,4.26,3.35,3.37,2.97,7.41,5.1,11.59,6.69l-.36-7.25c-1.02,1.03-3.34.59-3.43-1.33-.81-19.94-1.21-40.01-5.66-59.55-.41-1.94,1.85-2.99,3.07-2.13-1.14-4.79-2.94-9.58-3.91-14.37-.3,9.66-2.26,21.53-12.49,25.33-1.74.65-2.74-1.23-2.21-2.61-3.61,1.25-7.22,1.41-10.84-.62-.26.16-.51.32-.78.47-2.2,1.21-4.17-2.16-1.97-3.37,7.28-3.99,9.38-12.11,9.85-19.86-.82-.04-1.64.49-2.45,1.01.96,1.08.26,2.65-.99,3.07-1.6.62-3.21,1.18-4.8,1.83-1,.43-1.97.93-2.84,1.58-.66.56-1.27,1.17-1.81,1.84-.55.75-1.04,1.54-1.49,2.35-.72,1.35-2.97,1.23-3.45-.24-1.08.46-1.8,1.26-2.32,2.21.01,1.97.54,3.99.99,5.91Z" style="fill: #6ec878;"/>
    <path d="m187.49,246.65c.32.23.58.58.69,1.09,2.13,9.94,3.59,19.98,4.34,30.12.75,10.14.97,20.32,1.46,30.47.03.58-.17,1.02-.47,1.33l.36,7.25c6.07,2.3,12.63,3.39,19.07,3.85.31-1.89,2.73-2.26,3.67-.57l1.08.08c-.1-1.04.52-2.18,1.87-2.21,4.75-.12,9.49-.24,14.24-.36l-.24-7.25c-.39-.31-.65-.79-.63-1.45.53-25.65,3.63-51.23,9.01-76.3l-2.15.59c1.08.89,1.14,2.97-.62,3.43-7.96,2.08-16.11,3.7-24.35,3.95-8.35.25-16.65-1.05-24.5-3.88-1.34-.48-1.58-1.92-1.1-2.9l-5.58-2.2c0,.2-.02.4-.03.61.97,4.79,2.77,9.58,3.91,14.37Z" style="fill: #fff;"/>
    <path d="m218.11,345.59c12.59,2.4,25.18,4.8,37.78,7.18,4.7.52,9.56,3.06,14.16.88,5.31-2.42,7.11-8.01,8.58-13.18,6.5-22.81,10.35-46.26,14.01-69.66.59-3.8,1.18-7.59,1.77-11.39.28-1.78.68-3.34.24-5.1-1.54-6.95-7.37-11.51-13.48-14.47-1.3-.66-1.18-2.06-.41-2.9l-.75-.38c-.12,1.1-1.03,2.07-2.36,1.6-2.7-.95-5-2.52-6.97-4.46-1.11.57-2.29.92-3.52.89-.22.38-.59.7-1.14.84-8.63,2.23-16.48-1.82-21.68-8.54l-.41,2.32c1.19-.08,2.53.9,2.19,2.43-5.58,25.41-8.77,51.33-9.3,77.35-.04,1.86-2.17,2.34-3.27,1.45l.24,7.25c7.11-.18,14.23-.36,21.34-.53-.78-.36-1.38-1.16-1.16-2.23,3.74-18.26,5.59-36.89,6.79-55.47.16-2.5,4.06-2.51,3.9,0-1.22,18.92-3.11,37.91-6.93,56.51-.11.56-.4.93-.76,1.15,2.9-.07,5.8-.14,8.69-.22,2.51-.06,2.51,3.84,0,3.9-15.37.38-30.74.77-46.11,1.15-1.16.03-1.78-.79-1.87-1.69l-1.08-.08c.14.26.21.55.17.85-.57,4.34-1.34,8.67-1.78,13.02-.38,3.7-.33,7.39-.07,11.09.23.45.31.96.24,1.43l.67.3c.33-.84,1.15-1.52,2.28-1.3Z" style="fill: #6ec878;"/>
    <path d="m242.33,164.68c-1.89-14.03-8.02-27.16-16.15-38.65-.25-.36-.35-.71-.35-1.04-.66-.45-1.37-.86-2.1-1.24-5.05,15.96-21.7,26.58-38.1,27.21-1.95,5.19-4,10.52-5.14,15.99l1.61,8.21c1.02-.64,2.55-.45,2.88,1.05,1.38,6.36,3.46,12.62,7.13,18.05,6.75,10.26,20.07,15.94,31.18,8.89,7.63-5.02,12.71-14.69,13.71-23.66-.35-1.32-.32-2.7.06-4.01-.03-.63.2-1.1.57-1.4,1.05-2.21,3.32-3.7,5.74-3.95.27-1.35.69-2.7,1-4.06-.88.05-1.93-.49-2.05-1.41Zm-30.42,3.62c.02-2.85.03-5.69.05-8.54,0-1.09.89-1.9,1.95-1.95,1.05-.05,1.96.93,1.95,1.95,0,.41,0,.82,0,1.23-.02,2.85-.03,5.69-.05,8.54,0,1.09-.89,1.9-1.95,1.95-1.05.05-1.96-.93-1.95-1.95,0-.41,0-.82,0-1.23Zm-11.95-7.89c-2.51,0-2.51-3.9,0-3.9s2.51,3.9,0,3.9Zm23.84,23.37c-.86,4.74-3.12,10.11-7.99,11.85-3.2,1.1-6.62,0-8.99-2.3-2-1.94-3.34-4.56-4.2-7.18-.4-1.29-1.07-2.99-.02-4.14.03-.04.06-.09.1-.13.03-.03.06-.06.09-.09.1-.09.2-.17.32-.24.42-.26.91-.36,1.39-.25h17.41c1.39,0,2.06,1.24,1.88,2.47Zm2.06-23.37c-2.51,0-2.51-3.9,0-3.9s2.51,3.9,0,3.9Z" style="fill: #fff;"/>
    <path d="m132.27,205.95c-.83.49-2.25.27-2.67-.7-1.74-4.03-3.28-8.12-4.6-12.31-1.31-3.7-2.06-7.93-4.64-11-.52-.53-2.04-1.4-2.61-.87-.76.71.22,3.31.48,4.17,1.68,5.66,3.81,11.22,5.55,16.87,2.53.56,3.85,3.05,5.35,4.93.28.34.56.69.88.99.18.17.23.21,0,.02.42.32.72.72.86,1.16,1.21-.04,2.37-.02,3.55,0l-1.52-3.86c-.15.24-.35.45-.64.61Z" style="fill: #fff;"/>
    <path d="m181.1,124.15c-8.1,17.04-13.45,35.47-14.36,54.38-.55,10.04.39,19.98,1.22,29.98,1.01,15.33,5.01,35.94-9.92,45.88,3.61,2.03,7.22,1.88,10.84.62.19-.49.56-.93,1.18-1.15,9.46-3.99,9.62-16.23,9.67-25.1-.52.31-1.05.6-1.6.88.55-.28,1.08-.57,1.6-.88,0-8.46-.8-16.88-.88-25.33-.02-2.51,3.88-2.51,3.9,0,.07,7.49.71,14.91.86,22.41,1.27-1.22,2.34-2.64,3.19-4.28-.38-.61-.49-1.42-.06-2.01,1.99-2.7,3.25-5.68,3.76-8.83-.21.24-.44.48-.68.72.24-.24.47-.48.68-.72.16-1,.25-2.02.26-3.06,0-1.19,1.1-2.09,2.25-1.93.25-1.36.23-2.79,0-4.33-6.26-6.4-9.87-15.26-11.8-24.13-.21-.95.24-1.69.88-2.09l-1.61-8.21c-2.06,9.52-.3,19.38.58,28.93.23,2.5-3.67,2.48-3.9,0-.73-7.89-2.04-16.01-1.34-23.96.71-8.02,3.66-15.65,6.46-23.12.34-.9,1.1-1.3,1.86-1.32.3-.24.68-.39,1.16-.41,15.46-.48,31.33-10.84,35.21-26.28.61-2.44,4.37-1.4,3.76,1.04-.16.65-.35,1.29-.55,1.92.73.38,1.44.79,2.1,1.24.02-1.57,2.53-2.61,3.72-.93,8.29,11.72,14.61,25.26,16.54,39.58.19,1.15-.42,2.38-1.71,2.45-.32,1.35-.74,2.7-1,4.06,4.4-.58,8.61,3.39,8.22,7.82-.32,5.63-6.57,8.89-11.34,5.9-1.13,5.01-3.32,9.71-6.2,13.88.19,5.88,1.3,11.66,4.02,16.39-1.31-4.83-1.69-9.92-1.04-14.87.14-1.04.78-1.96,1.95-1.95.95,0,2.09.9,1.95,1.95-1.03,7.78.55,15.69,4.58,22.43.07.04.13.09.2.13-.07-.04-.13-.09-.2-.13,3.98,6.93,11.19,12.11,19.45,9.97,1.88-.48,2.91,1.63,2.18,2.92,1.23.03,2.41-.32,3.52-.89-16.55-18.08-13.65-44.3-15.48-66.95-.14-1.55,1.31-2.13,2.48-1.76-.23-3.19-.79-6.45-1.4-9.64-.98,1.07-2.98,1.11-3.24-.66-.95-6.57-2.51-13.06-4.72-19.32-3.73-10.59-9.57-21.59-20.12-26.63-10.74-5.13-24.55-3.85-34,3.46-1.56,1.35-3.77.03-3.24-2.02-5.4,1.1-8.65,5.92-11.3,11.06,1.11.28,2.09,1.54,1.45,2.91Z" style="fill: #fff;"/>
    <path d="m183.61,231.68l5.58,2.2c.36-.74,1.12-1.23,2.14-.86,7.56,2.73,15.43,3.98,23.47,3.74,7.91-.24,15.68-1.82,23.32-3.81.68-.18,1.24,0,1.65.33l2.15-.59c.3-1.26.34-3.47,2-3.47l.41-2.32c-2.92-3.77-4.99-8.16-6.25-12.75-2.72-4.73-3.83-10.51-4.02-16.39-9.85,15.12-28.7,16.46-41.03,3.63.22,1.54.25,2.97,0,4.33.91.13,1.66,1.01,1.65,1.93-.04,4.94-1.62,9.87-4.56,13.86-.76,1.17-2.56,1.35-3.31.04-.85,1.64-1.93,3.06-3.19,4.28.04,1.95.06,3.9,0,5.84Z" style="fill: #fff;"/>
    <path d="m125.45,275.35c7.47,5.98,20.43-3.43,26.66-8.1l-.34-2.54c-7.25,6.21-19.79,14.55-28.66,6.84l.46,3.4c.6-.2,1.29-.13,1.89.41Z" style="fill: #6ec878;"/>
    <path d="m206.43,185.22c.1.34.3.85.42,1.16.5,1.14,1.11,2.24,1.85,3.24.46.54.95,1.07,1.5,1.51.38.27.75.49,1.17.69.36.15.74.23,1.12.32.43.03.87.04,1.3,0,.38-.06.71-.15,1.06-.28.43-.19.82-.42,1.19-.7.42-.35.83-.79,1.17-1.21.63-.85,1.14-1.78,1.56-2.75.28-.66.49-1.29.68-1.97h-13.02Z" style="fill: #fff;"/>
    <path d="m116.11,216.95c2.43,2.07,4.51,4.46,6.43,7,1.39,2,3.09,3.93,3.99,6.2.9.27,1.03-1.51,1.06-2.12.05-1.17-.26-2.2-.81-3.23-2.14-3.7-4.28-7.57-7.26-10.66-.3-.29-.73-.8-1.17-.84-.53-.06-1.14.45-1.54.72-1.09.73-2.09,1.63-3.01,2.61.74-.41,1.66-.25,2.33.31Z" style="fill: #fff;"/>
    <path d="m183.58,232.28c0-.2.02-.4.03-.61l-.15-.06c.04.22.08.44.12.67Z" style="fill: #323232;"/>
    <path d="m183.61,225.84c-.16-7.5-.79-14.92-.86-22.41-.02-2.51-3.92-2.51-3.9,0,.08,8.45.88,16.88.88,25.33,1.43-.84,2.73-1.81,3.88-2.92Z" style="fill: #323232;"/>
    <path d="m179.72,228.76c-.05,8.86-.22,21.11-9.67,25.1-.61.23-.99.66-1.18,1.15,2.22-.77,4.44-1.94,6.66-3.27-2.22,1.33-4.44,2.5-6.66,3.27-.52,1.38.48,3.25,2.21,2.61,10.23-3.8,12.19-15.66,12.49-25.33-.04-.22-.08-.44-.12-.67l-1.91-.75,1.91.75c-.04-.23-.09-.46-.13-.68.04.23.09.46.13.68l.15.06c.06-1.94.04-3.89,0-5.84-1.15,1.11-2.45,2.08-3.88,2.92Z" style="fill: #323232;"/>
    <path d="m192.72,205.7c-1.06.05-1.94.86-1.95,1.95,0,1.03-.1,2.05-.26,3.06,1.42-1.62,2.19-3.25,2.51-4.99-.1-.01-.2-.03-.3-.02Z" style="fill: #323232;"/>
    <path d="m193.02,205.73c-.32,1.74-1.09,3.37-2.51,4.99-.51,3.15-1.77,6.13-3.76,8.83-.43.59-.33,1.4.06,2.01.76-1.46,1.36-3.07,1.73-4.92-.37,1.85-.97,3.46-1.73,4.92.76,1.3,2.55,1.12,3.31-.04,2.94-3.99,4.52-8.91,4.56-13.86,0-.92-.74-1.8-1.65-1.93Z" style="fill: #323232;"/>
    <path d="m215.81,169.53c.02-3.26.04-6.51.05-9.77-.08-2.57-3.8-2.56-3.9,0-.02,2.85-.03,5.69-.05,8.54,0,.41,0,.82,0,1.23,0,1.02.9,2,1.95,1.95,1.06-.05,1.94-.86,1.95-1.95Z" style="fill: #323232;"/>
    <path d="m199.96,156.51c-2.51,0-2.51,3.9,0,3.9s2.51-3.9,0-3.9Z" style="fill: #323232;"/>
    <path d="m225.86,160.41c2.51,0,2.51-3.9,0-3.9s-2.51,3.9,0,3.9Z" style="fill: #323232;"/>
    <path d="m246.68,170.54c-1.05-.4-2.18-.51-3.3-.39-.15.76-.25,1.52-.25,2.28,0-.76.1-1.52.25-2.28-2.43.26-4.69,1.74-5.74,3.95-.36.3-.59.77-.57,1.4-.38,1.3-.41,2.68-.06,4.01-1,8.96-6.08,18.64-13.71,23.66-11.1,7.05-24.42,1.37-31.18-8.89-3.67-5.43-5.74-11.69-7.13-18.05-.33-1.5-1.86-1.69-2.88-1.05l1.38,7.07-1.38-7.07c-.65.4-1.09,1.14-.88,2.09,1.93,8.87,5.54,17.73,11.8,24.13-.14-.94-.34-1.92-.6-2.96.26,1.03.46,2.01.6,2.96,12.34,12.83,31.19,11.48,41.03-3.63-.02-.64-.03-1.28-.03-1.92,0,.64.01,1.28.03,1.92,2.87-4.18,5.07-8.88,6.2-13.88,4.78,2.99,11.02-.27,11.34-5.9.25-3.29-1.88-6.29-4.92-7.43Zm-5.31,9.22s-.01-.02-.02-.03c.22.22.08.13.02.03Zm1.42,1.09c-.11-.04-.25-.14.02,0,0,0-.01,0-.02,0Zm4.93-2.83s0,.03,0,.04c-.04.33-.16.63-.27.93-.14.26-.29.51-.46.76-.17.17-.47.48-.64.62-.24.18-.51.33-.77.47-.28.08-.57.17-.85.24-.36.05-.71.02-1.06,0-.29-.06-.57-.14-.85-.24-.3-.15-.59-.31-.86-.51-.2-.2-.4-.42-.61-.62-.16-.2-.36-.61-.46-.81-.11-.28-.19-.58-.25-.87-.02-.31-.03-.64,0-.95,0-.02,0-.02,0-.03.06-.34.15-.6.25-.92.08-.13.15-.29.23-.42.06-.1.4-.51.29-.41.13-.14.26-.29.4-.42,0,0,.03-.03.06-.06.27-.23.62-.42.94-.58.28-.1.52-.17.82-.23.38-.05.67-.03,1.04-.02.3.08.6.15.89.25t0,0c.26.16.57.28.81.48.02.02.01.01.06.05.18.18.36.37.55.54.18.25.33.53.48.8.1.3.17.61.26.91.03.16.02.35.02.5,0,.15-.01.31-.02.46Z" style="fill: #323232;"/>
    <path d="m256.79,153.66c-2.81-17.74-9.26-39.09-26.2-48.08-12.42-6.22-28.22-4.74-39.16,3.86-.25.19-.4.45-.48.74,1.24-.25,2.59-.33,4.08-.14-1.49-.19-2.84-.11-4.08.14-.51,2.07,1.65,3.36,3.24,2.02,9.45-7.31,23.26-8.59,34-3.46,10.55,5.04,16.39,16.05,20.12,26.63,2.21,6.26,3.77,12.75,4.72,19.32.26,1.77,2.26,1.73,3.24.66-.5-2.61-1.04-5.18-1.44-7.62.41,2.44.94,5.01,1.44,7.62.39-.42.62-1,.52-1.7Z" style="fill: #323232;"/>
    <path d="m220.53,120.8c-3.87,15.44-19.75,25.8-35.21,26.28-.48.01-.86.17-1.16.41-.76.02-1.53.42-1.86,1.32-2.79,7.48-5.74,15.11-6.46,23.12-.7,7.94.6,16.06,1.34,23.96.23,2.48,4.13,2.5,3.9,0-.88-9.55-2.64-19.41-.58-28.93l-.38-1.93.38,1.93c1.14-5.47,3.19-10.8,5.14-15.99,16.4-.63,33.05-11.25,38.1-27.21-.47-.24-.94-.48-1.41-.72.47.24.95.48,1.41.72.2-.63.39-1.27.55-1.92.61-2.43-3.15-3.47-3.76-1.04Z" style="fill: #323232;"/>
    <path d="m269.1,225.29c-7.46-12.25-8.76-26.83-9.08-40.86-.21-5.89-.42-11.79-.93-17.66-.08-.95-.7-1.53-1.42-1.76.18,2.55.15,5.05-.25,7.43.4-2.38.43-4.88.25-7.43-1.17-.37-2.61.21-2.48,1.76,1.82,22.64-1.07,48.88,15.48,66.95,1.17-.6,2.24-1.44,3.18-2.32-1.9-1.75-3.45-3.91-4.75-6.11Z" style="fill: #323232;"/>
    <path d="m276.48,234.77l3.52,1.79c.1-.86-.29-1.79-1.32-2.16-1.84-.65-3.43-1.72-4.83-3.01-.93.88-2.01,1.72-3.18,2.32,1.98,1.93,4.27,3.5,6.97,4.46,1.33.47,2.23-.51,2.36-1.6l-3.52-1.79Z" style="fill: #323232;"/>
    <path d="m245.53,221.71c-4.03-6.73-5.61-14.64-4.58-22.43.14-1.05-1-1.94-1.95-1.95-1.17-.01-1.81.91-1.95,1.95-.65,4.95-.28,10.04,1.04,14.87,1.75,3.04,4.17,5.64,7.45,7.56Z" style="fill: #323232;"/>
    <path d="m264.98,231.68c-8.25,2.14-15.47-3.05-19.45-9.97-3.28-1.92-5.7-4.52-7.45-7.56,1.26,4.59,3.33,8.99,6.25,12.75l.21-1.19-.21,1.19c5.2,6.71,13.06,10.76,21.68,8.54.56-.14.93-.46,1.14-.84-1.06-.03-2.14-.34-3.23-1.06,1.09.72,2.17,1.03,3.23,1.06.73-1.29-.3-3.4-2.18-2.92Z" style="fill: #323232;"/>
    <path d="m177.73,122.18c-11.75,24.38-17.18,51.56-14.31,78.56.83,10.26,2.23,20.57,1.72,30.88.43.02.86.18,1.29.62-.43-.43-.86-.6-1.29-.62-.47,7.75-2.56,15.87-9.85,19.86-2.2,1.21-.24,4.58,1.97,3.37.27-.15.52-.31.78-.47-.67-.38-1.34-.81-2.01-1.35.67.54,1.34.97,2.01,1.35,14.93-9.95,10.93-30.55,9.92-45.88-.83-9.99-1.77-19.94-1.22-29.98.91-18.9,6.25-37.34,14.36-54.38.64-1.37-.34-2.63-1.45-2.91-.99,1.92-1.91,3.88-2.81,5.7.91-1.82,1.82-3.78,2.81-5.7-.72-.18-1.5.05-1.91.94Z" style="fill: #323232;"/>
    <path d="m243.64,174.04c-.3.05-.54.13-.82.23-.32.16-.67.35-.94.58-.03.03-.06.05-.06.06-.14.13-.27.28-.4.42.05-.05,0,.01-.07.11-.26.31-.31.48-.46.72-.1.32-.19.58-.25.92,0,.01,0,.02,0,.03-.03.31-.02.64,0,.95.06.3.14.59.25.87.1.2.3.6.46.81.2.2.4.42.61.62.27.2.56.35.86.51.28.1.56.18.85.24.36.02.71.05,1.06,0,.29-.07.57-.16.85-.24.26-.15.53-.29.77-.47.17-.14.47-.45.64-.62.16-.25.31-.51.46-.76.1-.3.23-.6.27-.93,0-.17.02-.33.02-.5,0-.15,0-.34-.02-.5-.08-.31-.16-.61-.26-.91-.15-.27-.3-.55-.48-.8-.18-.18-.36-.36-.55-.54-.04-.04-.04-.03-.06-.05-.24-.2-.55-.31-.81-.48t0,0c-.3-.1-.59-.17-.89-.25-.37-.02-.66-.04-1.04.02Z" style="fill: #fff;"/>
    <path d="m241.35,179.73s.01.02.02.03c.07.1.2.2-.02-.03Z" style="fill: #fff;"/>
    <path d="m242.79,180.85s.01,0,.02,0c-.27-.15-.13-.04-.02,0Z" style="fill: #fff;"/>
    <path d="m246.09,163.65c-1.93-14.32-8.25-27.86-16.54-39.58-1.19-1.68-3.7-.64-3.72.93,1.23.84,2.3,1.85,2.99,3.24-.69-1.38-1.76-2.4-2.99-3.24,0,.33.1.68.35,1.04,8.13,11.49,14.25,24.61,16.15,38.65.12.92,1.17,1.46,2.05,1.41.42-1.79.64-3.57.05-5.36.6,1.79.37,3.57-.05,5.36,1.29-.07,1.9-1.3,1.71-2.45Z" style="fill: #323232;"/>
    <path d="m123.11,271.55l-.22-1.61c-.14.53-.1,1.11.22,1.61Z" style="fill: #323232;"/>
    <path d="m148.83,262.13c-.17.15-.36.29-.54.43l.96,2.55-.96-2.55c-4.29,3.41-9.09,6.77-14.58,7.9-2.97.63-5.61.06-8.08-1.7-1.24-.88-2.44,0-2.74,1.17l.22,1.61c8.87,7.71,21.41-.63,28.66-6.84l-.21-1.55.21,1.55c1.53-1.62-1.09-4.11-2.94-2.57Z" style="fill: #323232;"/>
    <path d="m145.97,251.17c-.45-1.92-.98-3.94-.99-5.91-.93,1.68-1.26,3.79-1.95,5.17.69-1.38,1.02-3.49,1.95-5.17,0-1.21.27-2.16.71-3.54,1.29-4.01,3.31-7.56,2.95-11.92-.33-3.98-2.05-7.9-3.5-11.58-1.06-2.69-2.17-5.36-3.36-8-.28-.62-1.05-.95-1.68-.97-1.89-.04-3.78-.05-5.68-.06l.98,2.5-.98-2.5c-1.18,0-2.34-.03-3.55,0-.14-.44-.44-.84-.86-1.16.24.19.19.15,0-.02-.32-.3-.61-.64-.88-.99-1.5-1.88-2.82-4.37-5.35-4.93-1.74-5.65-3.87-11.21-5.55-16.87-.26-.86-1.24-3.46-.48-4.17.57-.53,2.08.34,2.61.87,1.31,1.32,2,3.32,2.66,5.02,2.13,6.12,3.9,12.36,6.58,18.28.57,1.26,2.66,1.23,3.31.09l-1.4-3.57,1.4,3.57c.38-.59.36-1.36.06-2.06-1.74-4.04-3.21-8.17-4.51-12.37-1.56-4.35-2.56-9.45-6.27-12.53-2.9-2.15-7.76-1.66-8.43,2.45-.35,2.19.41,4.58,1.11,6.64,1.8,5.13,3.47,10.31,5.13,15.49-1.52.98-2.45,2.61-3.37,4.12-.57,1.15-1.64,2.19-1.71,3.51-2.99,1.93-5.34,4.8-7.4,7.65-.44.61-.32,1.45.09,2.06-2.18,2-4.58,4.23-4.24,7.46,1.53,8.83,8.73,15.12,12.27,23.07,1.4,3.17,2.53,6.47,3.57,9.78.61,1.93,1.19,3.88,1.69,5.84.24.94.96,1.36,1.7,1.38l-.51-3.79.51,3.79c1.18.03,2.44-.92,2.06-2.42-1.6-6.19-3.63-12.41-6.4-18.19-2.86-5.8-7.59-10.49-9.96-16.56-.48-1.17-1.33-2.79-1-4.09.33-1.3,1.88-2.43,2.83-3.31,1.19-1.12,2.49-2.09,3.8-3.06,2.82,2.47,5.18,5.41,7.27,8.51.79,1.29,2.34,2.71,1.55,4.28.08-.18-.3.44-.18.25,0,0-.12.1-.16.13-.6.2-1.18-.05-1.77-.51-1.48-1.19-2.92-2.52-4.16-3.98-.17-.22-.24-.37-.37-.59-1.01-1.54-3.35-1.16-4.97-1.44.16.02.19.02.16.01-1.16-.24-2.38.1-2.71,1.32-.26.93.32,2.23,1.36,2.4,1,.18,2.26.22,3.19.36.86,1.32,2.21,2.47,3.32,3.47,1.62,1.45,3.37,3.02,5.7,2.93,2.14-.09,3.6-1.46,4.26-3.23.87.07,1.76-.15,2.51-.61-.97,3.59-1.52,7.3-1.59,11.05-.05,2.51,3.85,2.51,3.9,0,.11-5.87,1.45-11.68,3.98-16.98,2.34-1.33,2.42-4.87,1.82-7.19.41-1.17-.17-2.68-1.75-2.59-2.08.12-5.13-.09-6.61-1.73-1.09-1.21-.5-2.62,1.06-2.88,2.98-.38,6.09.01,9.09-.04,2.09,5.32,5.05,10.7,5.89,16.41.46,4.23-1.76,7.73-2.94,11.63-1.02,3.38-.63,6.37.13,9.77.58,2.58,1.29,5.14,2.1,7.65.48,1.5,2.15,1.65,3.13.96l-.91-2.42.91,2.42c.58-.41.91-1.1.63-1.99-.68-2.1-1.28-4.24-1.8-6.38Zm-25.9-42.25c.4-.65.8-1.3,1.24-1.92,0,.04.4-.49.64-.67.05-.04.05-.04.08-.07.1-.07.2-.14.31-.2.19-.09.22-.11.1-.07-.12.04-.08.03.11-.04.07-.02.15-.04.22-.06-.04.03.2.03.29.02,0,0,0,0,.01,0,.08.05.16.1.24.15.48.38.93.91,1.31,1.39.71.93,1.37,1.87,2.14,2.72-1.29.71-2.25,2.14-2.46,3.54-1.25-1.62-2.67-3.41-4.67-4.09.14-.24.28-.48.43-.72Zm6.46,21.22c-.9-2.26-2.6-4.2-3.99-6.2-1.92-2.54-4-4.94-6.43-7-.67-.57-1.58-.73-2.33-.31.92-.98,1.92-1.89,3.01-2.61.4-.27,1.02-.78,1.54-.72.44.05.87.56,1.17.84,2.98,3.09,5.12,6.97,7.26,10.66.55,1.02.86,2.05.81,3.23-.03.61-.16,2.38-1.06,2.12Zm6.86-8.47c.04.64.05,1.28,0,1.92-.04.21-.09.42-.16.63-.01,0-.02.01-.03.02-.18.06-.36.1-.55.14-.37.03-.74.04-1.11,0-.13-.03-.25-.06-.37-.1-.17-.08-.32-.2-.49-.28-.48-1.13-1.13-2.2-1.79-3.27,1.42.57,3,.86,4.51.94Z" style="fill: #323232;"/>
    <path d="m204.51,181.32c-.48-.12-.97-.01-1.39.25-.12.07-.23.15-.32.24-.03.03-.06.06-.09.09-.04.04-.07.08-.1.13-1.05,1.14-.38,2.84.02,4.14.87,2.62,2.2,5.24,4.2,7.18,2.37,2.3,5.78,3.39,8.99,2.3,4.86-1.74,7.12-7.11,7.99-11.85.18-1.23-.49-2.47-1.88-2.47h-17.41Zm14.44,5.46c-.03.07-.12.3-.16.41-.42.97-.92,1.9-1.56,2.75-.34.42-.76.86-1.17,1.21-.37.28-.76.51-1.19.7-.35.13-.68.22-1.06.28-.43.05-.87.04-1.3,0-.37-.09-.76-.17-1.12-.32-.42-.2-.8-.42-1.17-.69-.56-.45-1.04-.97-1.5-1.51-.74-1-1.36-2.1-1.85-3.24-.12-.31-.32-.82-.42-1.16h13.02c-.15.53-.31,1.05-.51,1.56Z" style="fill: #323232;"/>
    <path d="m239.76,233.29l-2.14.59,2.14-.59c-.42-.34-.98-.51-1.65-.33-7.64,1.99-15.41,3.57-23.32,3.81-8.03.24-15.91-1.02-23.47-3.74-1.01-.37-1.78.12-2.14.86l5.84,2.31-5.84-2.31c-.48.98-.24,2.42,1.1,2.9,7.85,2.83,16.16,4.13,24.5,3.88,8.25-.25,16.39-1.87,24.35-3.95,1.75-.46,1.7-2.54.62-3.43Z" style="fill: #323232;"/>
    <path d="m265.66,316.91c-2.9.07-5.8.14-8.69.22.36-.22.65-.59.76-1.15,3.81-18.59,5.7-37.58,6.93-56.51.16-2.51-3.74-2.5-3.9,0-1.2,18.58-3.04,37.21-6.79,55.47-.22,1.07.37,1.87,1.16,2.23-7.11.18-14.23.36-21.34.53l.11,3.3-.11-3.3c-4.75.12-9.49.24-14.24.36-1.35.03-1.96,1.17-1.87,2.21l5.21.38-5.21-.38c.09.9.7,1.72,1.87,1.69,13.46-.34,26.91-.67,40.37-1.01,1.91-.05,3.83-.1,5.74-.14,2.51-.06,2.51-3.96,0-3.9Z" style="fill: #323232;"/>
    <path d="m243.91,229.23c-1.66,0-1.7,2.21-2,3.47l1.45-.4.55-3.07Z" style="fill: #323232;"/>
    <path d="m243.91,229.23l-.55,3.07,1.35-.37-1.35.37-.6,3.35.6-3.35-1.45.4c-5.38,25.08-8.48,50.66-9.01,76.3-.01.66.25,1.14.63,1.45l-.18-5.24.18,5.24c1.09.89,3.23.41,3.27-1.45.54-26.02,3.72-51.93,9.3-77.35.34-1.53-1.01-2.51-2.19-2.43Z" style="fill: #323232;"/>
    <path d="m192.52,277.86c-.75-10.14-2.21-20.18-4.34-30.12-.11-.51-.36-.86-.69-1.09.61,2.56,1.04,5.12,1.04,7.68,0-2.56-.42-5.12-1.04-7.68-1.22-.86-3.49.19-3.07,2.13,4.45,19.55,4.85,39.61,5.66,59.55.09,1.92,2.41,2.37,3.43,1.33l-.25-4.98.25,4.98c.31-.31.5-.75.47-1.33-.49-10.16-.71-20.33-1.46-30.47Z" style="fill: #323232;"/>
    <path d="m214.99,334.07c.44-4.36,1.22-8.68,1.78-13.02.04-.3-.04-.59-.17-.85l-.98-.07.98.07c-.94-1.69-3.36-1.32-3.67.57-6.44-.46-13-1.55-19.07-3.85l.11,2.15-.11-2.15c-4.18-1.59-8.22-3.72-11.59-6.69-1.38-1.22-2.61-2.47-4.26-3.35-3.09-1.66-7.35-3.01-10.83-1.89-.48.15-.82.43-1.04.77l6.53,1.78-6.53-1.78c-.87,1.33.16,3.61,2.07,2.99,2.94-.94,7.15.68,9.45,2.52,1.5,1.2,2.81,2.59,4.36,3.75,8.75,6.38,19.71,8.79,30.34,9.61-.99,6.33-1.91,12.72-1.45,19.13-11.95-2.02-27.59-.6-34.74-12.45-.75-1.3-.99-2.27-2.56-2.71-1.26-.35-2.6-.54-3.94-.65-.92-7.58-3.13-14.98-4.55-22.48l-4.17-1.14,4.17,1.14c-1.72-7.98-3.44-15.97-5.17-23.95-.11-1.23-.85-2.19-2.02-2.03l2.66,14.2-2.66-14.2c-1.09.1-2.18,1.03-1.88,2.43,2.93,13.58,5.86,27.15,8.78,40.73.96,4.43,1.49,8.57-.12,13.03-2.86,7.9-11.39,12.75-19.61,10.67-7.08-1.79-11.9-7.81-13.17-14.84-3.35-17.82-5.96-35.79-9.44-53.58,9.2,8.67,25.91-2.23,33.46-8.95l-.16-.83.16.83c1-1.62-1.43-3.75-3.16-2.28-.23.19-.47.39-.7.57l.33,2.48-.33-2.48c-6.22,4.67-19.18,14.08-26.66,8.1-.6-.54-1.29-.61-1.89-.41l.13.99-.13-.99c-.72.24-1.32.86-1.45,1.57-.06-.09-.13-.18-.2-.25l-2.29,1.8,2.29-1.8c-1.12-1.1-3.64-.04-3.28,2,1.46,8.29,2.92,16.57,4.38,24.86,1.71,9.7,3.41,19.41,5.13,29.1,1.22,6.86,5.34,13.06,11.65,16.24,12.97,6.6,28.38-2.29,29.78-16.61.93.09,1.84.24,2.75.45,7.41,14.19,25.32,13.5,39.12,15.42.92,1.48,3.59,1.26,3.6-.7.06-.14.1-.29.12-.44l-2.03-.91,2.03.91c.07-.47,0-.98-.24-1.43-.26-3.7-.31-7.39.07-11.09Z" style="fill: #323232;"/>
    <path d="m160.65,231.94c-.58.22-1.16.44-1.75.65,1.26,1.54,2.52.84,3.78.04-.48-.6-1.27-.98-2.03-.69Z" style="fill: #323232;"/>
    <path d="m158.9,232.58c-2.03.73-4.09,1.46-5.93,2.56-2.46,1.48-4.21,3.71-5.59,6.19-.29.52-.3,1.17-.08,1.73.62-.26,1.34-.42,2.22-.42-.88,0-1.61.16-2.22.42.48,1.47,2.72,1.59,3.45.24.45-.81.94-1.6,1.49-2.35.54-.68,1.14-1.29,1.81-1.84.88-.64,1.85-1.15,2.84-1.58,1.59-.65,3.2-1.21,4.8-1.83,1.25-.42,1.95-1.99.99-3.07-1.26.8-2.52,1.5-3.78-.04Z" style="fill: #323232;"/>
    <path d="m298.73,254.75c-1.39-8.56-8.08-14.68-15.6-18.27-.94-.47-1.83-.15-2.38.46l5.13,2.61-5.13-2.61c-.76.85-.89,2.25.41,2.9,4.9,2.47,9.54,5.56,12.07,10.59.62,1.23,1.07,2.54,1.41,3.87.45,1.76.04,3.33-.24,5.1-3.02,19.38-5.92,38.8-10.05,57.98-1.67,7.75-3.54,15.45-5.72,23.07-1.48,5.17-3.28,10.76-8.58,13.18-4.61,2.18-9.46-.37-14.16-.88-4.95-.93-9.89-1.87-14.84-2.81-7.65-1.45-15.3-2.91-22.94-4.37-1.13-.22-1.95.46-2.28,1.3l7.95,3.58-7.95-3.58c-.39.99-.09,2.2,1.24,2.46,12.23,2.34,24.47,4.67,36.71,6.98,5.15.61,10.14,2.86,15.37,1.73,9.84-2.39,12.67-13.18,14.7-21.8,5.37-20.17,8.85-40.79,12.08-61.39.69-4.4,1.37-8.81,2.06-13.21.34-2.17,1.14-4.72.75-6.9Z" style="fill: #323232;"/>
  </g>
  <g>
    <path d="m314.45,150.59c.45-.88.88-1.98,1.56-2.67.68-.68,1.78-1.11,2.67-1.56-.88-.45-1.98-.88-2.67-1.56-.68-.68-1.11-1.78-1.56-2.67-.45.88-.88,1.98-1.56,2.67-.68.68-1.78,1.11-2.67,1.56.88.45,1.98.88,2.67,1.56.68.68,1.11,1.78,1.56,2.67Z" style="fill: none;"/>
    <path d="m72.38,169.76c.45-.88.88-1.98,1.56-2.67.68-.68,1.78-1.11,2.67-1.56-.88-.45-1.98-.88-2.67-1.56s-1.11-1.78-1.56-2.67c-.45.88-.88,1.98-1.56,2.67-.68.68-1.78,1.11-2.67,1.56.88.45,1.98.88,2.67,1.56.68.68,1.11,1.78,1.56,2.67Z" style="fill: none;"/>
    <path d="m342.83,197.01h-4v-4c0-1.02-.9-2-1.95-1.95-1.06.05-1.95.86-1.95,1.95v4h-4c-1.02,0-2,.9-1.95,1.95.05,1.06.86,1.95,1.95,1.95h4v4c0,1.02.9,2,1.95,1.95,1.06-.05,1.95-.86,1.95-1.95v-4h4c1.02,0,2-.9,1.95-1.95-.05-1.06-.86-1.95-1.95-1.95Z" style="fill: #323232;"/>
    <path d="m323.75,144.68c-1.64-.9-3.28-1.79-4.92-2.69-.9-1.64-1.79-3.28-2.69-4.92-.4-.74-1.05-1-1.68-.95-.64-.05-1.28.21-1.69.95-.9,1.64-1.79,3.28-2.69,4.92-1.64.9-3.28,1.79-4.92,2.69-1.27.69-1.27,2.67,0,3.37,1.64.9,3.28,1.79,4.92,2.69.9,1.64,1.79,3.28,2.69,4.92.69,1.27,2.67,1.27,3.37,0,.9-1.64,1.79-3.28,2.69-4.92,1.64-.9,3.28-1.79,4.92-2.69,1.27-.69,1.27-2.67,0-3.37Zm-13.53,1.68c.88-.45,1.98-.88,2.67-1.56.68-.68,1.11-1.78,1.56-2.67.45.88.88,1.98,1.56,2.67.68.68,1.78,1.11,2.67,1.56-.88.45-1.98.88-2.67,1.56-.68.68-1.11,1.78-1.56,2.67-.45-.88-.88-1.98-1.56-2.67-.68-.68-1.78-1.11-2.67-1.56Z" style="fill: #323232;"/>
    <path d="m110.02,122.46h-4v-4c0-1.02-.9-2-1.95-1.95-1.06.05-1.95.86-1.95,1.95v4h-4c-1.02,0-2,.9-1.95,1.95.05,1.06.86,1.95,1.95,1.95h4v4c0,1.02.9,2,1.95,1.95,1.06-.05,1.95-.86,1.95-1.95v-4h4c1.02,0,2-.9,1.95-1.95-.05-1.06-.86-1.95-1.95-1.95Z" style="fill: #323232;"/>
    <path d="m81.68,163.85c-1.64-.9-3.28-1.79-4.92-2.69-.9-1.64-1.79-3.28-2.69-4.92-.4-.74-1.05-1-1.68-.95-.64-.05-1.28.21-1.69.95-.9,1.64-1.79,3.28-2.69,4.92-1.64.9-3.28,1.79-4.92,2.69-1.27.69-1.27,2.67,0,3.37,1.64.9,3.28,1.79,4.92,2.69.9,1.64,1.79,3.28,2.69,4.92.69,1.27,2.67,1.27,3.37,0,.9-1.64,1.79-3.28,2.69-4.92,1.64-.9,3.28-1.79,4.92-2.69,1.27-.69,1.27-2.67,0-3.37Zm-13.53,1.68c.88-.45,1.98-.88,2.67-1.56.68-.68,1.11-1.78,1.56-2.67.45.88.88,1.98,1.56,2.67s1.78,1.11,2.67,1.56c-.88.45-1.98.88-2.67,1.56-.68.68-1.11,1.78-1.56,2.67-.45-.88-.88-1.98-1.56-2.67-.68-.68-1.78-1.11-2.67-1.56Z" style="fill: #323232;"/>
    <path d="m210.35,38.41v18.65c0,2.51,3.9,2.51,3.9,0v-18.65c0-2.51-3.9-2.51-3.9,0Z" style="fill: #323232;"/>
    <path d="m167.09,54.3c-.99-1.27-2.07-3.65-4.03-2.58-.84.49-1.32,1.81-.7,2.67,3.2,4.4,6.4,8.81,9.6,13.21.99,1.27,2.07,3.65,4.03,2.58.84-.49,1.32-1.81.7-2.67-3.2-4.4-6.4-8.81-9.6-13.21Z" style="fill: #323232;"/>
    <path d="m146.51,89.41c-4.76-2.64-9.52-5.28-14.28-7.91-.68-.38-1.36-.75-2.04-1.13-2.2-1.22-4.17,2.15-1.97,3.37,4.76,2.64,9.52,5.28,14.28,7.91.68.38,1.36.75,2.04,1.13,2.2,1.22,4.17-2.15,1.97-3.37Z" style="fill: #323232;"/>
    <path d="m294.4,80.36c-5.44,3.01-10.88,6.03-16.31,9.04-2.2,1.22-.23,4.59,1.97,3.37,5.44-3.01,10.88-6.03,16.31-9.04,2.2-1.22.23-4.59-1.97-3.37Z" style="fill: #323232;"/>
    <path d="m261.54,51.72c-.99-.58-2.05-.15-2.67.7-3.2,4.4-6.4,8.81-9.6,13.21-.45.63-.91,1.25-1.36,1.88-.62.85-.15,2.17.7,2.67.99.58,2.05.16,2.67-.7,3.2-4.4,6.4-8.81,9.6-13.21.45-.63.91-1.25,1.36-1.88.62-.85.15-2.17-.7-2.67Z" style="fill: #323232;"/>
  </g>
  <rect width="400" height="400" style="fill: none;"/>
</svg>