<?xml version="1.0" encoding="UTF-8"?>
<svg id="_レイヤー_2" data-name="レイヤー 2" xmlns="http://www.w3.org/2000/svg" viewBox="0 0 596.39 528.6">
  <defs>
    <style>
      .cls-1 {
        fill: #fddc0e;
      }

      .cls-2 {
        fill: #fff;
      }

      .cls-3 {
        fill: #5e6063;
      }

      .cls-4 {
        fill: #22ac38;
      }
    </style>
  </defs>
  <g id="white">
    <path class="cls-2" d="M212.1,345.12h265.79s-14.99-67.54-32.13-70.52-41.73-74.56-35.54-113.38c0,0,4.91-23.28,1.75-26.46-3.16-3.18-1.26-90.23-36.93-83.69,0,0-31.39-33.2-78.89,9.35,0,0-25.88,32.31-21.57,110.15,4.31,77.84-31.13,105.45-31.13,105.45,0,0-39.8,45.58-31.34,69.1Z"/>
  </g>
  <g id="image">
    <path class="cls-3" d="M57.99,488.85H3.5c-1.93,0-3.5-1.57-3.5-3.5s1.57-3.5,3.5-3.5h54.49c1.93,0,3.5,1.57,3.5,3.5s-1.57,3.5-3.5,3.5Z"/>
    <g>
      <g>
        <path class="cls-4" d="M293.14,260.3s-19.34-27.68-20.24-49.37c0,0-14.7,59.8-24.76,70.44l45-21.07Z"/>
        <path class="cls-3" d="M479.76,352.89c-1.47,0-2.84-.94-3.33-2.41l-12.12-37c-4.85-14.81-15.94-26.64-30.4-32.45-1.79-.72-2.66-2.76-1.94-4.55.72-1.79,2.76-2.66,4.55-1.94,16.39,6.58,28.95,19.98,34.45,36.77l12.12,37c.6,1.84-.4,3.81-2.24,4.42-.36.12-.73.17-1.09.17Z"/>
        <path class="cls-3" d="M207.32,352.89c-.36,0-.73-.06-1.09-.17-1.84-.6-2.84-2.58-2.24-4.42l12.12-37c5.5-16.78,18.06-30.19,34.45-36.77,1.79-.72,3.83.15,4.55,1.94.72,1.79-.15,3.83-1.94,4.55-14.47,5.81-25.55,17.64-30.4,32.45l-12.12,37c-.48,1.48-1.85,2.41-3.33,2.41Z"/>
        <path class="cls-4" d="M387.38,182.84c-2.76,5.04-7.95,13.51-14.09,18.47,3.49,9.88,6.96,19.15,13.43,27.82-1.31-15.43,4.64-30.86.66-46.29Z"/>
        <path class="cls-4" d="M404.43,245.47c-4.24,6.07-8.42,12.14-12.25,18.2,5.65,4.27,12.61,8.17,21.21,11.45,0,0-4.33-12.57-8.97-29.65Z"/>
        <path class="cls-4" d="M293.72,184.45s-.62,62.77,19.4,65.44c0,0,13.69-37.99,6.06-48.29l-25.46-17.16Z"/>
        <path class="cls-4" d="M357.59,70.88s37.3,13.41,41.8,69.23l3.69-.81s1.3-39.48-11.76-63.13c-13.07-23.66-33.73-5.29-33.73-5.29Z"/>
        <path class="cls-4" d="M370.49,66.32s-39.22-34.43-67.64,0c-41.88,50.72-21.7,148.33-21.7,148.33,0,0,5.21-140.76,89.35-148.33Z"/>
        <path class="cls-3" d="M423.7,279.95c-.17,0-.35-.01-.52-.04-8.51-1.28-17.87-5.36-27.83-12.14-1.6-1.09-2.01-3.27-.92-4.86,1.09-1.6,3.27-2.01,4.86-.92,8.95,6.1,17.57,9.9,24.93,11.01,1.91.29,3.23,2.07,2.94,3.98-.26,1.74-1.75,2.98-3.46,2.98Z"/>
        <path class="cls-3" d="M272.9,277.03c-1.23,0-2.42-.64-3.06-1.79-.94-1.69-.34-3.82,1.34-4.76l34.51-19.34c.25-.14.52-.25.8-.32,13.71-3.72,11.55-33.35,9.56-44.46-.34-1.9.92-3.72,2.83-4.06,1.9-.34,3.72.92,4.06,2.82.34,1.88,7.97,45.74-14.18,52.33l-34.15,19.14c-.54.3-1.13.45-1.71.45Z"/>
        <path class="cls-3" d="M331.51,214.43c-.37,0-.74-.06-1.11-.18-5.83-1.95-23.57-7.87-36.23-27.93-1.03-1.63-.54-3.8,1.09-4.83,1.63-1.03,3.8-.54,4.83,1.09,10.16,16.09,23.43,21.99,32.53,25.03,1.83.61,2.82,2.6,2.21,4.43-.49,1.47-1.85,2.39-3.32,2.39Z"/>
        <path class="cls-3" d="M351.33,214.14c-1.47,0-2.84-.94-3.33-2.41-.6-1.84.4-3.81,2.24-4.41,2.83-.93,5.54-1.94,8.04-3,1.78-.76,3.83.07,4.59,1.85.76,1.78-.07,3.83-1.85,4.59-2.69,1.15-5.59,2.23-8.61,3.22-.36.12-.73.17-1.09.17Z"/>
        <path class="cls-3" d="M376.15,201.28c-1.01,0-2-.43-2.7-1.27-1.23-1.49-1.03-3.69.46-4.93,10.43-8.65,13.12-18.64,14.23-25.39.25-1.52,1.46-2.69,2.98-2.9,7.95-1.07,17.53-8.54,17.49-16.2-.01-2.42-1-5.41-3.18-6.6-.85-.47-2.11-.51-3.12-.1-.4.16-1.11.54-1.32,1.22-.58,1.84-2.55,2.87-4.39,2.29-1.84-.58-2.87-2.54-2.29-4.39.79-2.51,2.75-4.56,5.39-5.62,2.98-1.2,6.38-1.03,9.09.45,4.18,2.29,6.79,7.15,6.82,12.7.05,10.89-10.57,20.16-21.01,22.69-2.32,11.31-7.52,20-16.22,27.22-.65.54-1.45.81-2.23.81Z"/>
        <path class="cls-3" d="M297.47,67.15c-1.06,0-2.1-.48-2.79-1.38-1.14-1.5-.89-3.62.56-4.82,11.13-9.17,23.45-18.04,38.04-20.84,14.21-2.73,32.61,2,40.28,16.32.91,1.7.27,3.83-1.43,4.74-1.7.91-3.82.27-4.74-1.43-6.08-11.34-21.1-15-32.79-12.75-11.44,2.2-21.65,8.84-31.01,16.22-.25.45-.6.85-1.05,1.16l-3.08,2.16c-.61.43-1.31.63-2.01.63Z"/>
        <path class="cls-3" d="M240.21,289.7c-.79,0-1.58-.27-2.24-.81-1.49-1.24-1.69-3.44-.45-4.93,22.64-27.23,32.74-75.54,31.88-89.29-.12-1.93,1.34-3.59,3.27-3.71,1.94-.11,3.59,1.34,3.71,3.27.91,14.55-9.69,65.59-33.48,94.21-.69.83-1.69,1.26-2.69,1.26Z"/>
        <path class="cls-3" d="M407.77,136.96c-.14,0-.28,0-.42-.03-1.92-.23-3.29-1.97-3.06-3.89,4.14-34.52-9.21-56.96-21.13-69.7-1.32-1.41-1.25-3.63.16-4.95,1.41-1.32,3.63-1.25,4.95.16,12.94,13.83,27.43,38.13,22.97,75.32-.21,1.78-1.72,3.08-3.47,3.08Z"/>
        <path class="cls-3" d="M428.27,269.8c-.98,0-1.96-.41-2.65-1.21-12.17-14.06-21.77-76.56-20.55-98.72.11-1.93,1.75-3.41,3.69-3.3,1.93.11,3.41,1.76,3.3,3.69-1.24,22.36,8.68,82.01,18.85,93.75,1.27,1.46,1.11,3.67-.35,4.94-.66.57-1.48.85-2.29.85Z"/>
        <path class="cls-3" d="M297.39,228.38c-1.67,0-3.14-1.2-3.44-2.89-12.2-69.37,4.11-108.81,19.94-129.68,17.39-22.93,37.63-29.05,38.48-29.3,1.86-.54,3.8.52,4.34,2.38.54,1.85-.52,3.79-2.37,4.34-.26.08-19.21,5.94-35.16,27.18-21.27,28.34-27.61,71.17-18.34,123.87.33,1.9-.94,3.72-2.84,4.05-.2.04-.41.05-.61.05Z"/>
        <path class="cls-3" d="M274.38,185.18c-1.8,0-3.33-1.38-3.48-3.21-8.74-106.22,23.85-120.97,25.24-121.55,1.79-.74,3.83.11,4.57,1.9.73,1.77-.09,3.79-1.84,4.55-.55.27-29.18,15.07-21,114.53.16,1.93-1.27,3.62-3.2,3.78-.1,0-.19.01-.29.01Z"/>
        <path class="cls-3" d="M316.37,135.85c0,2.36-1.91,4.27-4.27,4.27s-4.27-1.91-4.27-4.27,1.91-4.27,4.27-4.27,4.27,1.91,4.27,4.27Z"/>
        <path class="cls-3" d="M376.66,135.85c0,2.36-1.91,4.27-4.27,4.27s-4.27-1.91-4.27-4.27,1.91-4.27,4.27-4.27,4.27,1.91,4.27,4.27Z"/>
        <path class="cls-3" d="M380.55,112.81c-1.11,0-2.2-.52-2.88-1.5-5.28-7.59-13.06-4.03-13.39-3.87-1.75.83-3.83.08-4.66-1.67-.83-1.75-.08-3.83,1.67-4.66,4.64-2.19,15.23-3.71,22.13,6.21,1.1,1.59.71,3.77-.88,4.87-.61.42-1.31.63-2,.63Z"/>
        <path class="cls-3" d="M303,112.01c-.79,0-1.58-.27-2.24-.81-1.48-1.23-1.69-3.42-.46-4.9,3.26-3.96,12.19-9.85,22.66-3.82,1.68.96,2.25,3.1,1.29,4.78-.96,1.67-3.1,2.25-4.78,1.29-7.77-4.47-13.19,1.53-13.78,2.23-.69.82-1.69,1.24-2.69,1.24Z"/>
        <path class="cls-3" d="M306.28,274.17c-.91,0-1.82-.35-2.51-1.06-22.77-23.36-25.99-53.46-26.11-54.73-.19-1.92,1.21-3.64,3.14-3.83,1.92-.2,3.63,1.21,3.83,3.13h0c.03.29,3.16,28.99,24.16,50.54,1.35,1.38,1.32,3.6-.06,4.95-.68.66-1.56.99-2.44.99Z"/>
        <path class="cls-3" d="M418.45,277.16c-1,0-2-.43-2.69-1.26-5.87-7.04-11.18-14.97-15.76-23.57-.91-1.71-.27-3.83,1.44-4.74,1.71-.91,3.83-.26,4.74,1.44,4.36,8.18,9.4,15.71,14.96,22.39,1.24,1.48,1.04,3.69-.45,4.93-.65.55-1.45.81-2.24.81Z"/>
        <path class="cls-3" d="M341.32,200.64c-4.68,0-8.49-4.22-8.49-9.41s3.81-9.41,8.49-9.41,8.49,4.22,8.49,9.41-3.81,9.41-8.49,9.41ZM341.32,187.57c-1.49,0-2.76,1.68-2.76,3.67s1.26,3.67,2.76,3.67,2.76-1.68,2.76-3.67-1.26-3.67-2.76-3.67Z"/>
        <path class="cls-3" d="M341.32,167.85c-1.93,0-3.5-1.57-3.5-3.5v-26.06c0-1.93,1.57-3.5,3.5-3.5s3.5,1.57,3.5,3.5v26.06c0,1.93-1.57,3.5-3.5,3.5Z"/>
        <path class="cls-3" d="M381.55,306.95c-1.28,0-2.51-.71-3.13-1.93-.87-1.73-.17-3.83,1.55-4.7l34.24-17.25c1.73-.87,3.83-.18,4.7,1.55.87,1.73.17,3.83-1.55,4.7l-34.24,17.25c-.5.25-1.04.37-1.57.37Z"/>
        <path class="cls-3" d="M343.11,326.3c-.58,0-1.16-.14-1.68-.43l-66.82-36.6c-1.7-.93-2.32-3.06-1.39-4.75.93-1.7,3.06-2.32,4.75-1.39l65.21,35.72,7.74-3.9c1.73-.87,3.83-.18,4.7,1.55.87,1.73.17,3.83-1.55,4.7l-9.38,4.73c-.5.25-1.04.37-1.57.37Z"/>
        <g>
          <g>
            <path class="cls-3" d="M350.91,295.16c-.66,0-1.33-.19-1.92-.58-11.1-7.32-4.32-30.22-1.01-39.45-4.6-1.39-12.72-3.89-19.02-5.99-10.01-3.34-10.51-10.68-9.37-14.1.54-1.63,2.18-2.63,3.88-2.35l27.95,4.48c-3.09-3.62-7.3-8.25-12.22-12.89-4.72-4.45-7.09-9.02-7.06-13.58.04-5.18,3.21-8.23,3.57-8.56,1.26-1.16,3.18-1.23,4.53-.17l25.49,20.07-11.14-26.6c-.09-.22-.16-.46-.21-.7-2.25-11.8,4.6-17.36,8.53-18.66,1.72-.56,3.58.27,4.3,1.93l17.42,40.05c-.29-8.3-.45-17.71-.08-24.82.39-7.42,2.41-12.57,6.01-15.31,3.45-2.63,6.98-1.95,7.37-1.87,1.48.33,2.58,1.57,2.73,3.07l5.71,57.59c.19,1.92-1.21,3.64-3.14,3.83-1.92.19-3.64-1.21-3.83-3.14l-5.28-53.26c-1.01,1.21-2.29,3.83-2.59,9.45-.81,15.38,1.02,42.95,1.03,43.23.11,1.7-1.01,3.23-2.67,3.63-1.66.4-3.36-.44-4.04-2l-23.36-53.67c-1.14,1.53-2.06,4.1-1.34,8.29l16.22,38.7c.62,1.47.16,3.17-1.11,4.14-1.27.97-3.03.95-4.28-.04l-32.82-25.84c-.04.26-.05.53-.05.81.03,2.47,1.71,5.35,4.86,8.32,11,10.37,18.38,20.39,18.68,20.81.84,1.15.9,2.68.16,3.89-.74,1.21-2.14,1.85-3.54,1.63l-31.95-5.13c.75.73,1.94,1.47,3.83,2.1,9.18,3.06,22.28,6.97,22.42,7.01.95.28,1.73.95,2.16,1.84.43.89.46,1.92.08,2.84-3.84,9.38-9.62,30.17-2.98,34.55,1.61,1.06,2.06,3.23,1,4.85-.67,1.02-1.79,1.57-2.93,1.57Z"/>
            <path class="cls-3" d="M377.8,295.16c-.55,0-1.11-.13-1.63-.4-1.71-.9-2.37-3.02-1.46-4.73l24.17-45.84c.9-1.71,3.02-2.37,4.73-1.46,1.71.9,2.37,3.02,1.46,4.73l-24.17,45.84c-.63,1.19-1.84,1.87-3.1,1.87Z"/>
          </g>
          <path class="cls-3" d="M402.42,347.07c-1.26,0-2.48-.69-3.11-1.89l-24.33-46.77c-.89-1.71-.23-3.83,1.49-4.72,1.72-.89,3.83-.22,4.72,1.49l24.33,46.77c.89,1.71.23,3.83-1.49,4.72-.52.27-1.07.4-1.61.4Z"/>
          <path class="cls-3" d="M364.54,349.09c-1.57,0-2.99-1.06-3.39-2.65l-11.19-44.38c-.47-1.87.66-3.78,2.54-4.25,1.88-.47,3.78.66,4.25,2.54l11.19,44.38c.47,1.87-.66,3.78-2.54,4.25-.29.07-.57.11-.86.11Z"/>
        </g>
        <path class="cls-1" d="M446.17,349.39h2.49c-.38-.17-.8-.26-1.24-.26s-.86.1-1.24.26Z"/>
        <path class="cls-4" d="M444.31,321.11c0,1.72,1.39,3.11,3.11,3.11s3.11-1.39,3.11-3.11-1.39-3.11-3.11-3.11-3.11,1.4-3.11,3.11Z"/>
        <path class="cls-4" d="M459.87,336.67c0,1.72,1.39,3.11,3.11,3.11s3.11-1.39,3.11-3.11-1.39-3.11-3.11-3.11-3.11,1.4-3.11,3.11Z"/>
        <path class="cls-4" d="M431.86,333.56c-1.72,0-3.11,1.4-3.11,3.11s1.39,3.11,3.11,3.11,3.11-1.39,3.11-3.11-1.39-3.11-3.11-3.11Z"/>
        <path class="cls-1" d="M460.89,307.84c-.28-.47-.58-.93-.87-1.39.17.54.47,1.02.87,1.39Z"/>
        <path class="cls-4" d="M431.86,302.44c-1.72,0-3.11,1.4-3.11,3.11s1.39,3.11,3.11,3.11,3.11-1.39,3.11-3.11-1.39-3.11-3.11-3.11Z"/>
        <path class="cls-4" d="M444.75,291.57c.03.05.05.11.09.16.51.75,1.35,1.26,2.3,1.34-.77-.52-1.57-1.02-2.39-1.5Z"/>
        <path class="cls-1" d="M415.05,349.39h2.49c-.38-.17-.8-.26-1.24-.26s-.86.1-1.24.26Z"/>
        <path class="cls-4" d="M416.29,324.22c1.72,0,3.11-1.39,3.11-3.11s-1.39-3.11-3.11-3.11-3.11,1.4-3.11,3.11,1.39,3.11,3.11,3.11Z"/>
        <path class="cls-4" d="M400.73,302.44c-1.72,0-3.11,1.4-3.11,3.11s1.39,3.11,3.11,3.11,3.11-1.39,3.11-3.11-1.39-3.11-3.11-3.11Z"/>
        <path class="cls-4" d="M414.99,292.8c.4.19.84.3,1.31.3,1.07,0,2.02-.54,2.58-1.37.24-.35.4-.75.48-1.18l-4.36,2.26Z"/>
        <path class="cls-1" d="M354.04,349.12c-.44,0-.86.1-1.24.26h2.49c-.2-.09-.4-.16-.62-.2-.2-.04-.41-.06-.63-.06Z"/>
        <path class="cls-1" d="M354.67,324.16c.61-.12,1.15-.43,1.57-.85.04-.04.07-.09.11-.14l-1.95,1.01c.09-.01.18,0,.27-.03Z"/>
        <path class="cls-1" d="M321.67,349.39h2.49c-.38-.17-.8-.26-1.24-.26s-.86.1-1.24.26Z"/>
        <path class="cls-4" d="M319.8,321.11c0,1.72,1.39,3.11,3.11,3.11,1.43,0,2.62-.97,2.98-2.28l-5.19-3.03c-.56.56-.91,1.34-.91,2.2Z"/>
        <path class="cls-4" d="M341.59,336.67c0-1.72-1.39-3.11-3.11-3.11s-3.11,1.4-3.11,3.11,1.39,3.11,3.11,3.11,3.11-1.39,3.11-3.11Z"/>
        <path class="cls-4" d="M310.47,336.67c0-1.72-1.39-3.11-3.11-3.11s-3.11,1.4-3.11,3.11,1.39,3.11,3.11,3.11,3.11-1.39,3.11-3.11Z"/>
        <path class="cls-1" d="M293.04,349.39c-.2-.09-.4-.16-.62-.2-.2-.04-.41-.06-.63-.06-.44,0-.86.1-1.24.26h2.49Z"/>
        <path class="cls-4" d="M292.42,318.06c-.2-.04-.41-.06-.63-.06-.65,0-1.24.2-1.74.53-.83.56-1.37,1.51-1.37,2.58s.54,2.02,1.37,2.58c.5.34,1.1.53,1.74.53.21,0,.42-.02.63-.06,1.42-.29,2.49-1.54,2.49-3.05s-1.07-2.76-2.49-3.05Z"/>
        <path class="cls-1" d="M259.42,349.39h2.49c-.38-.17-.8-.26-1.24-.26s-.86.1-1.24.26Z"/>
        <path class="cls-4" d="M263.78,321.11c0-1.72-1.39-3.11-3.11-3.11s-3.11,1.4-3.11,3.11,1.39,3.11,3.11,3.11,3.11-1.39,3.11-3.11Z"/>
        <path class="cls-4" d="M276.23,339.79c1.72,0,3.11-1.39,3.11-3.11s-1.39-3.11-3.11-3.11-3.11,1.4-3.11,3.11,1.39,3.11,3.11,3.11Z"/>
        <path class="cls-4" d="M248.22,336.67c0-1.72-1.39-3.11-3.11-3.11s-3.11,1.4-3.11,3.11,1.39,3.11,3.11,3.11,3.11-1.39,3.11-3.11Z"/>
        <path class="cls-4" d="M273.12,305.55c0,1.72,1.39,3.11,3.11,3.11s3.11-1.39,3.11-3.11-1.39-3.11-3.11-3.11-3.11,1.4-3.11,3.11Z"/>
        <path class="cls-4" d="M245.1,308.66c1.72,0,3.11-1.39,3.11-3.11s-1.39-3.11-3.11-3.11-3.11,1.4-3.11,3.11,1.39,3.11,3.11,3.11Z"/>
        <path class="cls-4" d="M230.75,318.24c-.37-.16-.78-.24-1.21-.24-.21,0-.42.02-.63.06-.61.12-1.15.43-1.57.85-.56.56-.91,1.34-.91,2.2s.35,1.64.91,2.2c.42.42.97.72,1.57.85.2.04.41.06.63.06.43,0,.84-.09,1.21-.24,1.12-.47,1.9-1.58,1.9-2.87s-.78-2.39-1.9-2.87Z"/>
        <path class="cls-4" d="M258.09,291.73c.56.83,1.51,1.37,2.58,1.37s2.02-.54,2.58-1.37c.34-.5.53-1.1.53-1.74,0-.86-.35-1.64-.91-2.2-.28-.28-.62-.51-.99-.67-.19-.08-.38-.14-.58-.18-.2-.04-.41-.06-.63-.06s-.42.02-.63.06c-.2.04-.4.1-.58.18-.37.16-.71.39-.99.67-.56.56-.91,1.34-.91,2.2,0,.64.2,1.24.53,1.74Z"/>
        <path class="cls-1" d="M230.79,349.39s-.02-.01-.03-.02c-.37-.16-.78-.24-1.21-.24-.21,0-.42.02-.63.06-.22.04-.42.11-.62.2h2.49Z"/>
      </g>
      <g>
        <path class="cls-2" d="M459.82,510.46h-220.35c-14.19,0-25.86-11.17-26.49-25.34l-5.97-134.36c-.67-15.09,11.39-27.7,26.49-27.7h232.53c15.13,0,27.19,12.63,26.49,27.75l-6.21,134.36c-.65,14.16-12.32,25.3-26.49,25.3Z"/>
        <path class="cls-3" d="M459.82,513.96h-220.35c-16.1,0-29.28-12.6-29.99-28.69l-5.97-134.37c-.37-8.26,2.58-16.11,8.3-22.08,5.72-5.98,13.42-9.27,21.69-9.27h232.53c8.28,0,15.99,3.3,21.71,9.29,5.72,5.99,8.66,13.84,8.28,22.12l-6.21,134.37c-.74,16.06-13.91,28.63-29.99,28.63ZM233.5,326.56c-6.34,0-12.25,2.52-16.64,7.11-4.38,4.58-6.64,10.6-6.36,16.93l5.97,134.37c.55,12.33,10.65,22,23,22h220.35c12.33,0,22.43-9.64,23-21.96l6.21-134.37c.29-6.34-1.96-12.37-6.35-16.96-4.39-4.59-10.3-7.12-16.65-7.12h-232.53Z"/>
      </g>
      <g>
        <rect class="cls-4" x="212.07" y="510.46" width="276.17" height="14.64" rx="6.28" ry="6.28"/>
        <path class="cls-3" d="M481.96,528.6H218.35c-5.39,0-9.78-4.39-9.78-9.78v-2.08c0-5.39,4.39-9.78,9.78-9.78h263.61c5.39,0,9.78,4.39,9.78,9.78v2.08c0,5.39-4.39,9.78-9.78,9.78ZM218.35,513.96c-1.53,0-2.78,1.25-2.78,2.78v2.08c0,1.53,1.25,2.78,2.78,2.78h263.61c1.53,0,2.78-1.25,2.78-2.78v-2.08c0-1.53-1.25-2.78-2.78-2.78H218.35Z"/>
      </g>
      <path class="cls-3" d="M592.89,488.85h-85.87c-1.93,0-3.5-1.57-3.5-3.5s1.57-3.5,3.5-3.5h85.87c1.93,0,3.5,1.57,3.5,3.5s-1.57,3.5-3.5,3.5Z"/>
      <path class="cls-3" d="M199.59,488.85h-32.58c-1.93,0-3.5-1.57-3.5-3.5s1.57-3.5,3.5-3.5h32.58c1.93,0,3.5,1.57,3.5,3.5s-1.57,3.5-3.5,3.5Z"/>
      <rect class="cls-4" x="225.06" y="330.7" width="244.12" height="8.68" rx="4.34" ry="4.34"/>
      <g>
        <rect class="cls-2" x="71.5" y="419.75" width="69.15" height="86.45"/>
        <path class="cls-3" d="M144.16,509.7h-76.15v-93.45h76.15v93.45ZM75,502.7h62.15v-79.45h-62.15v79.45Z"/>
      </g>
      <path class="cls-3" d="M140.65,492.46c-1.74,0-3.24-1.29-3.47-3.06-.24-1.92,1.12-3.67,3.03-3.91.75-.11,19.03-2.98,22.89-30.56.7-5.03.78-11.58-2.84-14.23-4.79-3.51-14.93.04-18.1,1.56-1.75.83-3.83.1-4.67-1.64-.84-1.74-.1-3.83,1.64-4.67,1.64-.79,16.26-7.48,25.26-.9,5.16,3.77,7.05,10.79,5.64,20.86-4.64,33.08-27.96,36.41-28.95,36.53-.15.02-.3.03-.44.03Z"/>
      <rect class="cls-4" x="75.14" y="432.06" width="61.44" height="15.36"/>
      <rect class="cls-4" x="75.14" y="457.98" width="61.44" height="15.36"/>
      <rect class="cls-4" x="75.14" y="484.86" width="61.44" height="15.36"/>
    </g>
    <path class="cls-3" d="M242.05,100.57c-9.67,0-17.34-6.05-19.12-14.55-4.37.33-8.76-.52-11.71-3.05-3.33-2.86-5.2-6.95-5.43-11.83-.01-.3-.02-.61-.02-.91-3.68.48-7.14.61-9.92.44-8.41-.52-12.79-6.3-14.23-8.2-3.49-4.6-3.73-10.76-.67-17.37-7.89-1.59-14.73-5.86-18.36-11.47-2.81-4.34-3.64-9.37-2.41-14.53,3.21-13.47,19.68-17.96,30.33-16.02,6.32,1.15,14.04,4.91,16.72,12.02.97,2.57-.06,4.43-.55,5.11-1.75,2.42-4.51,2.3-6.72,2.2-3.65-.16-6.38-.04-8.24,2.98-1.42,2.31-1.41,4.58-.18,7.32.93-.57,1.89-1.06,2.87-1.47,3.95-1.66,11.22-4.72,16.14-.88.62.49,1.19,1.08,1.68,1.75.38-.35.75-.73,1.1-1.14,2.6-2.99,4.77-8.17,3.75-13.01-.83-3.95-3.71-7.1-8.55-9.36-2.25-1.05-3.22-3.73-2.17-5.98,1.05-2.25,3.73-3.22,5.98-2.17,9.39,4.39,12.55,10.94,13.54,15.66,1.78,8.42-2,16.46-5.77,20.79-1.71,1.97-3.59,3.47-5.51,4.63-.35,3.2-1.84,5.84-4.16,7.33-5.56,3.57-15.48,3.39-20.21-2.1-.34.57-.66,1.17-.96,1.79-1.24,2.54-2.32,6.08-.49,8.5,2.37,3.12,4.57,4.47,7.62,4.66,3.28.2,7.23-.1,11.1-.82,1.38-3.85,3.52-7.48,6.13-10.18.08-.08,8.23-7.9,14.27-4.68,2.12,1.13,3.49,3.09,3.84,5.51.58,4.04-1.8,8.06-3.54,9.78-3.27,3.22-8.14,5.52-13.33,7.04-.1.81-.13,1.61-.09,2.4.11,2.38.88,4.2,2.3,5.42.85.73,3.12,1.13,5.69.86.39-3.58,1.33-7.26,3.36-9.8,2.11-2.64,5.21-3.74,8.09-2.85,3.01.92,5.05,3.75,5.32,7.36.37,4.89-2.42,9.23-7.68,11.89-.07.04-.14.07-.21.11.79,5.17,5.65,7.87,10.4,7.87,2.49,0,4.5,2.01,4.5,4.5s-2.01,4.5-4.5,4.5ZM185.58,11.64c-6.74,0-15.12,3.11-16.65,9.54-.66,2.79-.27,5.26,1.22,7.56,2.3,3.56,7.34,6.54,12.83,7.59.12.02.25.05.38.07-2.09-4.69-2.77-10.1.7-15.73,2.8-4.54,6.63-6.3,10.07-6.95-1.67-.87-3.53-1.48-5.22-1.78-1.03-.19-2.15-.28-3.32-.28Z"/>
  </g>
</svg>