<?xml version="1.0" encoding="UTF-8"?>
<svg id="_レイヤー_2" data-name="レイヤー 2" xmlns="http://www.w3.org/2000/svg" viewBox="0 0 620.52 536.9">
  <defs>
    <style>
      .cls-1 {
        fill: #fff;
      }

      .cls-2 {
        fill: #fdd492;
      }

      .cls-3 {
        fill: #5e6063;
      }

      .cls-4 {
        fill: #22ac38;
      }
    </style>
  </defs>
  <g id="white">
    <path class="cls-1" d="M403.84,335.05H88.52s-6.74-80.8,7.18-90.02c13.93-9.22,74.72-22.96,74.72-22.96l2.6-9.25,26.23-12.52,3.58-35.31-9.38-17.06s-17.25-8.32-9.06-25.77c0,0-7.83-53.52,17.22-71.03,0,0-1.37-28.44,37.75-26.33,0,0,18.8-39.31,48.27-6.36,0,0,18.06,10.19,35.03,32.26,16.97,22.07,35.09,5.01,35.09,5.01,0,0,10.51,34.7-18.08,33.55,0,0-1.29,35.2-31.69,39.58l-1.72,15.09s18.22,1.48,12.41,12.36c-5.81,10.88-18.62,13.29-18.62,13.29l-1.85,43.25,12.33,4.11,1.18,10.99,66.14,14.76s30.75,58.33,25.99,92.35Z"/>
    <path class="cls-1" d="M88.52,327.76s24.19,139.72,63.21,146.9v48.87h136.95v-195.78H88.52Z"/>
  </g>
  <g id="image">
    <g>
      <path class="cls-3" d="M248.7,154.14c-.22,0-.45-.02-.67-.07-1.9-.37-3.14-2.21-2.77-4.11l7.57-38.82c.37-1.9,2.21-3.13,4.11-2.77,1.9.37,3.14,2.21,2.77,4.11l-7.57,38.82c-.33,1.67-1.79,2.83-3.43,2.83Z"/>
      <g>
        <path class="cls-3" d="M322.66,338.55c-1.34,0-2.63-.78-3.2-2.09l-23.09-52.39c-.17-.39-.27-.81-.29-1.24-1.6-31.98-2.19-86.27.15-107.55-1.52.52-2.93,1.41-4.24,2.69-11.15,10.84-10.83,42.59-10.82,42.91.02,1.21-.59,2.34-1.6,2.99-1.01.65-2.29.74-3.38.23-20.21-9.48-42.66-15.25-64.94-16.68-.84-.05-2.4-.15-3,.24-.22.14-.31.47-.34.73-.12.83.19,1.85.74,2.49,1.37,1.59,3.75,2.4,6.72,3.28l17.49,5.23c1.22.37,2.15,1.36,2.42,2.61.27,1.24-.16,2.54-1.11,3.38-1.81,1.59-2.89,4.09-2.94,6.85-.06,2.76.91,5.3,2.66,6.96.85.81,1.24,2,1.03,3.15-.21,1.16-.98,2.13-2.06,2.6-1.79.77-2.36,2.98-2.3,4.65.06,1.66.78,3.83,2.62,4.48,1.26.44,2.17,1.57,2.32,2.9.16,1.33-.46,2.63-1.59,3.36-.65.41-1.03,1.14-1.11,2.16-.15,1.73.62,3.73,1.86,4.87,2.67,2.45,6.83,3.16,11.59,3.79l22.68,2.98c1.92.25,3.27,2.01,3.02,3.93-.25,1.92-2,3.26-3.93,3.02l-22.68-2.98c-4.6-.6-10.89-1.43-15.41-5.56-2.83-2.59-4.45-6.77-4.11-10.64.12-1.38.47-2.67,1.04-3.8-1.97-2.07-3.19-4.98-3.3-8.24-.12-3.41.99-6.53,2.98-8.75-1.55-2.61-2.37-5.74-2.3-9,.05-2.65.69-5.19,1.82-7.42l-12.68-3.79c-3.04-.91-7.19-2.15-10.01-5.42-1.86-2.15-2.77-5.23-2.37-8.04.34-2.38,1.56-4.38,3.44-5.61,2.55-1.67,5.51-1.48,7.28-1.36,21.69,1.39,42.72,6.47,62.59,15.12.44-10.35,2.59-32.65,12.84-42.6,3.78-3.67,8.29-5.43,13.37-5.2,1.01.04,1.96.53,2.59,1.32.63.79.89,1.82.7,2.82-2.71,14.49-2.61,71.77-.73,109.95l22.83,51.8c.78,1.77-.02,3.83-1.79,4.61-.46.2-.94.3-1.41.3Z"/>
        <path class="cls-3" d="M272.26,338.55c-1.63,0-3.09-1.14-3.42-2.8l-10.2-49.87c-.39-1.89.83-3.74,2.73-4.13,1.89-.39,3.74.83,4.13,2.73l10.2,49.87c.39,1.89-.83,3.74-2.73,4.13-.24.05-.47.07-.71.07Z"/>
      </g>
      <path class="cls-3" d="M403.84,338.55c-1.8,0-3.33-1.38-3.48-3.2-2.86-33.17-12.71-87.15-26.95-91.02l-62.49-13.56c-1.89-.41-3.09-2.27-2.68-4.16.41-1.89,2.27-3.09,4.16-2.68l62.57,13.58s.09.02.14.03c10.67,2.78,19.05,19.76,25.61,51.9,4.64,22.75,6.6,45.08,6.62,45.31.17,1.93-1.26,3.62-3.19,3.79-.1,0-.2.01-.3.01Z"/>
      <path class="cls-3" d="M87.8,312.21c-1.82,0-3.36-1.41-3.49-3.26-.49-7.07-4.11-69.24,20-75.52.04,0,.07-.02.11-.03l65.23-14.74c1.89-.42,3.76.76,4.19,2.64s-.76,3.76-2.64,4.19l-65.17,14.73c-13.92,3.73-16.43,43.82-14.74,68.25.13,1.93-1.32,3.6-3.25,3.73-.08,0-.16,0-.25,0Z"/>
      <path class="cls-3" d="M202.84,216.33c-1.93,0-3.5-1.57-3.5-3.5v-37.47c0-1.93,1.57-3.5,3.5-3.5s3.5,1.57,3.5,3.5v37.47c0,1.93-1.57,3.5-3.5,3.5Z"/>
      <path class="cls-3" d="M317.73,287.44c-.56,0-1.13-.14-1.65-.41l-13.27-7.07c-1.71-.91-2.35-3.03-1.44-4.73.91-1.71,3.03-2.35,4.73-1.44l7.44,3.96-6.28-58.48-6.85-3.27c-1.74-.83-2.48-2.92-1.65-4.67.83-1.74,2.92-2.48,4.67-1.65l8.61,4.11c1.1.52,1.84,1.58,1.97,2.79l7.19,67c.14,1.29-.45,2.55-1.52,3.27-.59.4-1.27.6-1.96.6Z"/>
      <path class="cls-3" d="M165.84,283.33c-.69,0-1.37-.2-1.96-.6-1.07-.73-1.66-1.99-1.52-3.27l7.19-66.99c.13-1.21.88-2.26,1.97-2.78l26.23-12.52c1.74-.83,3.83-.09,4.67,1.65.83,1.74.09,3.83-1.65,4.67l-24.47,11.68-6.28,58.48,35.49-18.91c1.34-.71,2.99-.48,4.08.57l20.08,19.4c1.39,1.34,1.43,3.56.09,4.95-1.35,1.39-3.56,1.43-4.95.09l-18.25-17.63-39.08,20.82c-.52.28-1.08.41-1.65.41Z"/>
      <path class="cls-3" d="M227.46,258.86c-1.2,0-2.37-.62-3.02-1.73l-26.48-45.1c-.98-1.67-.42-3.81,1.25-4.79,1.67-.98,3.81-.42,4.79,1.25l26.48,45.1c.98,1.67.42,3.81-1.25,4.79-.56.33-1.17.48-1.77.48Z"/>
      <path class="cls-3" d="M244.24,338.55c-1.93,0-3.5-1.57-3.5-3.5v-46.92c0-1.93,1.57-3.5,3.5-3.5s3.5,1.57,3.5,3.5v46.92c0,1.93-1.57,3.5-3.5,3.5Z"/>
      <path class="cls-2" d="M246.67,25.97c-.08.12-.18.25-.26.38l-.26-.62c.18.08.35.17.53.25Z"/>
      <path class="cls-4" d="M192.34,59.32c2.38-2.81,8.09-4.61,9.27-8.19.66-2,.81-4.07,1.75-6.04,1.29-2.7,3.06-4.32,5.15-6.36,2.53-2.47,4.52-4.86,7.65-6.6,2.75-1.53,5.88-1.81,8.99-2.11,3.69-.36,7.35.89,11.02,1.23,1.74.16,4.06.83,5.68-.13,1.65-.98,3.41-3.16,4.55-4.77l.62,1.5c.69-3.58,1.82-7.12,3.95-9.86.84-1.07,1.75-2.05,2.64-3.15,1.17-1.45,2.78-2.37,4-3.76,1.69-1.94,4.74-3.85,7.18-4.61,1.49-.46,2.81-.59,4.31-.28,1.47.3,3.8.29,4.98,1.26,1.22,1,.76,2.62.87,4.04.1,1.25.63,2.83,1.44,3.91.94,1.25,2.2,2.54,3.36,3.6.57.53,1.19,1.19,1.79,1.64.84.64,1.95.94,2.84,1.51,2.87,1.85,6.55,2.5,9.58,4.28,2.28,1.34,4.16,2.72,6,4.61.6.62,1.31,1.19,1.9,1.81.96,1,2.15,1.8,3.07,2.78,2.92,3.12,5.03,7.37,7.38,10.96,1.26,1.91,3.16,3.24,4.79,4.83,1.43,1.39,2.85,2.41,4.52,3.46.65.41,1.03,1.03,1.61,1.47.67.51,1.37.86,2.02,1.45,1.27,1.15,2.48,2,3.98,2.89,1.28.76,2.61,1.4,3.78,2.26,1.05.78,2.61,1.94,3.32,3.07.49.79.62,1.68,1.12,2.47.43.68.91,1.1,1.25,1.91.66,1.59,1.19,3.18,1.83,4.77,1.49,3.74,3.34,7.66,4.06,11.65.23,1.28.7,2.57.59,3.88-.09,1.07-.4,1.9-.31,3,.18,2.29-.5,3.43-2.72,4.01-3.05.8-4.62-.87-6.96-2.67-1.13-.87-5.66-5.82-7.44-4.6-.42.29-.55,1.96-.61,2.48-.24,1.96.17,3.9.44,5.83.29,2.09.19,3.77-.11,5.82-.25,1.73.03,3.4-.32,5.15-1.08,5.29-4.63,11.13-10.31,12.1-1.72.29-4.65.66-6.13-.52-1.61-1.29-.96-5.24-.73-6.83.7-4.79,1.35-10.21,1.17-15.04-.08-2.09.22-4.35-.19-6.42-.15-.76-1.06-3.99-1.66-4.28-1.02,1.88-.25,4.05-2.47,5.4-2.2,1.34-4.11.42-5.7-1.39-2.81-3.22-4.79-7.05-7.67-10.26-2.19-2.44-4.17-4.75-6.69-6.88-3.87-3.26-7.99-5.02-12.37-7.34-4.07-2.15-7.92-4.45-11.85-6.86-2.29-1.41-4.17-3.21-6.3-4.81-2-1.5-4.28-2.65-6.09-4.41-.69-.67-1.71-1.48-2.27-2.25-.32-.44-.4-1.34-1-1.43-.88-.14-.56.7-.97,1.14-.81.88-1.56,1.82-2.37,2.7-1.84,2.02-3.99,3.25-6.17,4.87-3.31,2.45-6.29,5.23-9.79,7.37-3.85,2.35-7.72,4.76-11.4,7.37-9.48,6.71-17.89,15.39-21.77,26.59-1.42,4.1-2.39,8.21-3.21,12.46-.22,1.13-.44,2.25-.67,3.37-.3,1.45.09,2.92-.22,4.27-1.61.24-3.49-.81-4.91-1.38-2.03-.82-3.38-.94-4.16-3.33-1.31-4.05.18-8.45.68-12.49.77-6.27.5-12.44,1.77-18.67,1.02-5.01,1.49-10.65,3.38-15.42,1.21-3.05,3.15-5.52,5.26-8.02Z"/>
      <path class="cls-3" d="M297.29,173.46c-1.62,0-3.07-1.13-3.42-2.77-.4-1.89.8-3.75,2.7-4.15,1.27-.27,2.49-.38,3.66-.48.75-.07,1.46-.13,2.13-.23,6.38-.97,11.85-6.53,12.72-12.93.18-1.34.22-3.21-.62-4.48-.48-.72-1.44-1.14-1.86-.94-1.77.78-3.83-.02-4.62-1.79-.78-1.77.02-3.83,1.79-4.62,3.62-1.6,8.14-.11,10.52,3.47,1.63,2.44,2.23,5.66,1.73,9.3-1.29,9.51-9.11,17.46-18.6,18.9-.89.14-1.74.21-2.57.28-1.01.09-1.96.17-2.82.36-.25.05-.49.08-.73.08Z"/>
      <path class="cls-3" d="M198.38,154.16c-.67,0-1.36-.19-1.96-.6-.73-.49-1.58-.93-2.48-1.39-.74-.38-1.5-.77-2.27-1.23-8.25-4.91-12.51-15.21-10.13-24.51.91-3.56,2.67-6.31,5.1-7.97,3.55-2.42,8.3-2.1,11.06.74,1.34,1.39,1.31,3.6-.08,4.95-1.39,1.34-3.61,1.31-4.95-.08-.32-.33-1.37-.32-2.08.17-1.26.86-1.92,2.6-2.26,3.92-1.6,6.25,1.38,13.46,6.93,16.76.58.35,1.21.67,1.89,1.01,1.05.54,2.13,1.09,3.21,1.82,1.6,1.08,2.02,3.26.94,4.86-.68,1-1.78,1.54-2.9,1.54Z"/>
      <path class="cls-3" d="M237.39,202.03c-.27,0-.54-.03-.82-.1-34.61-8.3-43.46-38.71-40.97-57.12.26-1.91,2.02-3.25,3.94-3,1.92.26,3.26,2.02,3,3.94-1.49,11,2.01,41.3,35.66,49.38,1.88.45,3.04,2.34,2.59,4.22-.38,1.61-1.82,2.68-3.4,2.68Z"/>
      <path class="cls-3" d="M306.86,138.12c-.22,0-.45-.02-.67-.07-1.9-.37-3.14-2.21-2.77-4.11l4.86-24.91c.37-1.9,2.21-3.13,4.11-2.77,1.9.37,3.14,2.21,2.77,4.11l-4.86,24.91c-.33,1.67-1.79,2.83-3.43,2.83Z"/>
      <path class="cls-3" d="M299.57,168.5c-.42,0-.84-.08-1.25-.23-1.8-.69-2.71-2.72-2.01-4.52,2.05-5.34,3.4-11.26,4.6-16.88.41-1.89,2.27-3.1,4.16-2.69,1.89.41,3.09,2.27,2.69,4.16-1.26,5.88-2.68,12.12-4.91,17.92-.54,1.39-1.86,2.25-3.27,2.25Z"/>
      <path class="cls-3" d="M244.63,203.31c-.25,0-.5,0-.75,0-1.93-.03-3.48-1.61-3.45-3.55.02-1.92,1.59-3.45,3.5-3.45h.05c.22,0,.44,0,.65,0,10.7,0,21.26-3.37,31.41-10.02,1.62-1.06,3.79-.61,4.85,1.01,1.06,1.62.61,3.79-1.01,4.85-11.31,7.41-23.16,11.17-35.25,11.17Z"/>
      <path class="cls-3" d="M338.28,92.77c-1.5,0-2.89-.98-3.35-2.49-3.1-10.28-10.2-19.27-19.49-24.66-1.67-.97-2.24-3.11-1.27-4.78.97-1.67,3.11-2.24,4.78-1.27,10.8,6.27,19.07,16.73,22.68,28.69.56,1.85-.49,3.8-2.34,4.36-.34.1-.68.15-1.01.15Z"/>
      <path class="cls-3" d="M181.8,117.96c-1.55,0-2.96-1.03-3.38-2.6-6.82-25.55,17.41-58.33,18.45-59.71,1.16-1.55,3.35-1.86,4.9-.71,1.55,1.16,1.86,3.35.71,4.9-.23.31-23.23,31.45-17.29,53.71.5,1.87-.61,3.79-2.48,4.29-.3.08-.61.12-.91.12Z"/>
      <path class="cls-3" d="M348.17,62.5c-4.23,0-10.75-1.32-20.6-5.96-9.42-4.43-14.5-11.03-19.41-17.4-5.42-7.04-10.55-13.7-21.62-17.36-19.58-6.47-27.26,1.48-27.58,1.83-1.27,1.46-3.47,1.59-4.92.31-1.46-1.27-1.59-3.5-.31-4.96.43-.49,10.72-11.85,35.01-3.83,13.11,4.34,19.14,12.16,24.97,19.73,4.6,5.98,8.95,11.63,16.85,15.34,14.67,6.9,19.54,5.16,20.02,4.94,1.43-1.05,3.45-.87,4.67.48,1.3,1.43,1.18,3.65-.25,4.94-.75.67-2.7,1.93-6.81,1.93ZM350.29,55.37h0s0,0,0,0ZM350.3,55.36s0,0,0,0c0,0,0,0,0,0ZM350.3,55.36h0s0,0,0,0Z"/>
      <path class="cls-3" d="M282.5,77.65c-.37,0-.75-.06-1.12-.19-25.21-8.54-34.69-24.32-35.08-24.99-.98-1.67-.42-3.81,1.25-4.79,1.66-.97,3.8-.42,4.78,1.24.12.19,8.76,14.27,31.3,21.91,1.83.62,2.81,2.61,2.19,4.44-.49,1.46-1.86,2.38-3.32,2.38Z"/>
      <path class="cls-3" d="M306.06,84.43c-.11,0-.22,0-.33-.01-1.92-.18-3.34-1.88-3.16-3.81,2.61-28.28-22.03-33.57-23.08-33.78-1.89-.38-3.12-2.22-2.75-4.11.37-1.89,2.21-3.13,4.1-2.76.32.06,31.9,6.63,28.7,41.29-.17,1.82-1.69,3.18-3.48,3.18Z"/>
      <path class="cls-3" d="M243.55,22.66c-.4,0-.8-.07-1.2-.21-1.82-.66-2.75-2.67-2.09-4.49C245.37,3.91,258.36.27,258.91.12c1.87-.5,3.79.6,4.29,2.47.5,1.86-.6,3.78-2.46,4.29-.45.12-10.07,2.95-13.9,13.48-.52,1.42-1.86,2.3-3.29,2.3Z"/>
      <path class="cls-3" d="M197.89,47.09c-.66,0-1.32-.18-1.91-.57-1.62-1.06-2.07-3.23-1.02-4.84,19.37-29.69,43.95-18.07,44.19-17.95,1.73.85,2.45,2.95,1.6,4.68-.85,1.73-2.93,2.45-4.67,1.6-.82-.39-19.38-8.85-35.26,15.48-.67,1.03-1.79,1.59-2.93,1.59Z"/>
      <path class="cls-3" d="M197.43,98.28c-.37,0-.74-.06-1.1-.18-1.83-.61-2.83-2.59-2.22-4.42,9.18-27.65,34.77-40.56,35.86-41.09,1.73-.85,3.83-.15,4.69,1.59.86,1.73.14,3.83-1.59,4.69-.34.17-24.1,12.26-32.31,37.02-.49,1.47-1.85,2.4-3.32,2.4Z"/>
      <path class="cls-3" d="M285.14,117.25c2.38.46,3.93,2.77,3.47,5.15s-2.77,3.93-5.15,3.47c-2.38-.46-3.93-2.77-3.47-5.15s2.77-3.93,5.15-3.47Z"/>
      <path class="cls-3" d="M224.36,105.17c2.38.46,3.93,2.77,3.47,5.15-.46,2.38-2.77,3.93-5.15,3.47s-3.93-2.77-3.47-5.15c.46-2.38,2.77-3.93,5.15-3.47Z"/>
      <path class="cls-3" d="M254.41,181.67c-1.16,0-2.3-.58-2.97-1.64-.05-.09-2.89-4.43-7.45-5.43-2.69-.59-5.61.1-8.67,2.05-1.63,1.04-3.79.57-4.83-1.06s-.57-3.79,1.06-4.84c4.71-3.01,9.43-4.01,14.03-2.97,7.46,1.69,11.62,8.26,11.79,8.54,1.02,1.64.52,3.8-1.12,4.82-.58.36-1.21.53-1.85.53Z"/>
      <path class="cls-3" d="M239.36,84.83c-.27,0-.55-.03-.82-.1l-16.85-4.05c-1.88-.45-3.04-2.34-2.58-4.22.45-1.88,2.34-3.04,4.22-2.58l16.85,4.05c1.88.45,3.04,2.34,2.58,4.22-.39,1.6-1.82,2.68-3.4,2.68Z"/>
      <path class="cls-3" d="M300.06,99.02c-.27,0-.55-.03-.82-.1l-16.85-4.05c-1.88-.45-3.04-2.34-2.58-4.22.45-1.88,2.34-3.04,4.22-2.58l16.85,4.05c1.88.45,3.04,2.34,2.58,4.22-.39,1.6-1.82,2.68-3.4,2.68Z"/>
      <path class="cls-3" d="M157.17,478.16c-17.78,0-34.92-25.64-52.37-78.29-12.71-38.36-20.75-77.5-20.83-77.89-.39-1.89.84-3.74,2.73-4.13,1.88-.39,3.74.83,4.13,2.73.08.39,8.05,39.17,20.63,77.14,15.72,47.42,31.93,73.44,45.74,73.44.2,0,.4,0,.61-.02,37.99-2.11,80.1-14.85,80.53-14.97,1.85-.56,3.81.48,4.37,2.33.56,1.85-.48,3.8-2.33,4.37-.43.13-43.33,13.11-82.18,15.27-.34.02-.69.03-1.03.03Z"/>
      <path class="cls-3" d="M205.4,390.96c-1.95,0-4.08-.76-6.05-3.25-.56-.7-.99-1.37-1.38-1.97-.53-.73-1.02-1.49-1.47-2.25-.21-.36-.36-.76-.43-1.17l-.02-.11c-.24-.02-.59,0-1.1.08-1.58.28-3.89,1.32-5.57,2.08l-.1.04c-.28.13-.54.26-.78.39-1.26.66-3.37,1.76-6.28.56-3.03-1.25-6.09-4.65-3.46-13.77.93-3.22,1.75-6.99.85-10.57-.12-.48-.21-.93-.28-1.36-.05-.3-.13-.72-.18-.85,0,0-.03-.03-.08-.06-.71-.57-1.61-.88-1.96-.88h0s-.24.1-.4.16c-.44.18-1.05.42-1.82.57-1.01.2-2.01.12-2.81.06-.23-.02-.45-.03-.64-.04-.67-.02-1.07.02-1.6.11-1.83.31-3.99.64-6.47.61-1.93-.02-3.48-1.61-3.46-3.54.02-1.92,1.59-3.46,3.5-3.46.1,0,.2,0,.3,0,1.61,0,3.1-.2,4.95-.51.96-.16,1.79-.22,2.89-.21.32,0,.67.03,1.04.05.31.02.84.06,1.02.04.08-.02.28-.1.51-.19.65-.26,1.64-.65,2.96-.66h.04c2.09,0,4.46.91,6.36,2.43,2.15,1.73,2.52,3.78,2.76,5.13.05.28.1.57.18.88,1.32,5.23.21,10.35-.91,14.23-1.02,3.54-.76,4.89-.63,5.27.13-.06.28-.14.4-.21.35-.18.73-.38,1.15-.57l.1-.04c2.13-.96,4.78-2.15,7.22-2.58,5.15-.9,7.53,1.51,8.5,3.03.25.4.42.84.5,1.3l.13.76c.26.42.54.84.84,1.25.04.05.08.11.11.16.39.61.68,1.05,1.01,1.46.39.49.59.6.61.61,0,0,.32.01,1.28-.37,1.39-.55,2.69-1.28,4.06-2.05,2.15-1.21,4.37-2.46,7.18-3.19,4.6-1.19,9.03-2.86,13.18-4.94.73-.37,1.46-.69,2.2-1.02,1.01-.45,1.97-.87,2.8-1.37l.37-.23c1.57-.97,3.72-2.31,6.64-1.85,1.91.3,3.21,2.09,2.92,4-.3,1.91-2.08,3.21-4,2.92-.34-.06-.95.31-1.86.88l-.42.26c-1.24.76-2.46,1.29-3.64,1.82-.63.27-1.25.55-1.87.86-4.59,2.31-9.49,4.15-14.57,5.47-1.92.5-3.66,1.48-5.5,2.51-1.51.85-3.08,1.73-4.9,2.45-1.12.45-2.46.86-3.91.86Z"/>
      <path class="cls-3" d="M158.5,417.59c-1.61,0-3.05-1.12-3.41-2.75l-.14-.65c-.42-1.89.78-3.75,2.67-4.17.11-.02.22-.04.33-.06.02-.03.04-.05.05-.07.34-.46.7-.94,1.11-1.36l.73-.74c.57-.58,1.15-1.16,1.73-1.79.41-.44.84-1.02,1.29-1.63,1.33-1.79,2.99-4.02,5.85-5.04,1.83-.65,3.82.3,4.47,2.12.65,1.82-.3,3.82-2.12,4.47-.86.31-1.7,1.43-2.58,2.62-.55.74-1.12,1.5-1.79,2.23-.63.67-1.25,1.3-1.86,1.93l-.71.72c-.09.1-.34.43-.51.66-.98,1.31-2.31,3.09-4.52,3.46-.19.03-.39.05-.58.05Z"/>
      <path class="cls-3" d="M184.37,430.37c-.64,0-1.27-.17-1.84-.52-1.22-.75-1.86-2.18-1.61-3.59.24-1.35.8-2.57,1.29-3.65.29-.62.56-1.22.7-1.68.38-1.27.71-2.55,1.06-3.9.34-1.32.69-2.68,1.1-4.04.32-1.08.72-2.12,1.1-3.12.42-1.09.81-2.13,1.06-3.07.09-.33.14-.65.2-.95.24-1.3.56-3.08,2.21-4.86,1.32-1.41,3.53-1.49,4.95-.17,1.41,1.32,1.49,3.53.17,4.95-.22.24-.27.34-.45,1.33-.08.46-.17.95-.31,1.46-.34,1.33-.83,2.59-1.3,3.82-.35.92-.69,1.8-.93,2.62-.37,1.23-.69,2.47-1.03,3.78-.35,1.36-.71,2.77-1.14,4.18-.28.92-.68,1.8-1.03,2.57-.04.1-.09.19-.13.29.22,1.26-.26,2.59-1.36,3.4l-.63.47c-.62.46-1.36.7-2.09.7Z"/>
      <g>
        <path class="cls-3" d="M175.54,502.07h336.17c5.37,0,9.74,4.36,9.74,9.74v8.11c0,5.37-4.36,9.74-9.74,9.74H175.54v-27.58h0Z" transform="translate(696.98 1031.73) rotate(180)"/>
        <g>
          <path class="cls-4" d="M244.97,526.22h288.3l29.27-168.22c2.07-11.89-7.08-22.77-19.15-22.77h-248.84c-9.45,0-17.53,6.8-19.15,16.11l-30.43,174.89Z"/>
          <path class="cls-3" d="M536.21,529.72H240.8l31.15-178.99c1.92-11.01,11.42-19.01,22.6-19.01h248.84c6.79,0,13.19,2.98,17.56,8.17,4.37,5.19,6.21,12.01,5.04,18.7l-29.78,171.12ZM249.13,522.72h281.2l28.77-165.32c.81-4.65-.47-9.38-3.5-12.99-3.04-3.61-7.48-5.68-12.2-5.68h-248.84c-7.77,0-14.37,5.55-15.7,13.21l-29.72,170.79Z"/>
        </g>
      </g>
      <path class="cls-3" d="M51.09,527.93s-.06,0-.09,0l-47.58-1.17c-1.93-.05-3.46-1.65-3.41-3.58.05-1.9,1.6-3.41,3.5-3.41.03,0,.06,0,.09,0l47.58,1.17c1.93.05,3.46,1.65,3.41,3.58-.05,1.9-1.6,3.41-3.5,3.41Z"/>
      <path class="cls-3" d="M617.02,532.69h-.04l-59.4-.61c-1.93-.02-3.48-1.6-3.46-3.54.02-1.92,1.58-3.46,3.5-3.46h.04l59.4.61c1.93.02,3.48,1.6,3.46,3.54-.02,1.92-1.58,3.46-3.5,3.46Z"/>
      <g>
        <path class="cls-4" d="M142.63,533.4c5.24,0,9.16-4.87,7.98-9.97-4.52-19.58-22.07-34.18-43.02-34.18s-38.5,14.6-43.02,34.18c-1.18,5.1,2.74,9.97,7.98,9.97h70.08Z"/>
        <path class="cls-3" d="M142.63,536.9h-70.08c-3.58,0-6.92-1.61-9.16-4.42-2.22-2.79-3.03-6.38-2.23-9.84,5.02-21.72,24.11-36.89,46.43-36.89s41.42,15.17,46.43,36.89c.8,3.46-.01,7.05-2.23,9.84-2.23,2.81-5.57,4.42-9.16,4.42ZM107.59,492.75c-19.04,0-35.33,12.94-39.61,31.46-.32,1.37,0,2.8.89,3.91.9,1.13,2.24,1.78,3.68,1.78h70.08c1.44,0,2.78-.65,3.68-1.78.88-1.11,1.21-2.54.89-3.91-4.28-18.53-20.57-31.46-39.61-31.46Z"/>
      </g>
    </g>
    <path class="cls-3" d="M106.82,110.77c-9.67,0-17.34-6.05-19.12-14.55-4.37.33-8.76-.52-11.71-3.05-3.33-2.86-5.2-6.95-5.43-11.83-.01-.3-.02-.61-.02-.91-3.68.48-7.14.61-9.92.44-8.41-.52-12.79-6.3-14.23-8.2-3.49-4.6-3.73-10.76-.67-17.37-7.89-1.59-14.73-5.86-18.36-11.47-2.81-4.34-3.64-9.37-2.41-14.53,3.21-13.47,19.68-17.96,30.33-16.02,6.32,1.15,14.04,4.91,16.72,12.02.97,2.57-.06,4.43-.55,5.11-1.75,2.42-4.51,2.3-6.72,2.2-3.65-.16-6.38-.04-8.24,2.98-1.42,2.31-1.41,4.58-.18,7.32.93-.57,1.89-1.06,2.87-1.47,3.95-1.66,11.22-4.72,16.14-.88.62.49,1.19,1.08,1.68,1.75.38-.35.75-.73,1.1-1.14,2.6-2.99,4.77-8.17,3.75-13.01-.83-3.95-3.71-7.1-8.55-9.36-2.25-1.05-3.22-3.73-2.17-5.98,1.05-2.25,3.73-3.22,5.98-2.17,9.39,4.39,12.55,10.94,13.54,15.66,1.78,8.42-2,16.46-5.77,20.79-1.71,1.97-3.59,3.47-5.51,4.63-.35,3.2-1.84,5.84-4.16,7.33-5.56,3.57-15.48,3.39-20.21-2.1-.34.57-.66,1.17-.96,1.79-1.24,2.54-2.32,6.08-.49,8.5,2.37,3.12,4.57,4.47,7.62,4.66,3.28.2,7.23-.1,11.1-.82,1.38-3.85,3.52-7.48,6.13-10.18.08-.08,8.23-7.9,14.27-4.68,2.12,1.13,3.49,3.09,3.84,5.51.58,4.04-1.8,8.06-3.54,9.78-3.27,3.22-8.14,5.52-13.33,7.04-.1.81-.13,1.61-.09,2.4.11,2.38.88,4.2,2.3,5.42.85.73,3.12,1.13,5.69.86.39-3.58,1.33-7.26,3.36-9.8,2.11-2.64,5.21-3.74,8.09-2.85,3.01.92,5.05,3.75,5.32,7.36.37,4.89-2.42,9.23-7.68,11.89-.07.04-.14.07-.21.11.79,5.17,5.65,7.87,10.4,7.87,2.49,0,4.5,2.01,4.5,4.5s-2.01,4.5-4.5,4.5ZM50.35,21.84c-6.74,0-15.12,3.11-16.65,9.54-.66,2.79-.27,5.26,1.22,7.56,2.3,3.56,7.34,6.54,12.83,7.59.12.02.25.05.38.07-2.09-4.69-2.77-10.1.7-15.73,2.8-4.54,6.63-6.3,10.07-6.95-1.67-.87-3.53-1.48-5.22-1.78-1.03-.19-2.15-.28-3.32-.28Z"/>
  </g>
</svg>