<?xml version="1.0" encoding="UTF-8"?>
<svg id="_レイヤー_2" data-name="レイヤー 2" xmlns="http://www.w3.org/2000/svg" viewBox="0 0 579.46 522.17">
  <defs>
    <style>
      .cls-1 {
        fill: #fff;
      }

      .cls-2 {
        fill: #5e6063;
      }

      .cls-3 {
        fill: #22ac38;
      }
    </style>
  </defs>
  <g id="white">
    <path class="cls-1" d="M187.45,349h282.01s-23.77-69.42-46.55-71.18c-22.79-1.76-50.58-13.62-65.25-40.7-14.66-27.08-3.01-49.06-3.01-49.06,0,0,13.1-7.02,14.48-35.42,0,0,26.9-12.19,10.64-33.46s-4.5-.93-4.5-.93c0,0,.84-76.06-41.63-78.89,0,0-58.57-40.43-87.6,15.09-29.04,55.52-2.4,114.56-2.4,114.56l29.71,15.32,23.86,18.69s7.3,44.55-23.86,57.47c-31.15,12.92-78.72,35.25-85.9,88.53Z"/>
    <path class="cls-1" d="M468.92,359.95s47.14,130.05,5.28,146.11c-41.86,16.07-132.77,11.97-132.77,11.97l-29.58-174.37h154.87l2.19,16.28Z"/>
  </g>
  <g id="image">
    <g>
      <g>
        <path class="cls-3" d="M451.57,312.5c-.04-.18-.07-.36-.11-.54-.45-2.28-3.2-3.63-5.32-3.02-7.76,2.23-15.64,3.49-23.72,4.09-3.65.27-7.28.47-10.93.78-4.1.35-8.3,1.15-12.4,1.16-7.56.02-15.92,1.7-23.29,3.36-3.75.84-7.39,2.08-11.09,3.09-4.37,1.18-8.04,1.15-12.52,1.02-3.78-.11-7.54.39-11.24-.55-3.83-.98-7.54-2.24-11.54-2.38-8.29-.3-16.51-1.8-24.82-1.8-8.74,0-17.49,0-26.23.03-8.01.04-15.72,1.52-23.77.54-4.38-.53-8.56-1.7-12.78-2.98-4.03-1.22-7.56-2.88-11.46-4.41-5.84-2.29-15.01-4.72-20.37-.29-4.29,3.55,1.85,9.63,6.11,6.11,1.07-.89,7.31,1.14,8.37,1.4,3.62.88,6.68,2.97,10.2,4.13,7.05,2.31,14.26,4.21,21.67,4.87,7.97.71,15.73-.72,23.69-.73,8.19,0,16.38-.03,24.56-.03,8.3,0,16.56,1.36,24.82,1.8,3.73.2,7.15,1.71,10.76,2.47,3.97.83,8,.35,12.01.46,3.3.1,6.55.45,9.83-.11,3.91-.66,7.74-2.01,11.54-3.11,7.47-2.16,15.7-3.57,23.46-4.23,16.36-1.4,33.31-1.58,49.27-5.76,2.69.42,6.01-1.8,5.3-5.36Z"/>
        <path class="cls-3" d="M439.93,345.74c-8.23,0-16.47.03-24.7.01-8.27-.01-16.37,1.61-24.61,1.95-16.86.71-33.67.8-50.54.84-7.84.02-15.68.42-23.49,1.22-7.6.78-15.17.65-22.8.63-3.85,0-7.7,0-11.54-.01-3.85,0-7.59-.88-11.43-.93-3.27-.04-6.64.61-9.88-.08-3.96-.84-7.88-1.94-11.86-2.78-8.3-1.75-17.05-.83-25.49-.94-3.64-.05-7.15.82-10.77.95-1.74.06-3.11.75-4.76,1.04-2.01.36-4.19,0-6.23-.05-5.57-.13-5.56,8.52,0,8.65,6.49.15,12.51-.83,18.85-1.77,3.41-.51,7.11-.1,10.56-.1,3.98,0,8.19-.48,12.15-.08,7.42.76,14.39,4.1,21.88,4.01,7.35-.09,14.56.71,21.93.72,7.82,0,15.74.38,23.55-.02,7.48-.38,14.94-1.68,22.44-1.82,16.98-.33,33.93-.13,50.91-.63,9.33-.27,18.54-1.91,27.85-2.16,9.31-.25,18.68-.01,28-.02,5.56,0,5.57-8.65,0-8.65Z"/>
        <circle class="cls-3" cx="384.87" cy="176.18" r="22.93" transform="translate(7.77 368.44) rotate(-51.61)"/>
        <path class="cls-3" d="M315.04,54.15s41.36,6.95,56.55,64.21l3.69-1.54s-6.07-41.35-24.13-63.51c-18.06-22.17-36.11.84-36.11.84Z"/>
        <path class="cls-3" d="M326.25,39.49s-49.4-30.1-72.96,13.19c-45.26,83.16,21.69,163.28,21.69,163.28,0,0-37.99-151.8,51.27-176.47Z"/>
        <path class="cls-2" d="M407.47,279.9c-.17,0-.35-.01-.52-.04-21.14-3.18-41.5-22.13-43.8-24.32-18.63-13.75-12.66-56.96-12.4-58.8.27-1.91,2.04-3.25,3.96-2.97,1.91.27,3.24,2.05,2.97,3.96-1.63,11.41-3.06,43.05,9.77,52.28.14.1.27.21.4.33.2.2,20.42,19.63,40.14,22.6,1.91.29,3.23,2.07,2.94,3.98-.26,1.74-1.75,2.98-3.46,2.98Z"/>
        <path class="cls-2" d="M247.92,276.81c-1.23,0-2.41-.64-3.06-1.79-.94-1.69-.34-3.82,1.34-4.76l36.51-20.46c.25-.14.52-.25.8-.32,14.66-3.97,12.37-35.47,10.26-47.27-.34-1.9.92-3.72,2.83-4.06,1.9-.34,3.72.92,4.06,2.82.36,1.98,8.4,48.24-14.88,55.14l-36.15,20.26c-.54.3-1.13.45-1.71.45Z"/>
        <path class="cls-2" d="M323.1,209.48c-.2,0-.4-.02-.6-.05-.91-.16-2.14-.3-3.57-.46-9.82-1.11-30.25-3.43-48.06-22.85-1.31-1.42-1.21-3.64.21-4.95,1.42-1.31,3.64-1.21,4.95.21,16.04,17.49,34.03,19.53,43.69,20.62,1.54.17,2.86.32,3.97.52,1.9.33,3.18,2.14,2.85,4.04-.29,1.7-1.77,2.91-3.44,2.91Z"/>
        <path class="cls-2" d="M324.93,209.16c-1.34,0-2.62-.78-3.2-2.09-.78-1.77.02-3.83,1.78-4.62,37.79-16.72,42.36-36.14,42.13-51.19-.02-1.54.96-2.91,2.42-3.38,8.15-2.64,16.8-12.32,15.3-20.38-.59-3.15-2.42-5.67-4.68-6.43-1.05-.35-2.39-.15-3.44.51-.42.26-1.14.83-1.24,1.67-.24,1.92-2,3.28-3.91,3.03-1.92-.24-3.28-1.99-3.03-3.91.34-2.7,1.97-5.15,4.46-6.72,2.83-1.78,6.34-2.24,9.38-1.22,4.71,1.57,8.29,6.09,9.35,11.79,2.09,11.27-7.23,22.88-17.6,27.4-.3,15.74-6.4,37.58-46.29,55.23-.46.2-.94.3-1.41.3Z"/>
        <path class="cls-2" d="M246.03,56.52c-.85,0-1.69-.31-2.36-.92-1.39-1.27-1.52-3.41-.31-4.84,9.85-11.62,20.98-23.15,35.6-28.8,14.59-5.64,38.76-2.05,49.27,11.19,1.2,1.51.95,3.72-.57,4.92-1.51,1.2-3.72.95-4.92-.57-8.53-10.75-29.19-13.67-41.27-9.01-11.55,4.46-20.95,13.33-29.33,22.8-.16.5-.44.97-.84,1.37l-2.8,2.82c-.68.69-1.58,1.04-2.49,1.04Z"/>
        <path class="cls-2" d="M379.04,113.36c-1.84,0-3.38-1.43-3.49-3.29-2.03-34.05-15.82-57.12-39.88-66.72-1.8-.72-2.67-2.75-1.95-4.55.72-1.8,2.75-2.67,4.55-1.95,18.66,7.44,41.49,26.12,44.27,72.81.11,1.93-1.36,3.59-3.29,3.7-.07,0-.14,0-.21,0Z"/>
        <path class="cls-2" d="M275.9,215.72c-1.55,0-2.96-1.04-3.38-2.6-19.39-73.14-18.31-122.79,3.2-147.57,15.04-17.31,34.31-15.23,35.13-15.14,1.92.23,3.29,1.97,3.06,3.89-.23,1.92-1.96,3.29-3.88,3.06-.73-.08-16.61-1.63-29.13,12.9-13.61,15.8-24.94,53.09-1.61,141.06.5,1.87-.62,3.78-2.49,4.28-.3.08-.6.12-.9.12Z"/>
        <path class="cls-2" d="M284.35,129.54c.44,2.45-1.19,4.8-3.64,5.25-2.45.44-4.8-1.19-5.25-3.64-.44-2.45,1.19-4.8,3.64-5.25,2.45-.44,4.8,1.19,5.25,3.64Z"/>
        <path class="cls-2" d="M347.12,118.19c.44,2.45-1.19,4.8-3.64,5.25-2.45.44-4.8-1.19-5.25-3.64-.44-2.45,1.19-4.8,3.64-5.25,2.45-.44,4.8,1.19,5.25,3.64Z"/>
        <path class="cls-2" d="M315.68,158.02c-1.66,0-3.13-1.19-3.44-2.88l-4.9-27.13c-.34-1.9.92-3.72,2.82-4.07,1.9-.34,3.72.92,4.07,2.82l4.9,27.13c.34,1.9-.92,3.72-2.82,4.07-.21.04-.42.06-.63.06Z"/>
        <path class="cls-2" d="M469.46,353.89c-1.47,0-2.84-.94-3.33-2.41l-12.25-37.37c-5.15-15.73-16.92-28.29-32.28-34.46-1.79-.72-2.66-2.76-1.94-4.55.72-1.79,2.76-2.66,4.55-1.94,17.29,6.94,30.53,21.07,36.33,38.77l12.25,37.37c.6,1.84-.4,3.81-2.24,4.42-.36.12-.73.17-1.09.17Z"/>
        <path class="cls-2" d="M187.45,351.08c-.36,0-.73-.06-1.09-.17-1.84-.6-2.84-2.58-2.24-4.42l11.33-34.57c5.8-17.7,19.04-31.83,36.33-38.77,1.79-.72,3.83.15,4.55,1.94.72,1.79-.15,3.83-1.94,4.55-15.36,6.17-27.13,18.73-32.28,34.46l-11.33,34.57c-.48,1.48-1.85,2.41-3.33,2.41Z"/>
        <path class="cls-2" d="M327.83,94.66c-1.56,0-2.98-1.05-3.39-2.63-.48-1.87.65-3.78,2.52-4.26l17.56-4.51c1.87-.48,3.78.65,4.26,2.52.48,1.87-.65,3.78-2.52,4.26l-17.56,4.51c-.29.08-.58.11-.87.11Z"/>
        <path class="cls-2" d="M268.47,104.05c-1.77,0-3.28-1.33-3.48-3.13-.2-1.92,1.19-3.65,3.11-3.85l18.02-1.92c1.92-.2,3.65,1.19,3.85,3.11.2,1.92-1.19,3.65-3.11,3.85l-18.02,1.92c-.13.01-.25.02-.37.02Z"/>
        <path class="cls-2" d="M328.9,309.65c-12.75,0-24.11-1.51-33.66-3.55-30-6.41-48.54-19.02-49.31-19.56-1.59-1.1-1.99-3.28-.89-4.87,1.1-1.59,3.27-1.99,4.87-.9h0c.18.12,18.37,12.46,47.1,18.54,26.41,5.59,67.45,6.88,112.98-18.71,1.68-.95,3.82-.35,4.77,1.34.95,1.69.35,3.82-1.34,4.77-31.15,17.51-60.32,22.93-84.52,22.93Z"/>
        <path class="cls-2" d="M380.31,193.43c-.79,0-1.62-.08-2.48-.3-3.43-.88-5.89-2.48-7.33-4.76-1.77-2.82-2.1-6.9-1.65-9.7.41-2.52,1.28-5.73,4.44-8.21,1.3-1.02,4.77-3.74,8.69-2.55,1.48.45,4.07,1.89,4.82,6.51.31,1.91-.98,3.71-2.89,4.02-1.9.31-3.71-.98-4.02-2.89-.06-.38-.14-.67-.22-.87-.33.11-.96.43-2.07,1.29-1.03.81-1.53,1.84-1.85,3.82-.27,1.66.03,3.84.67,4.86.44.69,1.55,1.3,3.14,1.71.81.21,1.89,0,3.13-.25.44-.09.88-.17,1.33-.25,3.16-.52,6.54-3.59,7.87-7.13,1.79-4.8,1.43-9.44-.99-12.71-.79-1.07-1.68-1.76-3.29-2.57-.65-.33-1.34-.5-2.31-.7-.27-.06-.55-.12-.82-.18-.37-.09-.92-.22-1.1-.2-1.91.26-3.92.57-5.54,1.19-.33.12-.65.25-.98.37-.43.16-.87.32-1.29.49-.27.11-.62.34-1,.58-.49.32-1.05.68-1.73,1-.47.22-.8.56-1.45,1.25-.28.29-.56.6-.88.9l-.1.1s-.03.03-.05.05c-.15,1.12-.85,2.14-1.94,2.67-1.74.85-3.83.12-4.68-1.62-.97-1.99-.36-4.06,1.81-6.15l.07-.07c.24-.24.46-.47.68-.7.83-.88,1.87-1.97,3.55-2.77.26-.12.56-.32.92-.55.56-.36,1.26-.82,2.11-1.17.52-.22,1.06-.41,1.59-.61.29-.11.58-.21.86-.32,2.32-.89,4.88-1.29,7.1-1.6,1.45-.2,2.72.1,3.65.32.2.05.4.09.59.13,1.18.24,2.57.55,4.06,1.3,1.83.91,3.95,2.18,5.78,4.66,3.86,5.22,4.56,12.26,1.92,19.32-2.2,5.9-7.66,10.66-13.29,11.59-.37.06-.74.13-1.11.21-1.09.21-2.36.46-3.73.46ZM370.02,166.3s0,0,0,0c0,0,0,0,0,0Z"/>
        <path class="cls-3" d="M269.83,291.82c-.22,0-.45-.02-.67-.07-1.9-.37-3.14-2.21-2.77-4.1l7.92-40.6c.37-1.9,2.21-3.14,4.1-2.77,1.9.37,3.14,2.21,2.77,4.1l-7.92,40.6c-.33,1.67-1.79,2.83-3.43,2.83Z"/>
        <path class="cls-3" d="M389.65,291.82c-1.64,0-3.11-1.16-3.43-2.83l-7.92-40.6c-.37-1.9.87-3.74,2.77-4.1,1.89-.37,3.73.87,4.1,2.77l7.92,40.6c.37,1.9-.87,3.74-2.77,4.1-.23.04-.45.07-.67.07Z"/>
        <path class="cls-2" d="M272.02,210.31c-.87,0-1.74-.32-2.42-.97-32.81-31.42-40.88-68.07-41.88-93.28-1.08-27.26,5.51-46.89,5.79-47.71.63-1.83,2.62-2.8,4.44-2.18,1.83.62,2.8,2.61,2.18,4.44-.08.25-6.48,19.46-5.41,45.43,1.44,34.68,14.8,64.37,39.72,88.23,1.4,1.34,1.44,3.55.11,4.95-.69.72-1.61,1.08-2.53,1.08Z"/>
        <path class="cls-2" d="M321.39,194.07c-2.26,0-4.45-.68-6.35-2-2.45-1.7-4.09-4.26-4.63-7.19-.53-2.94.11-5.9,1.82-8.36,1.7-2.45,4.26-4.09,7.19-4.63,6.06-1.09,11.89,2.95,12.98,9.01h0c.53,2.94-.11,5.91-1.81,8.36-1.7,2.45-4.26,4.1-7.19,4.63-.67.12-1.34.18-2.01.18ZM321.41,178.72c-.25,0-.49.02-.74.07-1.1.2-2.05.81-2.69,1.73-.64.92-.88,2.02-.68,3.12.41,2.27,2.58,3.78,4.85,3.37,2.26-.41,3.77-2.59,3.36-4.85h0c-.36-2.01-2.13-3.43-4.11-3.43Z"/>
      </g>
      <path class="cls-3" d="M457.11,378.08c-4.64,0-9.47-.39-14.08.19-3.42.43-6.3,2.18-9.73,1.65-8.26-1.3-17.22-.39-25.59-.39-4.23,0-8.55-.55-12.77-.17-4.06.36-8.1,1.04-12.18,1.47-4.62.49-9.09,1.87-13.67,2.32-4.33.42-8.52-.33-12.78-.74-6.4-.6-6.36,9.4,0,10,4.28.4,8.42,1.02,12.78.74,4.62-.3,9.07-1.79,13.67-2.32,4.04-.46,7.97-.8,11.95-1.42,4.2-.65,8.75.12,12.99.12,8.35,0,17.01-.65,25.23.6,3.66.55,6.7-.96,10.16-1.74,4.39-.98,9.52-.29,14.01-.29,6.43,0,6.45-10,0-10Z"/>
      <path class="cls-3" d="M378.63,413.36c-5.55-.14-11.01,1.18-16.56,1.44-6.41.3-6.44,10.3,0,10,5.53-.26,11.05-1.58,16.56-1.44,6.44.16,6.43-9.84,0-10Z"/>
      <path class="cls-3" d="M481.53,411.22c-4.37-3.55-10.11-2.31-15.35-2.24-3.52.05-7.1.78-10.61,1.15-4.28.45-8.56.35-12.86.35-6.43,0-6.44,10,0,10,6.67,0,13.35-.04,19.97-1.02,2.53-.38,4.95-.38,7.5-.51.92-.05,1.84-.16,2.77-.18,1.3-.02,2.99.73,1.51-.47,4.95,4.02,12.07-3.01,7.07-7.07Z"/>
      <g>
        <path class="cls-2" d="M92.72,491.56h336.17c5.37,0,9.74,4.36,9.74,9.74v8.11c0,5.37-4.36,9.74-9.74,9.74H92.72v-27.58h0Z"/>
        <g>
          <path class="cls-1" d="M369.2,515.71H80.9l-29.27-168.22c-2.07-11.89,7.08-22.77,19.15-22.77h248.84c9.45,0,17.53,6.8,19.15,16.11l30.43,174.89Z"/>
          <path class="cls-2" d="M373.37,519.21H77.96l-29.78-171.12c-1.16-6.69.67-13.5,5.04-18.7,4.37-5.2,10.77-8.17,17.56-8.17h248.84c11.18,0,20.68,7.99,22.6,19.01l31.15,178.99ZM83.84,512.21h281.2l-29.72-170.79c-1.33-7.65-7.94-13.21-15.7-13.21H70.78c-4.72,0-9.16,2.07-12.2,5.68-3.04,3.61-4.31,8.34-3.5,12.99l28.77,165.32Z"/>
        </g>
      </g>
      <path class="cls-2" d="M462.98,517.42c-1.92,0-3.48-1.54-3.5-3.46-.02-1.93,1.53-3.52,3.46-3.54l112.97-1.17h.04c1.92,0,3.48,1.54,3.5,3.46.02,1.93-1.53,3.52-3.46,3.54l-112.97,1.17h-.04Z"/>
      <path class="cls-2" d="M3.5,522.17c-1.92,0-3.48-1.54-3.5-3.46-.02-1.93,1.53-3.52,3.46-3.54l59.4-.61h.04c1.92,0,3.48,1.54,3.5,3.46.02,1.93-1.53,3.52-3.46,3.54l-59.4.61h-.04Z"/>
      <path class="cls-2" d="M474.84,497c-1.51,0-2.9-.98-3.35-2.5-.55-1.85.5-3.8,2.35-4.36,5.04-1.51,8.75-4.77,11.33-9.98,14.48-29.27-13.32-103.58-13.6-104.33-.68-1.81.23-3.83,2.04-4.51,1.81-.68,3.83.23,4.51,2.04,1.2,3.17,29.15,77.92,13.33,109.91-3.44,6.95-8.69,11.52-15.6,13.59-.33.1-.67.15-1,.15Z"/>
      <path class="cls-2" d="M416.49,485.07c-5.81,0-10.27-1.57-13.42-4.69-12.77-12.65,3.38-44.5,5.27-48.08.9-1.71,3.02-2.37,4.72-1.47,1.71.9,2.37,3.01,1.47,4.72-4.15,7.91-14.25,32.23-6.54,39.86,3.62,3.58,15.06,6.65,51.05-12.35-.28-7.23-3.53-32.25-34.75-38.68-1.89-.39-3.11-2.24-2.72-4.13.39-1.89,2.24-3.12,4.13-2.72,41.82,8.62,40.36,47.42,40.34,47.81l-.1,1.97-1.74.93c-20.95,11.24-36.75,16.82-47.72,16.82Z"/>
      <path class="cls-2" d="M404.85,473.35c-.71,0-1.43-.22-2.05-.67-1.56-1.13-1.91-3.32-.78-4.89l22.56-31.08c1.14-1.56,3.32-1.91,4.89-.78,1.56,1.13,1.91,3.32.78,4.89l-22.56,31.08c-.68.94-1.75,1.44-2.83,1.44Z"/>
      <path class="cls-2" d="M413.85,482.98c-.93,0-1.85-.37-2.54-1.09-1.33-1.4-1.27-3.62.13-4.95l30.49-28.88c1.4-1.33,3.62-1.27,4.95.13,1.33,1.4,1.27,3.62-.13,4.95l-30.49,28.88c-.68.64-1.54.96-2.41.96Z"/>
      <path class="cls-2" d="M381.54,449.02c-.96,0-1.88-.11-2.76-.34-3.26-.84-5.17-3.14-5.81-4.86l-.49-1.31.55-1.29c9.07-21.23,38.85-27.71,40.11-27.97,1.88-.4,3.75.81,4.14,2.71.4,1.89-.81,3.75-2.7,4.14-.27.06-25.36,5.54-34.11,21.79.08.02.16.04.24.06,1.58.3,6.44.01,17.2-9.21,1.47-1.26,3.68-1.09,4.93.38,1.26,1.47,1.09,3.68-.38,4.93-8.58,7.36-15.46,10.97-20.92,10.97Z"/>
    </g>
    <path class="cls-2" d="M151.1,100.57c-9.67,0-17.34-6.05-19.12-14.55-4.37.33-8.76-.52-11.71-3.05-3.33-2.86-5.2-6.95-5.43-11.83-.01-.3-.02-.61-.02-.91-3.68.48-7.14.61-9.92.44-8.41-.52-12.79-6.3-14.23-8.2-3.49-4.6-3.73-10.76-.67-17.37-7.89-1.59-14.73-5.86-18.36-11.47-2.81-4.34-3.64-9.37-2.41-14.53,3.21-13.47,19.68-17.96,30.33-16.02,6.32,1.15,14.04,4.91,16.72,12.02.97,2.57-.06,4.43-.55,5.11-1.75,2.42-4.51,2.3-6.72,2.2-3.65-.16-6.38-.04-8.24,2.98-1.42,2.31-1.41,4.58-.18,7.32.93-.57,1.89-1.06,2.87-1.47,3.95-1.66,11.22-4.72,16.14-.88.62.49,1.19,1.08,1.68,1.75.38-.35.75-.73,1.1-1.14,2.6-2.99,4.77-8.17,3.75-13.01-.83-3.95-3.71-7.1-8.55-9.36-2.25-1.05-3.22-3.73-2.17-5.98,1.05-2.25,3.73-3.22,5.98-2.17,9.39,4.39,12.55,10.94,13.54,15.66,1.78,8.42-2,16.46-5.77,20.79-1.71,1.97-3.59,3.47-5.51,4.63-.35,3.2-1.84,5.84-4.16,7.33-5.56,3.57-15.48,3.39-20.21-2.1-.34.57-.66,1.17-.96,1.79-1.24,2.54-2.32,6.08-.49,8.5,2.37,3.12,4.57,4.47,7.62,4.66,3.28.2,7.23-.1,11.1-.82,1.38-3.85,3.52-7.48,6.13-10.18.08-.08,8.23-7.9,14.27-4.68,2.12,1.13,3.49,3.09,3.84,5.51.58,4.04-1.8,8.06-3.54,9.78-3.27,3.22-8.14,5.52-13.33,7.04-.1.81-.13,1.61-.09,2.4.11,2.38.88,4.2,2.3,5.42.85.73,3.12,1.13,5.69.86.39-3.58,1.33-7.26,3.36-9.8,2.11-2.64,5.21-3.74,8.09-2.85,3.01.92,5.05,3.75,5.32,7.36.37,4.89-2.42,9.23-7.68,11.89-.07.04-.14.07-.21.11.79,5.17,5.65,7.87,10.4,7.87,2.49,0,4.5,2.01,4.5,4.5s-2.01,4.5-4.5,4.5ZM94.64,11.64c-6.74,0-15.12,3.11-16.65,9.54-.66,2.79-.27,5.26,1.22,7.56,2.3,3.56,7.34,6.54,12.83,7.59.12.02.25.05.38.07-2.09-4.69-2.77-10.1.7-15.73,2.8-4.54,6.63-6.3,10.07-6.95-1.67-.87-3.53-1.48-5.22-1.78-1.03-.19-2.15-.28-3.32-.28Z"/>
  </g>
</svg>