<?xml version="1.0" encoding="UTF-8"?>
<svg id="_レイヤー_2" data-name="レイヤー 2" xmlns="http://www.w3.org/2000/svg" viewBox="0 0 523.33 534.64">
  <defs>
    <style>
      .cls-1 {
        fill: #fff;
      }

      .cls-2 {
        fill: #5e6063;
      }

      .cls-3 {
        fill: #22ac38;
      }
    </style>
  </defs>
  <g id="white">
    <path class="cls-1" d="M64.72,345.89h368.48s-23.1-91.36-58.02-93.45c-34.92-2.1-36.04-12.53-36.04-12.53l-.87-8.14-27.25-13.01-23.28-1.01,11.59-14.04-12.46-8.97-1.95-7.69s12.97-5.85,12.06-34.09c0,0,16.1-8.9,11.49-29.26s-27.59-78.43-27.59-78.43l-25.38-38.65s-52.8-4.95-69.62,18.58c-16.82,23.53-17.1,41.61-17.1,41.61,0,0-6.54,31.75-15.51,33.69-8.97,1.94-2.36,31.29,26.7,35.72,0,0-11.83,16.74,9.5,31.1l7.15,4.7.68,5.26-14.84-1.14,9.71,44.67-31.43,15.24-3.67,11.52s-46.78-4.88-58.32,13.48c-11.54,18.36-34.04,84.84-34.04,84.84Z"/>
    <path class="cls-1" d="M79.34,321.18s-13.79,142.49,51.73,157.58l-7.2-144.03-44.53-13.56Z"/>
    <path class="cls-1" d="M449.4,478.76h-35.39l11.62-149.79s30.34,64.14,23.76,149.79Z"/>
  </g>
  <g id="image">
    <g>
      <path class="cls-2" d="M245.85,153.77c-1.72,0-3.21-1.26-3.46-3.01l-4.09-28.92c-.27-1.91,1.06-3.69,2.98-3.96,1.91-.28,3.68,1.06,3.96,2.98l4.09,28.92c.27,1.91-1.06,3.69-2.98,3.96-.17.02-.33.03-.5.03Z"/>
      <path class="cls-3" d="M190.15,30.08s-13.54,14.3-16.53,33.53c-2.99,19.24-6.77,36.44-14.16,42.25l11.61-5.21s5.1,25.74-1.8,30.95c0,0,6.11-1.28,11.1-6.61,4.98-5.32-10.19-58.35,17.1-74.09,27.28-15.74,83.96,15.56,83.96,15.56,0,0,9.39,33.01,42.92,44.01,0,0-23.94-31.67-37.98-70.88s-87.17-29.84-96.2-9.51Z"/>
      <path class="cls-2" d="M241.27,183.83c-.69,0-1.39-.2-2-.63-1.58-1.1-1.98-3.27-.88-4.85.48-.7,4.9-6.82,11.84-7.56,4.07-.44,7.98,1.05,11.6,4.43,1.41,1.32,1.49,3.53.17,4.95-1.32,1.42-3.53,1.49-4.95.17-2.08-1.95-4.06-2.78-6.04-2.59-3.21.33-6.05,3.43-6.87,4.6-.68.97-1.77,1.49-2.87,1.49Z"/>
      <path class="cls-2" d="M197.32,84.31c-1.72,0-3.21-1.26-3.46-3.01-.27-1.91,1.06-3.69,2.98-3.96l16.27-2.3c1.9-.28,3.69,1.06,3.96,2.98.27,1.91-1.06,3.69-2.98,3.96l-16.27,2.3c-.17.02-.33.03-.5.03Z"/>
      <path class="cls-2" d="M257.89,75.75c-1.72,0-3.21-1.26-3.46-3.01-.27-1.91,1.06-3.69,2.98-3.96l16.27-2.3c1.92-.27,3.69,1.06,3.96,2.98.27,1.91-1.06,3.69-2.98,3.96l-16.27,2.3c-.17.02-.33.03-.49.03Z"/>
      <path class="cls-2" d="M195.45,170.82c-.3,0-.6-.04-.91-.12-.87-.23-1.83-.37-2.85-.51-.84-.12-1.7-.24-2.59-.42-9.53-1.97-17.04-10.44-17.85-20.14-.31-3.71.47-6.93,2.24-9.32,2.59-3.49,7.24-4.75,10.8-2.95,1.72.87,2.42,2.98,1.54,4.7-.87,1.72-2.98,2.41-4.7,1.54-.44-.23-1.48.15-2.02.88-.94,1.26-1,3.18-.88,4.56.55,6.57,5.83,12.53,12.29,13.87.68.14,1.4.24,2.16.35,1.18.17,2.41.34,3.68.68,1.87.5,2.98,2.42,2.48,4.29-.42,1.56-1.83,2.6-3.38,2.6Z"/>
      <path class="cls-2" d="M296.99,156.47c-1.19,0-2.34-.6-3-1.69-1-1.66-.46-3.81,1.19-4.8,1.13-.68,2.26-1.19,3.35-1.68.7-.31,1.36-.61,1.98-.93,5.84-3.07,9.26-10.26,7.96-16.73-.27-1.36-.86-3.19-2.11-4.14-.73-.55-1.83-.62-2.19-.28-1.42,1.32-3.63,1.24-4.95-.18-1.32-1.42-1.24-3.63.18-4.95,2.93-2.72,7.74-2.79,11.19-.16,2.37,1.8,4,4.68,4.74,8.33,1.91,9.55-2.95,19.77-11.57,24.3-.81.43-1.6.78-2.37,1.13-.94.42-1.83.82-2.6,1.28-.57.34-1.19.5-1.8.5Z"/>
      <path class="cls-2" d="M252.87,203.31s-.09,0-.14,0c-35.47-1.4-44.18-5.82-47.66-9.03-10.7-9.88-17.37-39.09-19.04-49.5-.31-1.91,1-3.7,2.9-4.01,1.92-.31,3.7.99,4.01,2.9,2.33,14.56,9.1,38.29,16.87,45.47,1.86,1.72,9.8,5.86,43.18,7.18,1.93.08,3.44,1.7,3.36,3.63-.07,1.88-1.62,3.36-3.5,3.36Z"/>
      <path class="cls-2" d="M256.44,202.81c-1.47,0-2.83-.93-3.32-2.4-.61-1.83.39-3.82,2.22-4.42,19.69-6.53,31.37-12.65,34.73-18.19,5.48-9.05,5.41-33.73,3.61-48.36-.24-1.92,1.13-3.67,3.05-3.9,1.92-.23,3.66,1.13,3.9,3.05,1.29,10.47,2.98,40.38-4.57,52.84-4.36,7.2-16.6,13.94-38.51,21.21-.37.12-.74.18-1.1.18Z"/>
      <path class="cls-2" d="M209.92,109.6c-2.44.35-4.14,2.61-3.8,5.05.35,2.44,2.61,4.14,5.05,3.8,2.44-.35,4.14-2.61,3.8-5.05-.35-2.44-2.61-4.14-5.05-3.8Z"/>
      <path class="cls-2" d="M272.32,100.55c-2.44.35-4.14,2.61-3.8,5.05.35,2.44,2.61,4.14,5.05,3.8,2.44-.35,4.14-2.61,3.8-5.05-.35-2.44-2.61-4.14-5.05-3.8Z"/>
      <path class="cls-2" d="M308.39,118.27c-1.46,0-2.83-.92-3.32-2.39-.25-.74-25.6-74.5-78.6-91.73-5.15-1.67-9.24-1.37-12.49.92-6.93,4.89-8.77,18.15-8.9,22.85-.05,1.93-1.7,3.43-3.59,3.41-1.93-.05-3.46-1.65-3.41-3.58.02-.83.63-20.45,11.84-28.38,5.11-3.62,11.41-4.25,18.71-1.87,23.42,7.61,45.22,26.7,63.05,55.19,13.36,21.34,19.75,40.18,20.01,40.97.61,1.83-.37,3.82-2.2,4.43-.37.12-.75.18-1.11.18Z"/>
      <path class="cls-2" d="M217.51,49.08c-.69,0-1.38-.2-1.99-.62-1.59-1.1-1.98-3.28-.88-4.87l15.99-23.05c1.1-1.59,3.28-1.98,4.87-.88,1.59,1.1,1.98,3.28.88,4.87l-15.99,23.05c-.68.98-1.77,1.5-2.88,1.5Z"/>
      <path class="cls-2" d="M233.84,49.25c-1.25,0-2.46-.67-3.09-1.85-.91-1.7-.26-3.83,1.44-4.74l20.78-11.08c1.71-.91,3.83-.26,4.74,1.44.91,1.71.26,3.83-1.44,4.74l-20.78,11.08c-.52.28-1.09.41-1.64.41Z"/>
      <path class="cls-2" d="M180.6,116.57c-1.79,0-3.32-1.37-3.48-3.18-4.08-44.97,12.78-63.51,13.5-64.28,1.32-1.41,3.54-1.48,4.95-.16,1.41,1.32,1.48,3.53.17,4.94-.27.29-15.4,17.5-11.65,58.87.17,1.93-1.24,3.63-3.17,3.8-.11,0-.21.01-.32.01Z"/>
      <path class="cls-2" d="M163.33,136.73c-1.13,0-2.24-.54-2.91-1.55-1.07-1.61-.64-3.78.96-4.86,9.68-6.48,7.09-23.09,7.06-23.26-.31-1.91.98-3.71,2.89-4.02,1.91-.31,3.71.98,4.02,2.89.14.86,3.31,21.25-10.08,30.21-.6.4-1.27.59-1.94.59Z"/>
      <path class="cls-2" d="M151.69,106.88c-1.58,0-3.01-1.07-3.4-2.67-.46-1.88.69-3.77,2.57-4.23.46-.13,12.55-3.87,11.61-30.25-1.12-31.57,20.51-46.79,21.44-47.42,1.59-1.09,3.77-.69,4.87.91,1.09,1.59.69,3.77-.9,4.86-.85.59-19.38,13.84-18.4,41.4,1.16,32.49-16.2,37.11-16.94,37.29-.28.07-.56.1-.83.1Z"/>
      <path class="cls-3" d="M247.63,290.13c6.03,18.86-3.33,37.05-6.1,55.76h26.9v-47.32l12.52-21.7c-7.56.81-15.37,2.11-20.58,7.32-4.25,3.4-7.65,5.1-12.74,5.95Z"/>
      <path class="cls-2" d="M80.31,332.48c-.08,0-.16,0-.24,0-1.93-.13-3.39-1.8-3.26-3.73.49-7.24,5.46-70.93,30.04-77.33l39.97-9.8c1.88-.45,3.77.69,4.23,2.57.46,1.88-.69,3.77-2.57,4.23l-39.92,9.79c-16.7,4.35-23.55,52.74-24.78,71.02-.12,1.85-1.66,3.27-3.49,3.27Z"/>
      <path class="cls-2" d="M433.2,349.39c-1.55,0-2.97-1.04-3.38-2.61-8.44-32.15-27.49-84.63-42.69-88.6l-37.97-9.79c-1.87-.48-3-2.39-2.52-4.26.48-1.87,2.39-3,4.26-2.52l37.98,9.79c24.15,6.29,45.37,84.68,47.71,93.6.49,1.87-.63,3.78-2.5,4.27-.3.08-.6.12-.89.12Z"/>
      <path class="cls-2" d="M304.17,241.32c-.5,0-1-.11-1.48-.33-9.24-4.33-15.93-12.5-18.36-22.41-.46-1.88.69-3.77,2.57-4.23,1.88-.46,3.77.69,4.23,2.57,1.92,7.84,7.22,14.31,14.53,17.74,1.75.82,2.5,2.91,1.68,4.66-.6,1.27-1.86,2.01-3.17,2.01Z"/>
      <path class="cls-2" d="M286.87,198.24c-1.93,0-3.5-1.57-3.5-3.5v-2.95c0-1.93,1.57-3.5,3.5-3.5s3.5,1.57,3.5,3.5v2.95c0,1.93-1.57,3.5-3.5,3.5Z"/>
      <path class="cls-2" d="M153.29,309.15c-.69,0-1.37-.2-1.96-.6-1.07-.73-1.66-1.99-1.52-3.27l7.47-69.61c.13-1.21.88-2.26,1.97-2.78l31.92-15.24c1.75-.83,3.83-.09,4.67,1.65.83,1.74.09,3.83-1.65,4.67l-30.16,14.4-6.56,61.09,37.1-19.76c1.71-.91,3.83-.26,4.73,1.44.91,1.71.26,3.83-1.44,4.73l-42.93,22.87c-.52.28-1.08.41-1.65.41Z"/>
      <path class="cls-2" d="M345.73,304.88c-.56,0-1.13-.14-1.65-.41l-40.69-21.67-19.03,18.39c-1.39,1.35-3.6,1.31-4.95-.08-1.34-1.39-1.31-3.61.08-4.95l20.86-20.16c1.09-1.06,2.74-1.29,4.08-.57l37.1,19.76-6.56-61.09-24.77-11.83h-22.22c-1.93,0-3.5-1.57-3.5-3.5s1.57-3.5,3.5-3.5h23.01c.52,0,1.04.12,1.51.34l27.25,13.01c1.1.52,1.84,1.58,1.97,2.78l7.47,69.6c.14,1.29-.45,2.55-1.52,3.27-.59.4-1.27.6-1.96.6Z"/>
      <path class="cls-2" d="M268.43,349.39c-1.93,0-3.5-1.57-3.5-3.5v-47.32c0-.62.17-1.24.48-1.77l40.79-69.46c.98-1.67,3.13-2.22,4.79-1.25,1.67.98,2.22,3.12,1.25,4.79l-40.31,68.64v46.37c0,1.93-1.57,3.5-3.5,3.5Z"/>
      <path class="cls-2" d="M327.51,117.34c-.22,0-.44-.02-.66-.06-16.72-3.17-22.01-26.25-22.23-27.23-8.63-41.15-24.49-66.71-47.13-76-30.25-12.42-63.04,8.92-63.37,9.13-1.61,1.07-3.78.63-4.85-.98-1.07-1.61-.63-3.78.98-4.85,1.46-.97,36.13-23.61,69.86-9.8,24.95,10.21,42.23,37.47,51.36,81.03.03.15,4.51,19.52,16.69,21.83,1.9.36,3.15,2.19,2.79,4.09-.32,1.68-1.79,2.85-3.43,2.85Z"/>
      <g>
        <path class="cls-2" d="M193.13,345.63c-.32,0-.65-.04-.97-.14-1.86-.54-2.93-2.48-2.39-4.33l10.75-37.16c-4.94-44.35-15.51-110.46-21.33-126.68-.34-.95-.25-2.01.24-2.9.5-.88,1.35-1.51,2.35-1.71,5.66-1.17,11.01-.02,15.91,3.41,13.82,9.68,20.38,35.79,22.64,47.15,21.22-13.7,45.24-23.84,69.8-29.44,1.95-.45,5.2-1.19,8.27.18,2.25,1,3.91,2.94,4.69,5.46.93,3,.48,6.54-1.17,9.22-2.55,4.14-7.02,6.3-10.28,7.88l-14.54,7.04c1.89,2.39,3.22,5.32,3.8,8.53.69,3.78.29,7.58-1.11,10.87,2.78,2.08,4.69,5.45,5.19,9.41.48,3.79-.43,7.37-2.41,10.04.95,1.22,1.65,2.67,2.06,4.32,1.06,4.22.03,9.14-2.65,12.51-4.32,5.46-11.31,7.55-16.42,9.08l-25.56,7.65c-1.85.55-3.8-.5-4.36-2.35s.5-3.8,2.35-4.36l25.56-7.65c5.46-1.63,10.21-3.27,12.94-6.72,1.33-1.68,1.88-4.33,1.35-6.46-.23-.92-.77-2.14-2.02-2.68-1.23-.53-2.05-1.72-2.11-3.06-.06-1.34.65-2.59,1.83-3.23,2.26-1.22,2.75-4.12,2.49-6.23s-1.46-4.79-3.96-5.42c-1.14-.29-2.06-1.12-2.45-2.23-.39-1.11-.2-2.34.51-3.28,1.8-2.37,2.48-5.64,1.87-8.97-.61-3.33-2.41-6.15-4.93-7.73-1.08-.68-1.71-1.88-1.64-3.16.07-1.27.82-2.4,1.97-2.96l19.17-9.28c3.34-1.62,6-3.03,7.37-5.25.6-.97.78-2.4.45-3.48-.18-.58-.46-.96-.85-1.13-.86-.38-2.38-.09-3.86.25-25.46,5.81-50.32,16.66-71.89,31.37-1,.68-2.27.8-3.38.32-1.1-.48-1.88-1.5-2.06-2.7-.05-.37-5.63-37.25-20.69-47.79-2.1-1.47-4.26-2.31-6.52-2.53,6.65,23.34,16.24,87.03,20.4,124.6.05.46.01.92-.12,1.36l-10.94,37.83c-.44,1.53-1.84,2.53-3.36,2.53Z"/>
        <path class="cls-2" d="M244.02,345.63c-.1,0-.21,0-.31-.01-1.93-.17-3.35-1.87-3.18-3.8l3.72-41.9c.17-1.93,1.86-3.35,3.8-3.18,1.93.17,3.35,1.87,3.18,3.8l-3.72,41.9c-.16,1.82-1.69,3.19-3.48,3.19Z"/>
      </g>
      <g>
        <path class="cls-3" d="M400.78,519.26H142.07c-7.3,0-13.3-5.74-13.62-13.03l-7.54-169.63c-.34-7.76,5.85-14.24,13.62-14.24h274.09c7.78,0,13.98,6.5,13.62,14.27l-7.84,169.63c-.34,7.28-6.34,13.01-13.62,13.01Z"/>
        <path class="cls-2" d="M400.78,522.76H142.07c-9.19,0-16.71-7.19-17.12-16.38l-7.54-169.63c-.21-4.72,1.47-9.19,4.74-12.6,3.26-3.41,7.66-5.29,12.38-5.29h274.09c4.73,0,9.13,1.88,12.39,5.3,3.26,3.42,4.94,7.9,4.72,12.63l-7.84,169.63c-.42,9.17-7.94,16.34-17.12,16.34ZM134.53,325.86c-2.79,0-5.39,1.11-7.32,3.13-1.93,2.02-2.92,4.67-2.8,7.45l7.54,169.63c.24,5.43,4.69,9.69,10.13,9.69h258.71c5.43,0,9.87-4.25,10.12-9.67l7.84-169.63c.13-2.79-.86-5.45-2.79-7.47-1.93-2.02-4.53-3.14-7.33-3.14H134.53Z"/>
      </g>
      <rect class="cls-2" x="126.89" y="519.26" width="290.16" height="15.38" rx="6.6" ry="6.6"/>
      <path class="cls-2" d="M519.83,486.84h-85.87c-1.93,0-3.5-1.57-3.5-3.5s1.57-3.5,3.5-3.5h85.87c1.93,0,3.5,1.57,3.5,3.5s-1.57,3.5-3.5,3.5Z"/>
      <path class="cls-2" d="M99.93,486.84H3.5C1.57,486.84,0,485.27,0,483.34s1.57-3.5,3.5-3.5h96.43c1.93,0,3.5,1.57,3.5,3.5s-1.57,3.5-3.5,3.5Z"/>
      <path class="cls-2" d="M443.57,482.26c-.34,0-.68-.05-1.02-.15-1.85-.56-2.89-2.52-2.33-4.37,9.7-31.87-8.58-117.62-8.77-118.48-.41-1.89.79-3.75,2.68-4.16,1.88-.4,3.75.79,4.16,2.68.77,3.59,18.85,88.39,8.62,121.99-.46,1.51-1.85,2.48-3.35,2.48Z"/>
      <path class="cls-2" d="M431.43,422.15c-.72,0-1.45-.22-2.07-.68l-12.56-9.25c-1.56-1.15-1.89-3.34-.74-4.89,1.15-1.56,3.34-1.89,4.89-.74l12.56,9.25c1.56,1.15,1.89,3.34.74,4.89-.69.93-1.75,1.42-2.82,1.42Z"/>
      <path class="cls-2" d="M110.67,472.88c-.91,0-1.81-.35-2.5-1.05-40.46-41.2-31.73-126.47-31.34-130.08.21-1.92,1.93-3.32,3.86-3.1,1.92.21,3.31,1.93,3.1,3.86-.09.85-8.75,85.59,29.38,124.42,1.35,1.38,1.33,3.6-.04,4.95-.68.67-1.57,1-2.45,1Z"/>
    </g>
    <path class="cls-2" d="M82.43,100.57c-9.67,0-17.34-6.05-19.12-14.55-4.37.33-8.76-.52-11.71-3.05-3.33-2.86-5.2-6.95-5.43-11.83-.01-.3-.02-.61-.02-.91-3.68.48-7.14.61-9.92.44-8.41-.52-12.79-6.3-14.23-8.2-3.49-4.6-3.73-10.76-.67-17.37-7.89-1.59-14.73-5.86-18.36-11.47C.16,29.27-.68,24.25.55,19.09,3.76,5.62,20.23,1.13,30.89,3.06c6.32,1.15,14.04,4.91,16.72,12.02.97,2.57-.06,4.43-.55,5.11-1.75,2.42-4.51,2.3-6.72,2.2-3.65-.16-6.38-.04-8.24,2.98-1.42,2.31-1.41,4.58-.18,7.32.93-.57,1.89-1.06,2.87-1.47,3.95-1.66,11.22-4.72,16.14-.88.62.49,1.19,1.08,1.68,1.75.38-.35.75-.73,1.1-1.14,2.6-2.99,4.77-8.17,3.75-13.01-.83-3.95-3.71-7.1-8.55-9.36-2.25-1.05-3.22-3.73-2.17-5.98,1.05-2.25,3.73-3.22,5.98-2.17,9.39,4.39,12.55,10.94,13.54,15.66,1.78,8.42-2,16.46-5.77,20.79-1.71,1.97-3.59,3.47-5.51,4.63-.35,3.2-1.84,5.84-4.16,7.33-5.56,3.57-15.48,3.39-20.21-2.1-.34.57-.66,1.17-.96,1.79-1.24,2.54-2.32,6.08-.49,8.5,2.37,3.12,4.57,4.47,7.62,4.66,3.28.2,7.23-.1,11.1-.82,1.38-3.85,3.52-7.48,6.13-10.18.08-.08,8.23-7.9,14.27-4.68,2.12,1.13,3.49,3.09,3.84,5.51.58,4.04-1.8,8.06-3.54,9.78-3.27,3.22-8.14,5.52-13.33,7.04-.1.81-.13,1.61-.09,2.4.11,2.38.88,4.2,2.3,5.42.85.73,3.12,1.13,5.69.86.39-3.58,1.33-7.26,3.36-9.8,2.11-2.64,5.21-3.74,8.09-2.85,3.01.92,5.05,3.75,5.32,7.36.37,4.89-2.42,9.23-7.68,11.89-.07.04-.14.07-.21.11.79,5.17,5.65,7.87,10.4,7.87,2.49,0,4.5,2.01,4.5,4.5s-2.01,4.5-4.5,4.5ZM25.96,11.64c-6.74,0-15.12,3.11-16.65,9.54-.66,2.79-.27,5.26,1.22,7.56,2.3,3.56,7.34,6.54,12.83,7.59.12.02.25.05.38.07-2.09-4.69-2.77-10.1.7-15.73,2.8-4.54,6.63-6.3,10.07-6.95-1.67-.87-3.53-1.48-5.22-1.78-1.03-.19-2.15-.28-3.32-.28Z"/>
  </g>
</svg>