<?xml version="1.0" encoding="UTF-8"?>
<svg id="_レイヤー_2" data-name="レイヤー 2" xmlns="http://www.w3.org/2000/svg" xmlns:xlink="http://www.w3.org/1999/xlink" viewBox="0 0 201.68 323.5">
  <defs>
    <style>
      .cls-1 {
        fill: none;
      }

      .cls-2 {
        fill: #323232;
      }

      .cls-3 {
        fill: url(#_新規パターン_2);
      }

      .cls-4 {
        fill: #fff;
      }

      .cls-5 {
        fill: #6ec878;
      }
    </style>
    <pattern id="_新規パターン_2" data-name="新規パターン 2" x="0" y="0" width="4.98" height="5.18" patternTransform="translate(8123.79 -6650.21) rotate(-45) scale(1.3)" patternUnits="userSpaceOnUse" viewBox="0 0 4.98 5.18">
      <g>
        <rect class="cls-1" x="0" y="0" width="4.98" height="5.18"/>
        <rect class="cls-4" x="0" y="0" width="4.98" height="5.18"/>
        <circle class="cls-5" cx="2.49" cy="2.59" r="1.06"/>
      </g>
    </pattern>
  </defs>
  <g id="_レイヤー_1-2" data-name="レイヤー 1">
    <g>
      <path class="cls-2" d="M57.55,23.87c-.99-1.27-2.07-3.65-4.03-2.58-.84.49-1.32,1.81-.7,2.67,3.2,4.4,6.4,8.81,9.6,13.21.99,1.27,2.07,3.65,4.03,2.58.84-.49,1.32-1.81.7-2.67-3.2-4.4-6.4-8.81-9.6-13.21Z"/>
      <path class="cls-2" d="M36.96,58.98c-4.76-2.64-9.52-5.28-14.28-7.91-.68-.38-1.36-.75-2.04-1.13-2.2-1.22-4.17,2.15-1.97,3.37,4.76,2.64,9.52,5.28,14.28,7.91.68.38,1.36.75,2.04,1.13,2.2,1.22,4.17-2.15,1.97-3.37Z"/>
      <path class="cls-2" d="M184.86,49.94c-5.44,3.01-10.88,6.03-16.31,9.04-2.2,1.22-.23,4.59,1.97,3.37,5.44-3.01,10.88-6.03,16.31-9.04,2.2-1.22.23-4.59-1.97-3.37Z"/>
      <path class="cls-2" d="M151.99,21.29c-.99-.58-2.05-.15-2.67.7-3.2,4.4-6.4,8.81-9.6,13.21-.45.63-.91,1.25-1.36,1.88-.62.85-.15,2.17.7,2.67.99.58,2.05.16,2.67-.7,3.2-4.4,6.4-8.81,9.6-13.21.45-.63.91-1.25,1.36-1.88.62-.85.15-2.17-.7-2.67Z"/>
    </g>
    <g>
      <path class="cls-5" d="M78.01,90.13c-7.76,6.65-10.86,17.74-9.53,27.67.73,5.72,3.43,11.28,8.72,14,6.4-3.78,9.6-12.42,9.46-20.64-2.05-3.09-3.54-6.55-4.36-10.18-.17-.74-.32-1.49-.43-2.24-.23-1.54,1.16-2.53,2.32-2.44.69.05,1.31.48,1.44,1.41,1.05,7.18,4.86,14,10.88,18.19,6.5,4.52,14.79,5.64,22.24,3.23,1.48-.55,2.71,1.03,2.32,2.42,1.54-.08,3.07-.22,4.6-.52-2.25-1.76-4.31-3.78-5.96-6.14-.25-.36-.31-.8-.25-1.22-9.79-1.29-18.52-8.21-22.18-17.46-.39-.98.43-2.15,1.36-2.4,1.04-.29,2.02.36,2.4,1.36,3.8,9.6,14.21,15.82,24.41,14.68,1.04-.1,1.94.99,1.93,1.95-.03,1.91-2.11,2.06-3.57,2.05,2.53,3.16,5.91,5.61,9.68,7.08,1.17.44,2.37.81,3.6,1.06,1.64.35,1.92,2.82.43,3.56.64.54,1.24,1.08,1.86,1.54.31-.51.92-.83,1.46-.83-.6-.4-.97-1.11-.68-2.03,4.74-16.4-3.69-37.45-19.36-44.85-4.09-1.88-8.59-2.85-13.11-2.93-7.54-.13-15.13,2.22-21.03,6.91-1.14.96-3.06.22-3.38-1.14-1.72,1.83-4.01,3.21-5.84,4.86,1.12.55,1.78,2.01.57,3.03Z"/>
      <path class="cls-1" d="M126.34,116.52c.1.09.2.19.3.28-.1-.09-.2-.19-.3-.28Z"/>
      <path class="cls-1" d="M124.67,120.19c-.32-.27-.65-.54-.96-.82.31.28.63.55.96.82Z"/>
      <path class="cls-1" d="M127.56,117.54c.27.22.55.43.83.64-.29-.2-.56-.42-.83-.64Z"/>
      <path class="cls-1" d="M106.3,198.99s0-.05,0-.07c0,.02,0,.05,0,.07Z"/>
      <path class="cls-1" d="M129.07,118.64c.39.26.79.51,1.19.75-.41-.23-.8-.49-1.19-.75Z"/>
      <path class="cls-1" d="M6.23,243.14s.03,0,.05,0c-.02,0-.03,0-.05,0Z"/>
      <path class="cls-1" d="M7.16,243.46s-.05-.04-.08-.06c.03.02.06.04.08.06Z"/>
      <path class="cls-1" d="M77.22,131.78c.15.15.28.31.36.48,0-.24,0-.47,0-.71-.12.07-.23.16-.35.23Z"/>
      <path class="cls-1" d="M6.69,243.2s0,0-.02,0c0,0,.01,0,.02,0Z"/>
      <path class="cls-1" d="M130.91,119.74c.31.17.62.33.93.48-.32-.15-.63-.31-.93-.48Z"/>
      <path class="cls-1" d="M132.7,120.6c.27.11.53.23.8.34-.27-.1-.53-.22-.8-.34Z"/>
      <path class="cls-1" d="M81.9,98.73c-.22-1.53,1.14-2.51,2.29-2.44-1.16-.08-2.55.91-2.32,2.44.11.75.26,1.5.43,2.24,0-.01.01-.03.02-.04-.16-.73-.31-1.46-.42-2.2Z"/>
      <path class="cls-1" d="M85.32,83.82c-.14,0-.28-.02-.42-.06.14.03.28.05.42.06Z"/>
      <path class="cls-1" d="M119.75,114.88c-.25-.36-.31-.8-.25-1.22-9.79-1.29-18.52-8.21-22.18-17.46-.43-1.12.63-2.43,1.76-2.46-1.14,0-2.22,1.33-1.79,2.46,3.67,9.24,12.4,16.17,22.18,17.46-.07.42,0,.86.25,1.22,1.07,1.53,2.32,2.93,3.68,4.2-1.35-1.27-2.58-2.67-3.65-4.2Z"/>
      <path class="cls-1" d="M118.78,119.11c.2-.06.39-.1.57-.1-2.56.63-5.15,1.34-7.78,1.33,2.42-.06,4.85-.47,7.2-1.23Z"/>
      <path class="cls-1" d="M136.09,125.76c.95,1.05,1.95,2.09,3.06,2.98-.31-1.15.54-2.48,1.73-2.48-.6-.4-.97-1.11-.68-2.03,4.74-16.41-3.69-37.45-19.36-44.85-4.1-1.89-8.61-2.85-13.14-2.93,4.52.08,9.01,1.04,13.11,2.93,15.67,7.4,24.1,28.44,19.36,44.84-.29.91.08,1.62.68,2.03-.54,0-1.14.32-1.46.83-.61-.46-1.21-1-1.85-1.54-.43.22-.94.3-1.45.19Z"/>
      <path class="cls-1" d="M125.46,109.85c-.64.06-1.29.11-1.93.13.64-.01,1.29-.05,1.93-.13Z"/>
      <path class="cls-1" d="M138.36,124.65c-.03.08-.07.15-.11.22.04-.07.08-.15.11-.22Z"/>
      <path class="cls-1" d="M137.96,125.23c-.08.08-.16.15-.25.21.09-.06.17-.13.25-.21Z"/>
      <path class="cls-1" d="M85.83,83.77c-.1.02-.2.05-.3.05.1,0,.2-.03.3-.05Z"/>
      <path class="cls-1" d="M134.97,121.44c.08.02.16.06.24.08-.08-.02-.16-.05-.24-.08Z"/>
      <path class="cls-1" d="M105.34,198.69s.02.03.03.05c0-.02-.02-.03-.03-.05Z"/>
      <path class="cls-1" d="M101.17,201.37s.04,0,.06,0c-.02,0-.04,0-.06,0Z"/>
      <path class="cls-1" d="M100.55,201.58s.05-.03.08-.04c-.03.01-.05.03-.08.04Z"/>
      <path class="cls-1" d="M103.93,201.61s-.04,0-.06,0c.02,0,.04,0,.06,0Z"/>
      <path class="cls-1" d="M105.45,200.41s0,0,0,.01c0,0,0,0,0-.01Z"/>
      <path class="cls-1" d="M104.54,201.42s-.06.03-.08.04c.03-.01.06-.03.08-.04Z"/>
      <path class="cls-1" d="M105.29,200.73s-.02.03-.03.05c0-.02.02-.03.03-.05Z"/>
      <path class="cls-4" d="M27.61,175.32c.32.74.6,1.5.86,2.26.62-1.67,2.3-3.14,4.16-3.41-.74-1.54-1.11-3.23-1.75-4.79,0-.02-.02-.04-.03-.07-.2-.4-.39-.81-.65-1.17-.01-.02-.01,0-.04-.05-.12-.1-.54-.38-.08-.12-.08-.06-.17-.11-.26-.16-.03-.01-.05-.01-.11-.04-.08-.02-.12-.03-.15-.03-.1,0-.2-.01-.31,0-.06,0-.1,0-.13,0-.26.05-.51.12-.75.21.14-.07.1-.05-.12.05-.41.21-.79.46-1.16.72-.02.01,0,0-.02.02-.88.7-1.72,1.44-2.56,2.19,1.55.97,2.41,2.76,3.11,4.39Z"/>
      <path class="cls-5" d="M31.92,190.7s0,0-.01-.01c-.02,0,0,.02.04.06-.01-.02-.02-.03-.03-.05Z"/>
      <path class="cls-5" d="M31.95,190.75c.08.13.16.17.08.06,0,0,0,0-.01,0-.03-.02-.05-.04-.07-.05Z"/>
      <path class="cls-4" d="M31.47,190.21c.16.13.31.28.42.46.02.02.03.03.05.05.02.02.07.06.13.12.19.12.38.23.59.32.38.14.77.24,1.17.32.22.02.44.02.66.01,0,0,.02,0,.03,0,.04-.05.09-.09.13-.14.18-.25.32-.52.45-.8.29-.61.48-1.44.66-2.13-1.88-.7-3.78-1.74-5.22-3.13.41,1.67.82,3.3.95,4.93Z"/>
      <polygon class="cls-5" points="32.03 190.81 32.04 190.81 32.03 190.81 32.03 190.81"/>
      <path class="cls-5" d="M31.89,190.67s-.04-.04-.07-.07c.03.03.06.06.09.1,0,0,0,0,0,0,0,0-.01-.02-.02-.03Z"/>
      <path class="cls-4" d="M36.71,233.96c.21-.12.42-.19.62-.23,0-.08,0-.16.01-.24-1.15.66-3.01.12-3.01-1.61.05-4.84.19-9.75,1.21-14.51,1.67-6.49,8.48-10.03,9.64-16.76.66-6.48-.22-13.07-.72-19.54-3.17-1.13-6.41-2.39-9.7-3.07-2.17-.45-3.6,1.26-2.49,3.28,1.18,2.13,4.15,3.4,6.42,3.98,1.6.42,1.69,2.19.87,3.17.05,1.64-.67,3.34-1.47,4.76-.62,1.03-1.6,1.95-2.83,2.1-4.56,4.83-8.07,10.59-10.22,16.88-.34,1-1.33,1.66-2.4,1.36-.97-.27-1.7-1.4-1.36-2.4,1.46-4.26,3.46-8.29,5.96-12.01-1.1.52-2.33.61-3.56.04-1.28,1.73-3.39,2.75-5.63,2.06-2.42-.74-3.71-2.89-4.91-4.95-.88-1.52-1.82-3.15-2.31-4.87-1.13-.54-2.04-.87-3.35-1.54-2.24-1.14-.26-4.51,1.97-3.37.27.14.53.26.8.39.64.26,1.28.52,1.91.81.87.41,1.94.81,2.22,1.83.32,1.88,2.07,4.9,3.62,7.11,1.22,1.55,2.62.98,3.01-.84.26-1.25-.43-2.66-.78-3.84-1.22-4.17-2.74-8.27-5.01-11.99-2.93.97-6.19,1.99-8.74,3.8-2.2,1.54-1.35,5.32-1.06,7.59.65,5.2,2.63,9.93,3.92,14.95,1.94,8.49,1.79,17.35,1.42,26-.09,1.46-1.46,2.07-2.56,1.82l-.25,2.25c.48-.04.99.12,1.43.58,7.35,7.48,19.83,1.29,27.32-3Z"/>
      <path class="cls-4" d="M135.57,146.54c-.5-.85-.25-2.22.7-2.67,2.75-1.3,4.79-3.78,5.65-6.62.94-2.85.29-5.84-2.27-7.7-.27-.21-.42-.5-.5-.82-1.11-.89-2.11-1.93-3.06-2.98h0c-3.92-.79-7.55-2.53-10.67-4.96.09.07.17.15.26.21-1.53.29-3.05.44-4.58.51-.15.59-.55,1.11-1.28,1.35-16.41,5.45-33.94-5.19-37.5-21.94,0,.01-.01.03-.02.04.82,3.63,2.31,7.09,4.36,10.18.15,8.04-2.96,16.59-9.09,20.4,0,.24,0,.47,0,.71.21.44.19.95,0,1.4,0,.32,0,.64,0,.96-.12-.12-.24-.24-.36-.36-.55.67-1.48,1.04-2.46.54-1.73-.88-3.24-2.09-4.54-3.51-2.12,4.14-1.32,9.86,2.17,12.98.05.03.29.2.29.2.33.21.67.39,1.02.56.7.3,1.45.48,2.19.65.87.19,1.42,1.06,1.42,1.91.32.23.57.58.67,1.08,1.42,6.7,3.54,13.32,7.34,19.07,6.88,10.72,20.57,16.82,32.04,9.23,8.7-5.97,14.59-18.55,13.99-29.03-.11-2.8,4.25-2.3,3.91.46.34-.37.65-.78.93-1.22-.25-.15-.47-.36-.64-.65ZM106.49,129.37c1.05-.05,1.95.93,1.95,1.95,0,.48,0,.97,0,1.45,0,3.36.01,6.73.02,10.09,0,1.09-.9,1.9-1.95,1.95-1.05.05-1.95-.93-1.95-1.95,0-.48,0-.97,0-1.45,0-3.36-.01-6.73-.02-10.09,0-1.09.9-1.9,1.95-1.95ZM92.7,133.5c-2.51,0-2.51-3.9,0-3.9s2.51,3.9,0,3.9ZM117.11,157.24c-.86,4.74-3.12,10.11-7.99,11.85-3.2,1.1-6.62,0-8.99-2.3-2-1.94-3.34-4.56-4.2-7.18-.4-1.29-1.07-2.99-.02-4.14.03-.04.06-.09.1-.13.03-.03.06-.06.09-.09.1-.09.2-.17.32-.24.42-.26.91-.36,1.39-.25h17.41c1.39,0,2.06,1.24,1.88,2.47ZM118.58,133.5c-2.51,0-2.51-3.9,0-3.9s2.51,3.9,0,3.9Z"/>
      <path class="cls-4" d="M6.23,243.14c.52-.02.96.27,1.29.67,1.78,2.28,4.27,3.44,7.12,3.72,9.22.64,18.05-3.79,26-7.92-.16-1.04-.55-1.99-1.45-2.7-9.12,5.67-23.99,12-32.75,2.56-.04.21-.61,3.68-.62,3.74.14-.04.27-.06.41-.07Z"/>
      <path class="cls-5" d="M5.82,243.21l.07-.42c-.16,0-.32,0-.49,0l-.07.65c.15-.1.32-.18.48-.23Z"/>
      <path class="cls-5" d="M77.59,133.67c-.08.21-.2.42-.35.6.12.12.24.24.36.36,0-.32,0-.64,0-.96Z"/>
      <path class="cls-3" d="M195.91,242.62c-.22-6.21-.61-12.43-.81-18.64.04-2.6-.18-4.76-1.52-7.06-5.4-8.31-15.94-12.2-24.84-15.61-12.04-4.36-28.2-6.89-35.02-18.63l-.57,6.8c1.13-.67,2.99.34,2.83,1.74-4.1,30.58-8.19,61.16-12.29,91.74.07.92.41,1.9.28,2.81h3.73c7.06-19.43,17.67-37.41,24.52-56.92.37-1.16,1.28-2.72-.18-3.28-4.61-1.39-9.38-2.34-14.03-3.64-2.43-.63-1.39-4.39,1.04-3.76,3.65.95,7.31,1.87,10.96,2.82,1.79.46,4,.77,5.4,2.09,1.69,1.59,1.46,3.81.87,5.84-1.36,4.62-3.32,9.08-5.23,13.49-6.24,14.53-13.59,28.58-19.23,43.36h65.92c-.54-14.38-1.23-28.76-1.83-43.14ZM149.65,220.59c-.95.26-2.2-.33-2.4-1.36-1.32-7.02-2.63-14.05-3.95-21.07-.53-2.55,3-3.48,3.76-1.04,1.32,7.02,2.63,14.05,3.95,21.07.19,1.04-.28,2.1-1.36,2.4Z"/>
      <path class="cls-5" d="M119.58,284.6c.07-.52.14-1.04.21-1.56-1.46-11.15-2.34-22.38-4.01-33.5-1.09-7.41-2.26-15.11-5.02-22.12-1.97.06-3.95.12-5.92.18-1.09.03-1.9-.92-1.95-1.95-.05-1.54,1.58-2.1,2.87-1.98,1.4-.04,2.8-.09,4.2-.13-.24-.56-.25-1.21.04-1.79,2.22-4.47,2.88-9.41,3.42-14.3-1.26-.92-2.53-1.83-3.79-2.75-.88-.63-1.31-1.79-.63-2.76-.27-.3-.51-.65-.76-1.03-.8-.05-1.58-.56-1.81-1.3h-.82c.06,1.51-1.58,2.5-2.89,1.73l-.3.24h0c1.04.55,1.34,2.27.4,3.06-.73.6-1.45,1.2-2.18,1.8.33.25.57.59.66.99.26,1.28.56,2.55.88,3.82.53,2.09,1.1,4.19,1.89,6.2.05.12.21.5-.01-.02.67,1.31-.18,3-1.75,2.92.26,1.11.58,2.21.99,3.32-.69,1.4-1.28,2.73-1.81,4,.83.33,1.47,1.15,1.2,2.26-3.17,16.09-3.94,32.59-5.21,48.92.52,2.3,1.05,4.6,1.58,6.89h20.9c-.27-.32-.43-.72-.37-1.15Z"/>
      <path class="cls-4" d="M80.84,185.38c-.35.45-.72.89-1.09,1.32l.64,5.55c.69.24,1.26.82,1.31,1.75,2.17,24.23,7.87,48.04,12.85,71.81,1.2-12.3,1.64-24.83,4.36-36.91.33-1.32,1.58-1.62,2.56-1.22.53-1.28,1.12-2.6,1.81-4-.41-1.11-.74-2.21-.99-3.32-.67-.02-1.36-.35-1.62-.95-1.42-3.34-2.31-6.92-3.05-10.48-2.56,2.11-5.11,4.22-7.67,6.33-.65.53-1.5.72-2.22.37-1.14-.48-1.53-2.3-.54-3.13,4.29-3.53,8.57-7.07,12.86-10.6.66-.54,1.6-.76,2.36-.3h0l.3-.24c-6.66-5.3-12.78-11.13-17.94-17.93-.63-.85-.13-2.18.7-2.67.94-.54,2.04-.16,2.67.7,4.81,6.43,10.76,11.75,16.9,16.86.14.12.25.26.33.42.15.27.23.58.23.89h.82c-.32-.88.11-1.8.84-2.35,6.73-5.13,13.72-10.4,18.94-17.13.84-1.04,2.76-.55,3.18.64.28.7.07,1.49-.42,2.12-5.43,6.99-12.74,12.42-19.73,17.74-.29.22-.64.3-.99.28.24.38.49.73.76,1.03.53-.79,1.78-1.21,2.6-.61,5.74,4.34,11.89,8.27,17.43,12.83,1.03-7.65,2.05-15.31,3.08-22.96.1-.74.46-1.41,1.07-1.74l.57-6.8c-.81-1.39-1.49-2.9-2.02-4.57-.28-.78-.04-1.47.43-1.9-.87-2.58-1.51-5.28-2.07-8.01-9.95,18.99-31.48,21.61-45.27,5.19-.83,3.17-1.85,6.79-4.24,9.02,1.05.71,1.02,2.08.27,2.98Z"/>
      <path class="cls-3" d="M93.43,280.82c.03-.54.07-1.07.11-1.61-5.95-28.21-13.31-56.42-15.74-85.21-.09-1.58,1.42-2.16,2.59-1.75l-.64-5.55c-3.11,3.6-6.84,6.62-11.02,8.92.11.36.17.74.09,1.13-1.32,7.02-2.63,14.05-3.95,21.07-.76,2.43-4.28,1.52-3.76-1.04,1.2-6.38,2.39-12.77,3.59-19.15-3.28,1.49-6.68,2.73-10.09,3.89-1.85.63-2.87-1.5-2.13-2.86-1.02.65-2.01,1.23-3.29,1.22-.31,5.93-4.52,10-7.84,14.48-1.12,1.6-1.8,2.79-2.19,4.65-.37,1.8-.54,3.64-.67,5.48-.18,2.46-.24,4.93-.27,7.39,0,.78-.37,1.32-.89,1.61,0,.08,0,.16-.01.24,1.7-.34,3,1.89,1.86,3.18.91.7,1.3,1.65,1.45,2.7.22-.07.44-.12.65-.11,1.57-.54,2.97.54,2.71,2.39.2,14.62-.07,29.25,0,43.86h40c-8.69-18.58-17.9-37.04-24.81-56.37-1.72-4.58-.61-7.41,4.33-8.49,4.38-1.19,8.58-2.91,12.96-4.08,2.43-.65,3.46,3.12,1.04,3.76-4.71,1.25-9.32,2.94-13.98,4.35-1.4.42-1.33.9-.93,2.3,6.89,20.17,16.73,39.23,25.7,58.53h6.74c-.25-1.1-.51-2.2-.76-3.3-.53-.28-.91-.83-.86-1.64Z"/>
      <path class="cls-4" d="M37.27,169.18c-.51-5.35-.67-10.69-.6-16.06.04-3.09.07-6.27-.48-9.33-.2-1.12-.5-2.35-1.25-3.25-.41-.5-1.49-1.39-2.24-1.15-.7.23-.8,1.41-.9,2-.24,1.41-.25,2.86-.23,4.29.1,6.24.25,12.5.08,18.73,2.85,1.49,3.21,5.13,4.36,7.82.29.74,1.03,1.4.82,2.27,1.19.33,2.32.74,3.44,1.1v-4.75c-1.11.52-2.85-.04-3.01-1.67Z"/>
      <path class="cls-3" d="M3.93,245.62c.19,17.13-.08,34.26,0,51.39,0,4.49-.12,8.83,2.09,12.96,9.49,16.73,34.09,10.24,34.08-9.06,0-18.87,0-37.75,0-56.62-9.52,4.82-26.52,12.13-35.12,2.54-1.12-1.05-.69-2.75.35-3.39l.07-.65c-1.03.06-2.07.41-3.03.98.83.14,1.57.76,1.57,1.85Z"/>
      <path class="cls-4" d="M99.92,159.21c.04.1.23.56.24.61.5,1.14,1.11,2.24,1.85,3.24.46.54.95,1.07,1.5,1.51.38.27.75.49,1.17.69.36.15.74.23,1.12.32.43.03.87.04,1.29-.01.38-.06.71-.15,1.06-.28.43-.19.82-.42,1.19-.7.42-.35.83-.79,1.17-1.21.63-.85,1.14-1.78,1.56-2.75.28-.66.49-1.29.68-1.97h-13.02c.06.18.11.36.18.54Z"/>
      <path class="cls-4" d="M18.31,177.54c1.89,3.05,3.33,6.34,4.5,9.73.8,2.66,2,5.41,2.12,8.18.13.07.25.15.36.25.85.69,2.08-2.48,2.18-2.86.38-1.38.18-2.75-.13-4.13-.71-3.11-1.44-6.27-2.39-9.32-.44-1.4-.94-2.76-1.67-4.03-.26-.44-.55-1.05-1.07-1.24-.67-.24-1.75.2-2.39.41-1.51.49-2.96,1.19-4.35,2,.13.09.24.19.34.31.82-.39,1.88-.29,2.5.7Z"/>
      <path class="cls-5" d="M32.17,190.93s-.07-.07-.1-.1c-.01,0-.02-.01-.04-.02.05.04.09.08.14.12Z"/>
      <path class="cls-4" d="M128.68,216.66c-.62.52-1.58.71-2.25.23-3.14-2.28-6.28-4.55-9.42-6.83-.6,4.77-1.5,9.47-3.74,13.8.42.33.7.84.78,1.39,1.73,3.82,2.66,7.98,3.55,12.07,2.07,9.93,3.21,20.04,4.29,30.12,2.27-16.93,4.54-33.85,6.8-50.78Z"/>
      <path class="cls-2" d="M96.79,182.37c13.2,5.54,26.45-1.53,32.92-13.52,3.62-6.28,5.98-13.59,5.55-20.89-.16-2.49-4.06-2.51-3.9,0,.05.74.06,1.49.05,2.23-.31,9.84-5.83,21.19-14.04,26.81-5.24,3.39-11.64,4.35-17.57,2.38-12.98-4.39-19.35-18.1-21.81-30.67-.11-.51-.36-.86-.67-1.08,0-.85-.55-1.72-1.42-1.91-.74-.16-1.49-.35-2.19-.65-.35-.17-.7-.35-1.02-.56,0,0-.24-.17-.29-.2-3.5-3.12-4.29-8.84-2.17-12.98,1.3,1.42,2.81,2.63,4.54,3.51.98.5,1.91.13,2.46-.54.59-.7.72-1.84-.01-2.49,0,0-.01,0-.02.01-11.13-6.01-10.6-22.78-5.83-32.85,1.61-3.38,3.78-6.39,6.65-8.81,1.2-1.01.56-2.47-.55-3.02-.68-.36-1.48-.32-2.18.26-10.94,9.48-14.39,28.3-7.27,40.95-.44.11-.85.39-1.12.93-3.77,7-1.15,18.09,7.3,20.01,2.64,13.55,9.24,27.43,22.6,33.09Z"/>
      <path class="cls-2" d="M81.9,98.73c2.54,17.87,20.56,29.85,37.92,24.14.73-.24,1.13-.76,1.28-1.35,0,0-.02,0-.02,0,.37-1.37-.82-2.96-2.29-2.42-15.47,5.05-31.03-5.48-33.15-21.42-.44-2.55-4.11-1.31-3.73,1.04Z"/>
      <path class="cls-2" d="M104.56,142.86c0,1.02.9,2,1.95,1.95,1.05-.05,1.95-.86,1.95-1.95,0-3.85-.02-7.69-.02-11.54-.1-2.58-3.79-2.56-3.9,0,0,3.85.02,7.69.02,11.54Z"/>
      <path class="cls-2" d="M92.7,129.6c-2.51,0-2.51,3.9,0,3.9s2.51-3.9,0-3.9Z"/>
      <path class="cls-2" d="M118.58,129.6c-2.51,0-2.51,3.9,0,3.9s2.51-3.9,0-3.9Z"/>
      <path class="cls-2" d="M85.32,83.82c.49.02.93-.13,1.35-.44,5.9-4.69,13.49-7.04,21.03-6.91,16.92-.11,29.33,13.59,32.76,29.33,1.43,6.05,1.62,12.47-.26,18.44-.29.91.08,1.62.68,2.03-1.54-.03-2.44,2.27-1.23,3.3,1.94,1.52,2.81,3.27,2.66,5.66-.31,3.69-2.66,7.03-6.04,8.66-1.26.61-1.25,2.66-.06,3.32.59.37,1.36.37,2.03.05,7.42-3.49,11.43-15.13,3.91-20.61.76-.02,1.51-.42,1.8-1.35,3.76-11.93.34-25.8-6.37-36.04-6.86-11.15-19.93-17.59-32.94-16.57-7.59.51-14.75,3.23-20.7,7.96-1.48,1.09-.25,3.16,1.38,3.2Z"/>
      <path class="cls-2" d="M136.09,125.76c.51.1,1.02.03,1.45-.19,0,0,0,0,0,0,1.49-.74,1.21-3.2-.43-3.56-1.23-.25-2.43-.62-3.6-1.06-3.77-1.47-7.14-3.92-9.68-7.08,1.46,0,3.55-.14,3.57-2.05,0-.96-.89-2.05-1.93-1.95-10.2,1.14-20.61-5.08-24.41-14.68-.38-.99-1.34-1.65-2.37-1.36-.93.25-1.75,1.42-1.36,2.4,3.67,9.24,12.4,16.17,22.18,17.46-.07.42,0,.86.25,1.22,1.07,1.53,2.3,2.93,3.65,4.2,3.53,3.32,7.89,5.72,12.69,6.68h0Z"/>
      <path class="cls-2" d="M54.61,201.52c3.4-1.16,6.81-2.4,10.09-3.89-1.2,6.38-2.39,12.77-3.59,19.15-.52,2.56,3,3.47,3.76,1.04,1.32-7.02,2.63-14.05,3.95-21.07.07-.39.02-.77-.09-1.13,4.18-2.29,7.92-5.32,11.02-8.92,1.09-1.16,2.6-3.01.82-4.3-.73-.48-1.91-.5-2.48.22-3.06,3.9-6.78,7.08-11.1,9.51-4.24,2.39-8.82,4.05-13.41,5.62-.53.18-.88.51-1.09.9-.75,1.36.27,3.49,2.13,2.86Z"/>
      <path class="cls-2" d="M64.19,231.88c-.57-1.54-1.12-3.08-1.58-4.66-.4-1.39-.46-1.88.93-2.3,4.67-1.41,9.27-3.1,13.98-4.35,2.42-.64,1.4-4.41-1.04-3.76-4.39,1.16-8.59,2.89-12.96,4.08-1.99.54-4.17,1.22-4.87,3.4-.55,1.7.02,3.44.54,5.08,1.64,5.12,3.78,10.1,5.89,15.04,5.94,13.94,12.38,27.66,18.92,41.33h4.31c-8.38-17.79-17.13-35.48-24.12-53.87Z"/>
      <path class="cls-2" d="M147.06,197.12c-.75-2.43-4.29-1.53-3.76,1.04,1.32,7.02,2.63,14.05,3.95,21.07.75,2.43,4.29,1.53,3.76-1.04-1.32-7.02-2.63-14.05-3.95-21.07Z"/>
      <path class="cls-2" d="M143.35,259.4c4.51-10.07,9.57-19.97,12.93-30.49,1.69-5.39-1.53-7.06-6.27-7.93-3.65-.95-7.31-1.87-10.96-2.82-2.43-.63-3.47,3.13-1.04,3.76,4.65,1.3,9.42,2.25,14.03,3.64,1.46.56.55,2.12.18,3.28-6.85,19.51-17.45,37.48-24.52,56.92h4.12c3.36-8.99,7.55-17.63,11.53-26.36Z"/>
      <path class="cls-2" d="M201.51,281.76c-.88-20.72-1.84-41.47-2.73-62.16-3.7-15.02-26.85-21.27-39.88-25.67-9.23-2.77-20.43-6.68-23.44-16.92-.5-1.61-2.37-1.67-3.31-.8-.47.42-.7,1.12-.43,1.9,4.72,15.47,23.53,18.41,37.04,23.2,9.54,3.62,27.34,10.24,26.36,22.67.84,20.59,1.85,41.18,2.64,61.78h3.94c-.06-1.33-.12-2.66-.17-3.99Z"/>
      <path class="cls-2" d="M105.36,198.74c-.08-.16-.19-.3-.33-.42-6.15-5.11-12.1-10.44-16.9-16.86-.57-.77-1.5-1.18-2.4-.82-1.01.36-1.65,1.86-.96,2.79,5.16,6.81,11.28,12.63,17.94,17.93,1.72.99,3.57-.92,2.66-2.62Z"/>
      <path class="cls-2" d="M101.23,201.37c-.43.05-.84.25-1.19.53-4.29,3.53-8.57,7.07-12.86,10.6-.99.83-.61,2.65.54,3.13.73.35,1.57.16,2.22-.37,2.56-2.11,5.11-4.22,7.67-6.33.74,3.55,1.63,7.14,3.05,10.48.26.6.94.93,1.62.95,1.57.08,2.42-1.61,1.75-2.92.1.23.12.29.11.27-.81-1.97-1.44-4.29-1.99-6.44-.32-1.27-.62-2.54-.88-3.82-.08-.4-.33-.74-.66-.99.73-.6,1.45-1.2,2.18-1.8.94-.79.64-2.51-.4-3.06h0c-.37-.22-.77-.28-1.17-.23Z"/>
      <path class="cls-2" d="M128.95,182.9c.67-.84.78-2,0-2.76-.67-.67-2.11-.84-2.76,0-5.22,6.73-12.21,12.01-18.94,17.13-.84.61-1.24,1.74-.7,2.67.48.82,1.82,1.33,2.67.7,6.99-5.32,14.31-10.75,19.73-17.74Z"/>
      <path class="cls-2" d="M100.89,240.69c.45-3.59.91-7.23,1.78-10.75.27-1.11-.37-1.93-1.2-2.26-.99-.39-2.24-.1-2.56,1.22-2.73,12.08-3.16,24.62-4.36,36.91-4.98-23.78-10.68-47.58-12.85-71.81-.05-.92-.62-1.5-1.31-1.75-1.17-.41-2.68.16-2.59,1.75,2.43,28.79,9.79,57,15.74,85.21-.07,1.08-.42,2.74.75,3.25.25,1.1.51,2.2.76,3.3h4c-.54-2.3-1.06-4.59-1.58-6.89.84-12.74,1.85-25.5,3.43-38.17Z"/>
      <path class="cls-2" d="M124,284.98c-.11-.67-.2-1.35-.3-2.03,4.1-30.58,8.19-61.16,12.29-91.74.14-1.05-1-1.94-1.95-1.95-1.1-.01-1.82.89-1.95,1.95-1.03,7.65-2.05,15.31-3.08,22.96-5.54-4.56-11.69-8.49-17.43-12.83-.86-.62-2.14-.14-2.67.7-.58.98-.16,2.05.7,2.67,1.26.92,2.53,1.83,3.79,2.75-.54,4.89-1.2,9.83-3.42,14.3-.29.58-.28,1.23-.04,1.79-1.4.04-2.8.09-4.2.13-1.29-.13-2.91.44-2.87,1.98.05,1.03.86,1.98,1.95,1.95,1.97-.06,3.95-.12,5.92-.18,2.76,7.01,3.93,14.71,5.02,22.12,1.66,11.13,2.55,22.35,4.01,33.5-.06.9-.53,1.95.16,2.71h4.03c.05-.24.06-.5.02-.78ZM121.47,263.63c-1.67-12.87-2.61-26.22-7.43-38.38-.07-.55-.35-1.05-.78-1.39,2.24-4.34,3.14-9.04,3.74-13.8,3.14,2.28,6.28,4.55,9.42,6.83.67.49,1.63.29,2.25-.23-2.27,16.93-4.54,33.85-6.8,50.78-.13-1.27-.26-2.55-.41-3.82Z"/>
      <path class="cls-2" d="M38.68,237.32c1.86-.98.67-3.99-1.35-3.6-7.79,4.1-20.3,10.97-27.95,3.23-1.55-1.68-4.28.62-2.94,2.5,8.64,9.38,23.04,3.15,32.24-2.14Z"/>
      <path class="cls-2" d="M10.75,232.32c.37-8.65.53-17.51-1.42-26-1.29-5.02-3.27-9.75-3.92-14.95-.28-2.26-1.13-6.05,1.06-7.59,2.55-1.81,5.81-2.84,8.74-3.8,2.27,3.72,3.78,7.83,5.01,11.99.35,1.18,1.04,2.59.78,3.84-.39,1.8-1.79,2.39-3.01.84-1.54-2.21-3.29-5.23-3.62-7.11-.28-1.02-1.35-1.42-2.22-1.83-.63-.3-1.27-.56-1.91-.81-.27-.12-.54-.25-.8-.39-2.23-1.14-4.21,2.22-1.97,3.37,1.31.67,2.22.99,3.35,1.54.49,1.72,1.43,3.35,2.31,4.87,1.19,2.06,2.49,4.21,4.91,4.95,2.24.69,4.35-.33,5.63-2.06,1.23.57,2.46.48,3.56-.04-2.49,3.72-4.5,7.75-5.96,12.01-.34,1,.39,2.13,1.36,2.4,1.07.29,2.06-.36,2.4-1.36,2.15-6.29,5.66-12.05,10.22-16.88,1.24-.15,2.21-1.07,2.83-2.1.79-1.41,1.52-3.12,1.47-4.76.82-.98.73-2.75-.87-3.17-2.26-.59-5.24-1.86-6.42-3.98-1.11-2.01.32-3.72,2.49-3.28,3.29.68,6.53,1.95,9.7,3.07.5,6.47,1.38,13.07.72,19.54-.86,4.77-4.35,7.79-7.04,11.57-2.46,3.03-3.13,6.85-3.4,10.64-.28,3-.41,6.03-.4,9.05.03,2.57,3.95,2.44,3.9,0,.03-2.46.09-4.93.27-7.39.26-3.6.5-7.18,2.86-10.13,2.67-3.79,6.07-6.82,7.3-11.46,1.14-4.41.64-9.19.37-13.63-.2-3.21-.46-6.42-.81-9.62-.1-.92-.55-1.57-1.43-1.88-3.33-1.13-6.57-2.24-9.95-3.28.21-.86-.52-1.53-.82-2.27-1.15-2.69-1.51-6.33-4.36-7.82.17-6.23.01-12.49-.08-18.73-.02-1.43-.02-2.88.23-4.29.1-.58.2-1.76.9-2,.75-.25,1.82.64,2.24,1.15.74.9,1.05,2.13,1.25,3.25.55,3.05.51,6.24.48,9.33-.06,5.37.1,10.71.6,16.06.15,1.63,1.9,2.19,3.01,1.67.57-.27.97-.82.89-1.67-.92-7.78-.31-15.61-.84-23.4-.23-2.36-.51-4.84-1.81-6.89-2.13-3.37-7.58-5.05-9.78-.79-1.11,2.15-1.11,4.96-1.08,7.32.16,6.22.14,12.44.15,18.66-2.01.45-3.59,1.89-5.09,3.21-.95,1.01-2.67,1.87-3.06,3.22-3.73.93-7.21,3.13-10.27,5.38-.78.57-1.19,1.52-.81,2.43-3.01,1.39-6.46,2.88-7.19,6.47-.81,5.71.9,11.65,2.42,17.12,1.25,4.06,2.42,7.82,2.81,12.08.54,6.09.52,12.23.21,18.33-.12,2.54,3.77,2.46,3.9,0ZM35.75,188.41c-.17.69-.37,1.52-.66,2.13-.13.28-.27.55-.45.8-.04.04-.09.09-.13.14,0,0-.02,0-.03,0-.22.01-.44,0-.66-.01-.4-.08-.79-.18-1.17-.32-.2-.09-.4-.2-.59-.32.03.03.06.05.1.1-.04-.04-.09-.08-.14-.12,0,0,0,0,0,0,.08.1,0,.07-.08-.06-.04-.04-.06-.06-.04-.06-.03-.03-.06-.07-.09-.1.04.03.05.05.07.07-.11-.17-.26-.33-.42-.46-.13-1.63-.54-3.26-.95-4.93,1.45,1.39,3.34,2.42,5.22,3.13ZM25.56,170c.49-.42.99-.84,1.5-1.25.01-.01,0,0,.02-.02.38-.26.75-.51,1.16-.72.22-.1.25-.12.12-.05.24-.09.5-.16.75-.21.03,0,.07,0,.13,0,.1,0,.2,0,.31,0,.03,0,.08.02.15.03.06.02.08.03.11.04.09.05.18.1.26.16-.46-.26-.04.02.08.12.03.04.03.03.04.05.26.36.45.77.65,1.17.01.03.02.05.03.07.64,1.56,1.01,3.25,1.75,4.79-1.87.27-3.55,1.74-4.16,3.41-.89-2.38-1.75-5.17-3.96-6.65.35-.31.7-.63,1.06-.94ZM19.83,174.52c1.55-.54,2.66-.98,3.46.84,2.18,4.13,2.95,8.85,4.06,13.34.31,1.37.51,2.75.13,4.13-.11.38-1.34,3.55-2.18,2.86-.11-.09-.24-.17-.36-.25-.12-2.77-1.32-5.52-2.12-8.18-1.17-3.39-2.61-6.68-4.5-9.73-.62-.99-1.67-1.09-2.5-.7-.1-.12-.21-.22-.34-.31,1.39-.81,2.84-1.51,4.35-2Z"/>
      <path class="cls-2" d="M31.89,190.67s.01.02.02.03c0,0,0,0,0,0,0,0,0,0,.01.01.01.02.02.03.03.05.02.02.04.03.07.05,0,0,0,0,.01,0,0,0,0,0,0,0,0,0,0,0,0,0,.01,0,.02.01.04.02-.06-.06-.1-.1-.13-.12-.01-.01-.03-.03-.05-.05Z"/>
      <path class="cls-2" d="M44,241.89c.26-1.84-1.14-2.93-2.71-2.39-.35,0-.72.1-1.05.27-2.75,1.61-5.68,3-8.64,4.2-7.34,2.87-18.57,6.91-24.44-.51-1.72-1.23-3.77,1.45-2.4,3.11,8.5,9.97,25.74,2.59,35.34-2.28,0,18.87,0,37.75,0,56.62.01,19.28-24.58,25.79-34.08,9.06-2.21-4.13-2.09-8.46-2.09-12.96v-17.47c0-11.1.18-22.21,0-33.3.16-1.2-.43-2.34-1.57-2.47-1.16-.22-2.46.58-2.33,2.05,0,16.46,0,32.91,0,49.37,0,4.16-.3,8.48.88,12.51,2.8,9.54,12.05,16.22,22,15.77,9.96-.44,18.78-7.82,20.65-17.68.97-6.61.21-13.39.43-20.05-.07-14.62.2-29.25,0-43.86Z"/>
      <path class="cls-2" d="M115.23,154.77h-17.41c-.48-.12-.97-.01-1.39.25-.12.07-.23.15-.32.24-.03.03-.06.06-.09.09-.04.04-.07.08-.1.13-1.05,1.14-.38,2.84.02,4.14,3.01,10.46,14.14,14.34,19.43,3.22.77-1.99,3.61-7.76-.13-8.06ZM112.51,159.53c-.13.38-.26.72-.42,1.11-.42.97-.92,1.9-1.56,2.75-.34.42-.76.86-1.17,1.21-.37.28-.76.51-1.19.7-.35.13-.68.22-1.06.28-.43.05-.87.04-1.29.01-.37-.09-.76-.17-1.12-.32-.42-.2-.8-.42-1.17-.69-.56-.45-1.04-.97-1.5-1.51-.74-1-1.36-2.1-1.85-3.24-.12-.31-.32-.82-.42-1.16h13.02c-.09.29-.16.58-.26.86Z"/>
    </g>
    <g>
      <path class="cls-4" d="M108.15,4.1c-3.01-.92-6.4-.69-9.2.79-3.27,1.74-5.11,4.94-5.69,8.52-.31,2.79.05,5.35,1.65,7.73.89,1.32,1.95,2.46,2.7,3.88.55,1.03.98,2.11,1.32,3.22,3.7.01,7.4.03,11.1.04.91-3.28,3.59-5.57,4.94-8.76,2.53-5.94-.56-13.5-6.83-15.42Z"/>
      <path class="cls-2" d="M97.94,1.39c-4.49,2.03-7.45,6.42-8.18,11.23,0,.05,0,.1,0,.15-.03.11-.05.21-.06.32-.39,3.08,0,6.14,1.52,8.88.79,1.42,1.93,2.57,2.78,3.94.84,1.35,1.39,2.79,1.76,4.33,0,1.88-.01,3.75-.02,5.63,0,1.43.3,2.82,1.42,3.81.44.39.92.64,1.41.83.25,2.26,1.73,4.15,3.88,4.97,2.19.83,4.91.11,6.4-1.69.75-.9,1.21-1.99,1.36-3.1,1.88-.6,3.07-2.35,3.11-4.3.04-2.03,0-4.06-.01-6.09.01-.08.03-.16.03-.24.1-1.96,1.41-3.6,2.51-5.14,1.18-1.64,2.26-3.29,2.89-5.23,1.23-3.76.81-7.92-.84-11.48-3.45-7.49-12.67-10.13-19.96-6.84ZM104.08,42.22c-.2-.05-.39-.1-.59-.17-.09-.06-.2-.1-.29-.16-.06-.04-.12-.08-.18-.12,0,0-.01,0-.02-.01-.01-.01-.02-.02-.04-.03-.13-.12-.25-.25-.37-.38t0,0c-.05-.08-.11-.16-.15-.24-.04-.08-.08-.15-.12-.23,1.39,0,2.78,0,4.18.01-.04.08-.08.16-.13.24-.04.06-.09.13-.13.19-.11.12-.21.24-.33.35-.03.03-.18.13-.16.13-.14.08-.4.17-.5.27-.07.02-.14.05-.21.07-.07.02-.14.04-.21.05-.01,0-.05,0-.09.02-.04,0-.08,0-.1,0-.1,0-.19,0-.29,0-.08,0-.17,0-.25-.01ZM105.81,41.77s-.05.03-.05.03c0,0-.01,0-.02.01,0,0,.04-.02.07-.04ZM109.5,37.05c.07-.1-.21.17-.05.06-.22.16-.31.21-.66.21-.26,0-.53,0-.79,0-2.14,0-4.28-.01-6.42-.02-.36,0-.72,0-1.08,0-.09,0-.17,0-.26,0-.06,0-.17-.01-.21-.02-.13-.04-.37-.15-.18-.05-.07-.04-.43-.27-.21-.13-.17-.11-.22-.23-.29-.49,0-.02,0-.03-.01-.04,0-.01,0-.02,0-.03,0-.02,0-.07,0-.1,0-.02,0-.04,0-.06,0-.11,0-.23,0-.34,0-1.4,0-2.79.01-4.19,3.46.04,6.91.07,10.37.11,0,1.2,0,2.4,0,3.59,0,.3,0,.59,0,.89,0,.02,0,.03,0,.05,0,.3.07-.01-.04.25-.11.26.08.01-.11.22,0,0-.04.05-.07.09ZM114.98,19.52c-1.36,3.19-4.04,5.47-4.94,8.76-3.7-.01-7.4-.03-11.1-.04-.33-1.11-.77-2.19-1.32-3.22-.75-1.41-1.81-2.56-2.7-3.88-1.61-2.38-1.96-4.94-1.65-7.73.59-3.58,2.42-6.78,5.69-8.52,2.79-1.49,6.19-1.71,9.2-.79,6.27,1.92,9.36,9.47,6.83,15.42Z"/>
      <path class="cls-5" d="M104.71,42.22s.08-.01.09-.02c.07-.02.14-.03.21-.05.07-.02.14-.04.21-.07.1-.1.37-.19.5-.27-.02,0,.13-.1.16-.13.12-.11.22-.23.33-.35.04-.07.09-.13.13-.19.05-.08.09-.16.13-.24-1.39,0-2.78,0-4.18-.01.04.08.08.15.12.23.05.08.1.16.15.24t0,0c.12.13.24.26.37.38.01.01.02.02.04.03,0,0,.01,0,.02.01.06.04.12.08.18.12.09.06.2.1.29.16.19.06.39.12.59.17.08,0,.16.01.25.01.1,0,.19,0,.29,0,.01,0,.05,0,.1,0Z"/>
      <path class="cls-5" d="M105.81,41.77s-.06.04-.07.04c0,0,.01,0,.02-.01,0,0,.03-.02.05-.03Z"/>
      <path class="cls-5" d="M109.68,36.74c.11-.27.04.04.04-.25,0-.02,0-.03,0-.05,0-.29,0-.59,0-.89,0-1.2,0-2.4,0-3.59-3.46-.04-6.91-.07-10.37-.11,0,1.4,0,2.79-.01,4.19,0,.11,0,.23,0,.34,0,.02,0,.04,0,.06,0,.03,0,.08,0,.1,0,.01,0,.02,0,.03,0,.01,0,.02.01.04.06.27.11.38.29.49-.22-.14.14.09.21.13-.19-.1.05,0,.18.05.04,0,.15.02.21.02.09,0,.17,0,.26,0,.36,0,.72,0,1.08,0,2.14,0,4.28.01,6.42.02.26,0,.53,0,.79,0,.36,0,.44-.05.66-.21-.15.11.12-.16.05-.06.03-.04.06-.09.07-.09.19-.21,0,.04.11-.22Z"/>
    </g>
  </g>
</svg>